%TF.GenerationSoftware,KiCad,Pcbnew,(6.0.4-0)*%
%TF.CreationDate,2022-09-03T22:07:04-04:00*%
%TF.ProjectId,QuarkCncQuadDriver,51756172-6b43-46e6-9351-756164447269,rev?*%
%TF.SameCoordinates,Original*%
%TF.FileFunction,Copper,L1,Top*%
%TF.FilePolarity,Positive*%
%FSLAX46Y46*%
G04 Gerber Fmt 4.6, Leading zero omitted, Abs format (unit mm)*
G04 Created by KiCad (PCBNEW (6.0.4-0)) date 2022-09-03 22:07:04*
%MOMM*%
%LPD*%
G01*
G04 APERTURE LIST*
G04 Aperture macros list*
%AMRoundRect*
0 Rectangle with rounded corners*
0 $1 Rounding radius*
0 $2 $3 $4 $5 $6 $7 $8 $9 X,Y pos of 4 corners*
0 Add a 4 corners polygon primitive as box body*
4,1,4,$2,$3,$4,$5,$6,$7,$8,$9,$2,$3,0*
0 Add four circle primitives for the rounded corners*
1,1,$1+$1,$2,$3*
1,1,$1+$1,$4,$5*
1,1,$1+$1,$6,$7*
1,1,$1+$1,$8,$9*
0 Add four rect primitives between the rounded corners*
20,1,$1+$1,$2,$3,$4,$5,0*
20,1,$1+$1,$4,$5,$6,$7,0*
20,1,$1+$1,$6,$7,$8,$9,0*
20,1,$1+$1,$8,$9,$2,$3,0*%
G04 Aperture macros list end*
%TA.AperFunction,SMDPad,CuDef*%
%ADD10R,1.000000X0.750000*%
%TD*%
%TA.AperFunction,SMDPad,CuDef*%
%ADD11RoundRect,0.250000X0.262500X0.450000X-0.262500X0.450000X-0.262500X-0.450000X0.262500X-0.450000X0*%
%TD*%
%TA.AperFunction,SMDPad,CuDef*%
%ADD12RoundRect,0.250000X0.650000X-0.325000X0.650000X0.325000X-0.650000X0.325000X-0.650000X-0.325000X0*%
%TD*%
%TA.AperFunction,SMDPad,CuDef*%
%ADD13RoundRect,0.135000X0.135000X0.185000X-0.135000X0.185000X-0.135000X-0.185000X0.135000X-0.185000X0*%
%TD*%
%TA.AperFunction,SMDPad,CuDef*%
%ADD14R,1.200000X1.400000*%
%TD*%
%TA.AperFunction,SMDPad,CuDef*%
%ADD15RoundRect,0.135000X-0.185000X0.135000X-0.185000X-0.135000X0.185000X-0.135000X0.185000X0.135000X0*%
%TD*%
%TA.AperFunction,SMDPad,CuDef*%
%ADD16RoundRect,0.140000X0.140000X0.170000X-0.140000X0.170000X-0.140000X-0.170000X0.140000X-0.170000X0*%
%TD*%
%TA.AperFunction,SMDPad,CuDef*%
%ADD17RoundRect,0.243750X-0.456250X0.243750X-0.456250X-0.243750X0.456250X-0.243750X0.456250X0.243750X0*%
%TD*%
%TA.AperFunction,SMDPad,CuDef*%
%ADD18RoundRect,0.200000X-0.200000X-0.275000X0.200000X-0.275000X0.200000X0.275000X-0.200000X0.275000X0*%
%TD*%
%TA.AperFunction,SMDPad,CuDef*%
%ADD19RoundRect,0.140000X0.170000X-0.140000X0.170000X0.140000X-0.170000X0.140000X-0.170000X-0.140000X0*%
%TD*%
%TA.AperFunction,SMDPad,CuDef*%
%ADD20RoundRect,0.135000X0.185000X-0.135000X0.185000X0.135000X-0.185000X0.135000X-0.185000X-0.135000X0*%
%TD*%
%TA.AperFunction,SMDPad,CuDef*%
%ADD21RoundRect,0.250000X-0.262500X-0.450000X0.262500X-0.450000X0.262500X0.450000X-0.262500X0.450000X0*%
%TD*%
%TA.AperFunction,SMDPad,CuDef*%
%ADD22RoundRect,0.135000X-0.135000X-0.185000X0.135000X-0.185000X0.135000X0.185000X-0.135000X0.185000X0*%
%TD*%
%TA.AperFunction,SMDPad,CuDef*%
%ADD23RoundRect,0.250000X-0.312500X-0.625000X0.312500X-0.625000X0.312500X0.625000X-0.312500X0.625000X0*%
%TD*%
%TA.AperFunction,SMDPad,CuDef*%
%ADD24RoundRect,0.250000X-0.325000X-0.650000X0.325000X-0.650000X0.325000X0.650000X-0.325000X0.650000X0*%
%TD*%
%TA.AperFunction,ComponentPad*%
%ADD25R,1.700000X1.700000*%
%TD*%
%TA.AperFunction,ComponentPad*%
%ADD26O,1.700000X1.700000*%
%TD*%
%TA.AperFunction,SMDPad,CuDef*%
%ADD27R,1.800000X2.500000*%
%TD*%
%TA.AperFunction,ComponentPad*%
%ADD28RoundRect,0.250000X-1.550000X0.650000X-1.550000X-0.650000X1.550000X-0.650000X1.550000X0.650000X0*%
%TD*%
%TA.AperFunction,ComponentPad*%
%ADD29O,3.600000X1.800000*%
%TD*%
%TA.AperFunction,SMDPad,CuDef*%
%ADD30RoundRect,0.250000X-0.650000X0.325000X-0.650000X-0.325000X0.650000X-0.325000X0.650000X0.325000X0*%
%TD*%
%TA.AperFunction,SMDPad,CuDef*%
%ADD31RoundRect,0.140000X-0.170000X0.140000X-0.170000X-0.140000X0.170000X-0.140000X0.170000X0.140000X0*%
%TD*%
%TA.AperFunction,SMDPad,CuDef*%
%ADD32RoundRect,0.250000X0.475000X-0.250000X0.475000X0.250000X-0.475000X0.250000X-0.475000X-0.250000X0*%
%TD*%
%TA.AperFunction,SMDPad,CuDef*%
%ADD33RoundRect,0.140000X-0.140000X-0.170000X0.140000X-0.170000X0.140000X0.170000X-0.140000X0.170000X0*%
%TD*%
%TA.AperFunction,ComponentPad*%
%ADD34RoundRect,0.250000X-0.650000X-1.550000X0.650000X-1.550000X0.650000X1.550000X-0.650000X1.550000X0*%
%TD*%
%TA.AperFunction,ComponentPad*%
%ADD35O,1.800000X3.600000*%
%TD*%
%TA.AperFunction,SMDPad,CuDef*%
%ADD36RoundRect,0.041300X0.923700X0.253700X-0.923700X0.253700X-0.923700X-0.253700X0.923700X-0.253700X0*%
%TD*%
%TA.AperFunction,ComponentPad*%
%ADD37RoundRect,0.250000X0.650000X1.550000X-0.650000X1.550000X-0.650000X-1.550000X0.650000X-1.550000X0*%
%TD*%
%TA.AperFunction,SMDPad,CuDef*%
%ADD38RoundRect,0.250000X0.625000X-0.312500X0.625000X0.312500X-0.625000X0.312500X-0.625000X-0.312500X0*%
%TD*%
%TA.AperFunction,SMDPad,CuDef*%
%ADD39R,1.450000X0.800000*%
%TD*%
%TA.AperFunction,SMDPad,CuDef*%
%ADD40RoundRect,0.150000X-0.825000X-0.150000X0.825000X-0.150000X0.825000X0.150000X-0.825000X0.150000X0*%
%TD*%
%TA.AperFunction,SMDPad,CuDef*%
%ADD41RoundRect,0.050000X0.050000X-0.387500X0.050000X0.387500X-0.050000X0.387500X-0.050000X-0.387500X0*%
%TD*%
%TA.AperFunction,SMDPad,CuDef*%
%ADD42RoundRect,0.050000X0.387500X-0.050000X0.387500X0.050000X-0.387500X0.050000X-0.387500X-0.050000X0*%
%TD*%
%TA.AperFunction,ComponentPad*%
%ADD43C,0.600000*%
%TD*%
%TA.AperFunction,SMDPad,CuDef*%
%ADD44RoundRect,0.144000X1.456000X-1.456000X1.456000X1.456000X-1.456000X1.456000X-1.456000X-1.456000X0*%
%TD*%
%TA.AperFunction,SMDPad,CuDef*%
%ADD45RoundRect,0.100000X0.637500X0.100000X-0.637500X0.100000X-0.637500X-0.100000X0.637500X-0.100000X0*%
%TD*%
%TA.AperFunction,SMDPad,CuDef*%
%ADD46R,2.850000X4.000000*%
%TD*%
%TA.AperFunction,SMDPad,CuDef*%
%ADD47R,2.200000X1.200000*%
%TD*%
%TA.AperFunction,SMDPad,CuDef*%
%ADD48R,6.400000X5.800000*%
%TD*%
%TA.AperFunction,SMDPad,CuDef*%
%ADD49R,1.270000X0.762000*%
%TD*%
%TA.AperFunction,SMDPad,CuDef*%
%ADD50R,5.800000X6.400000*%
%TD*%
%TA.AperFunction,SMDPad,CuDef*%
%ADD51R,1.200000X2.200000*%
%TD*%
%TA.AperFunction,ComponentPad*%
%ADD52C,3.300000*%
%TD*%
%TA.AperFunction,ComponentPad*%
%ADD53C,3.800000*%
%TD*%
%TA.AperFunction,SMDPad,CuDef*%
%ADD54RoundRect,0.250000X-0.625000X0.312500X-0.625000X-0.312500X0.625000X-0.312500X0.625000X0.312500X0*%
%TD*%
%TA.AperFunction,SMDPad,CuDef*%
%ADD55RoundRect,0.225000X-0.250000X0.225000X-0.250000X-0.225000X0.250000X-0.225000X0.250000X0.225000X0*%
%TD*%
%TA.AperFunction,SMDPad,CuDef*%
%ADD56R,4.100000X4.100000*%
%TD*%
%TA.AperFunction,ComponentPad*%
%ADD57RoundRect,0.250000X0.600000X-0.600000X0.600000X0.600000X-0.600000X0.600000X-0.600000X-0.600000X0*%
%TD*%
%TA.AperFunction,ComponentPad*%
%ADD58C,1.700000*%
%TD*%
%TA.AperFunction,SMDPad,CuDef*%
%ADD59RoundRect,0.200000X-0.275000X0.200000X-0.275000X-0.200000X0.275000X-0.200000X0.275000X0.200000X0*%
%TD*%
%TA.AperFunction,SMDPad,CuDef*%
%ADD60R,2.300000X2.500000*%
%TD*%
%TA.AperFunction,SMDPad,CuDef*%
%ADD61R,0.400000X1.350000*%
%TD*%
%TA.AperFunction,SMDPad,CuDef*%
%ADD62R,1.500000X1.550000*%
%TD*%
%TA.AperFunction,ComponentPad*%
%ADD63O,1.250000X0.950000*%
%TD*%
%TA.AperFunction,ComponentPad*%
%ADD64O,0.890000X1.550000*%
%TD*%
%TA.AperFunction,SMDPad,CuDef*%
%ADD65R,1.200000X1.550000*%
%TD*%
%TA.AperFunction,SMDPad,CuDef*%
%ADD66RoundRect,0.150000X-0.587500X-0.150000X0.587500X-0.150000X0.587500X0.150000X-0.587500X0.150000X0*%
%TD*%
%TA.AperFunction,SMDPad,CuDef*%
%ADD67RoundRect,0.150000X0.150000X-0.650000X0.150000X0.650000X-0.150000X0.650000X-0.150000X-0.650000X0*%
%TD*%
%TA.AperFunction,ComponentPad*%
%ADD68RoundRect,0.250000X1.550000X-0.650000X1.550000X0.650000X-1.550000X0.650000X-1.550000X-0.650000X0*%
%TD*%
%TA.AperFunction,SMDPad,CuDef*%
%ADD69RoundRect,0.250000X-0.250000X-0.475000X0.250000X-0.475000X0.250000X0.475000X-0.250000X0.475000X0*%
%TD*%
%TA.AperFunction,ComponentPad*%
%ADD70R,2.400000X2.400000*%
%TD*%
%TA.AperFunction,ComponentPad*%
%ADD71C,2.400000*%
%TD*%
%TA.AperFunction,SMDPad,CuDef*%
%ADD72R,1.300000X1.700000*%
%TD*%
%TA.AperFunction,SMDPad,CuDef*%
%ADD73RoundRect,0.250000X-0.362500X-1.425000X0.362500X-1.425000X0.362500X1.425000X-0.362500X1.425000X0*%
%TD*%
%TA.AperFunction,SMDPad,CuDef*%
%ADD74RoundRect,0.250000X-0.475000X0.250000X-0.475000X-0.250000X0.475000X-0.250000X0.475000X0.250000X0*%
%TD*%
%TA.AperFunction,ViaPad*%
%ADD75C,0.800000*%
%TD*%
%TA.AperFunction,ViaPad*%
%ADD76C,0.406400*%
%TD*%
%TA.AperFunction,Conductor*%
%ADD77C,0.250000*%
%TD*%
%TA.AperFunction,Conductor*%
%ADD78C,0.127000*%
%TD*%
%TA.AperFunction,Conductor*%
%ADD79C,0.256000*%
%TD*%
%TA.AperFunction,Conductor*%
%ADD80C,1.000000*%
%TD*%
%TA.AperFunction,Conductor*%
%ADD81C,2.000000*%
%TD*%
%TA.AperFunction,Conductor*%
%ADD82C,1.778000*%
%TD*%
%TA.AperFunction,Conductor*%
%ADD83C,0.512000*%
%TD*%
%TA.AperFunction,Conductor*%
%ADD84C,0.088900*%
%TD*%
%TA.AperFunction,Conductor*%
%ADD85C,0.175006*%
%TD*%
G04 APERTURE END LIST*
D10*
%TO.P,SW2,1*%
%TO.N,GND*%
X75669400Y-130170400D03*
X69669400Y-130170400D03*
%TO.P,SW2,2*%
%TO.N,/RP2040 Microcontroller/RUN*%
X69669400Y-126420400D03*
X75669400Y-126420400D03*
%TD*%
%TO.P,SW1,1*%
%TO.N,GND*%
X63655200Y-130195800D03*
X57655200Y-130195800D03*
%TO.P,SW1,2*%
%TO.N,/RP2040 Microcontroller/~{USB_BOOT}*%
X57655200Y-126445800D03*
X63655200Y-126445800D03*
%TD*%
D11*
%TO.P,R61,1*%
%TO.N,/Input_Protection/reverse_polarity_protection*%
X120800500Y-70027800D03*
%TO.P,R61,2*%
%TO.N,GND*%
X118975500Y-70027800D03*
%TD*%
D12*
%TO.P,C50,1*%
%TO.N,+12V*%
X76581000Y-90883000D03*
%TO.P,C50,2*%
%TO.N,GND*%
X76581000Y-87933000D03*
%TD*%
D13*
%TO.P,R42,1*%
%TO.N,/RP2040 Microcontroller/RUN*%
X72519000Y-52832000D03*
%TO.P,R42,2*%
%TO.N,+3V3*%
X71499000Y-52832000D03*
%TD*%
D14*
%TO.P,Y1,1,1*%
%TO.N,Net-(C20-Pad1)*%
X73018200Y-66510800D03*
%TO.P,Y1,2,2*%
%TO.N,GND*%
X73018200Y-68710800D03*
%TO.P,Y1,3,3*%
%TO.N,/RP2040 Microcontroller/XIN*%
X74718200Y-68710800D03*
%TO.P,Y1,4,4*%
%TO.N,GND*%
X74718200Y-66510800D03*
%TD*%
D12*
%TO.P,C56,1*%
%TO.N,+12V*%
X78994000Y-90883000D03*
%TO.P,C56,2*%
%TO.N,GND*%
X78994000Y-87933000D03*
%TD*%
D15*
%TO.P,R36,1*%
%TO.N,Net-(R36-Pad1)*%
X114816000Y-44448000D03*
%TO.P,R36,2*%
%TO.N,/Stepper Isolation 1/alarm_ext*%
X114816000Y-45468000D03*
%TD*%
D16*
%TO.P,C23,1*%
%TO.N,/RP2040 Microcontroller/1V1*%
X61671200Y-57559300D03*
%TO.P,C23,2*%
%TO.N,GND*%
X60711200Y-57559300D03*
%TD*%
D11*
%TO.P,R51,1*%
%TO.N,Net-(R51-Pad1)*%
X88034500Y-94742000D03*
%TO.P,R51,2*%
%TO.N,GND*%
X86209500Y-94742000D03*
%TD*%
D17*
%TO.P,D1,1,K*%
%TO.N,Net-(D1-Pad1)*%
X100711000Y-51386500D03*
%TO.P,D1,2,A*%
%TO.N,+3V3*%
X100711000Y-53261500D03*
%TD*%
D18*
%TO.P,R56,1*%
%TO.N,Net-(C47-Pad1)*%
X82741000Y-90551000D03*
%TO.P,R56,2*%
%TO.N,GND*%
X84391000Y-90551000D03*
%TD*%
D19*
%TO.P,C38,1*%
%TO.N,Net-(C37-Pad1)*%
X87614000Y-67250000D03*
%TO.P,C38,2*%
%TO.N,Net-(C38-Pad2)*%
X87614000Y-66290000D03*
%TD*%
D20*
%TO.P,R27,1*%
%TO.N,/STEPPER_A_ENn*%
X105156000Y-110365000D03*
%TO.P,R27,2*%
%TO.N,Net-(R27-Pad2)*%
X105156000Y-109345000D03*
%TD*%
D18*
%TO.P,R44,1*%
%TO.N,/RP2040 Microcontroller/USB_D-*%
X57889200Y-57813300D03*
%TO.P,R44,2*%
%TO.N,Net-(R44-Pad2)*%
X59539200Y-57813300D03*
%TD*%
D20*
%TO.P,R1,1*%
%TO.N,+3V3*%
X50900000Y-36933600D03*
%TO.P,R1,2*%
%TO.N,/RP2040 Microcontroller/GPIO0*%
X50900000Y-35913600D03*
%TD*%
D19*
%TO.P,C17,1*%
%TO.N,+3V3*%
X104648000Y-57757000D03*
%TO.P,C17,2*%
%TO.N,GND*%
X104648000Y-56797000D03*
%TD*%
D16*
%TO.P,C30,1*%
%TO.N,+3V3*%
X61615200Y-59337300D03*
%TO.P,C30,2*%
%TO.N,GND*%
X60655200Y-59337300D03*
%TD*%
D13*
%TO.P,R25,1*%
%TO.N,/Stepper Isolation 4/step_ext*%
X115064000Y-116459000D03*
%TO.P,R25,2*%
%TO.N,Net-(R25-Pad2)*%
X114044000Y-116459000D03*
%TD*%
D21*
%TO.P,R53,1*%
%TO.N,Net-(C47-Pad2)*%
X86209500Y-92583000D03*
%TO.P,R53,2*%
%TO.N,Net-(R53-Pad2)*%
X88034500Y-92583000D03*
%TD*%
D19*
%TO.P,C4,1*%
%TO.N,+3V3*%
X105664000Y-72997000D03*
%TO.P,C4,2*%
%TO.N,GND*%
X105664000Y-72037000D03*
%TD*%
D22*
%TO.P,R49,1*%
%TO.N,+3V3*%
X85326000Y-71088000D03*
%TO.P,R49,2*%
%TO.N,Net-(R49-Pad2)*%
X86346000Y-71088000D03*
%TD*%
D19*
%TO.P,C12,1*%
%TO.N,+3V3*%
X105664000Y-118082000D03*
%TO.P,C12,2*%
%TO.N,GND*%
X105664000Y-117122000D03*
%TD*%
D23*
%TO.P,R41,1*%
%TO.N,/RP2040 Microcontroller/XOUT*%
X72832500Y-62661800D03*
%TO.P,R41,2*%
%TO.N,Net-(C20-Pad1)*%
X75757500Y-62661800D03*
%TD*%
D16*
%TO.P,C25,1*%
%TO.N,+3V3*%
X61643200Y-60353300D03*
%TO.P,C25,2*%
%TO.N,GND*%
X60683200Y-60353300D03*
%TD*%
D24*
%TO.P,C41,1*%
%TO.N,GND*%
X86647000Y-54991000D03*
%TO.P,C41,2*%
%TO.N,+3V3*%
X89597000Y-54991000D03*
%TD*%
D15*
%TO.P,R8,1*%
%TO.N,Net-(R8-Pad1)*%
X105164000Y-59688000D03*
%TO.P,R8,2*%
%TO.N,/STEPPER_Y_DIAG0*%
X105164000Y-60708000D03*
%TD*%
D25*
%TO.P,U29,1,DIAG2*%
%TO.N,/STEPPER_A_DIAG0*%
X43180000Y-123190000D03*
D26*
%TO.P,U29,2,DIAG1*%
%TO.N,/STEPPER DRIVER A/STEPPER_DIAG1*%
X45720000Y-123190000D03*
%TO.P,U29,3,B1*%
%TO.N,/STEPPER DRIVER A/STEPPER_COIL_B1*%
X48260000Y-123190000D03*
%TO.P,U29,4,B1*%
X50800000Y-123190000D03*
%TO.P,U29,5,B1*%
X53340000Y-123190000D03*
%TO.P,U29,6,B2*%
%TO.N,/STEPPER DRIVER A/STEPPER_COIL_B2*%
X55880000Y-123190000D03*
%TO.P,U29,7,B2*%
X58420000Y-123190000D03*
%TO.P,U29,8,B2*%
X60960000Y-123190000D03*
%TO.P,U29,9,A1*%
%TO.N,/STEPPER DRIVER A/STEPPER_COIL_A1*%
X63500000Y-123190000D03*
%TO.P,U29,10,A1*%
X66040000Y-123190000D03*
%TO.P,U29,11,A1*%
X68580000Y-123190000D03*
%TO.P,U29,12,A2*%
%TO.N,/STEPPER DRIVER A/STEPPER_COIL_A2*%
X71120000Y-123190000D03*
%TO.P,U29,13,A2*%
X73660000Y-123190000D03*
%TO.P,U29,14,A2*%
X76200000Y-123190000D03*
%TD*%
D27*
%TO.P,D2,1,K*%
%TO.N,/3.3V 1A Switching regulator/regulator_ph*%
X88630000Y-64071000D03*
%TO.P,D2,2,A*%
%TO.N,GND*%
X88630000Y-60071000D03*
%TD*%
D19*
%TO.P,C15,1*%
%TO.N,+3V3*%
X105156000Y-52104000D03*
%TO.P,C15,2*%
%TO.N,GND*%
X105156000Y-51144000D03*
%TD*%
D13*
%TO.P,R10,1*%
%TO.N,/Stepper Isolation 2/dir_ext*%
X115064000Y-70104000D03*
%TO.P,R10,2*%
%TO.N,Net-(R10-Pad2)*%
X114044000Y-70104000D03*
%TD*%
D15*
%TO.P,R32,1*%
%TO.N,Net-(R32-Pad1)*%
X105164000Y-44448000D03*
%TO.P,R32,2*%
%TO.N,/STEPPER_X_DIAG0*%
X105164000Y-45468000D03*
%TD*%
%TO.P,R28,1*%
%TO.N,Net-(R28-Pad1)*%
X114816000Y-104773000D03*
%TO.P,R28,2*%
%TO.N,/Stepper Isolation 4/alarm_ext*%
X114816000Y-105793000D03*
%TD*%
D28*
%TO.P,J11,1,Pin_1*%
%TO.N,/STEPPER DRIVER Y/STEPPER_COIL_A2*%
X42302500Y-62285000D03*
D29*
%TO.P,J11,2,Pin_2*%
%TO.N,/STEPPER DRIVER Y/STEPPER_COIL_A1*%
X42302500Y-66095000D03*
%TO.P,J11,3,Pin_3*%
%TO.N,/STEPPER DRIVER Y/STEPPER_COIL_B2*%
X42302500Y-69905000D03*
%TO.P,J11,4,Pin_4*%
%TO.N,/STEPPER DRIVER Y/STEPPER_COIL_B1*%
X42302500Y-73715000D03*
%TD*%
D15*
%TO.P,R14,1*%
%TO.N,/STEPPER_Y_DIR*%
X105664000Y-68959000D03*
%TO.P,R14,2*%
%TO.N,+3V3*%
X105664000Y-69979000D03*
%TD*%
D13*
%TO.P,R26,1*%
%TO.N,/Stepper Isolation 4/dir_ext*%
X115064000Y-115189000D03*
%TO.P,R26,2*%
%TO.N,Net-(R26-Pad2)*%
X114044000Y-115189000D03*
%TD*%
D30*
%TO.P,C42,1*%
%TO.N,VCC*%
X91059000Y-99998000D03*
%TO.P,C42,2*%
%TO.N,GND*%
X91059000Y-102948000D03*
%TD*%
D20*
%TO.P,R3,1*%
%TO.N,+3V3*%
X46946000Y-34749200D03*
%TO.P,R3,2*%
%TO.N,/RP2040 Microcontroller/GPIO2*%
X46946000Y-33729200D03*
%TD*%
D31*
%TO.P,C27,1*%
%TO.N,+3V3*%
X67791300Y-65072100D03*
%TO.P,C27,2*%
%TO.N,GND*%
X67791300Y-66032100D03*
%TD*%
%TO.P,C26,1*%
%TO.N,+3V3*%
X63858200Y-65080300D03*
%TO.P,C26,2*%
%TO.N,GND*%
X63858200Y-66040300D03*
%TD*%
D24*
%TO.P,C34,1*%
%TO.N,+12V*%
X79154000Y-59404000D03*
%TO.P,C34,2*%
%TO.N,GND*%
X82104000Y-59404000D03*
%TD*%
D31*
%TO.P,R40,1*%
%TO.N,+3V3*%
X63756200Y-69237281D03*
%TO.P,R40,2*%
%TO.N,/RP2040 Microcontroller/QSPI_SS*%
X63756200Y-70197281D03*
%TD*%
D32*
%TO.P,C44,1*%
%TO.N,Net-(C44-Pad1)*%
X90678000Y-96708000D03*
%TO.P,C44,2*%
%TO.N,GND*%
X90678000Y-94808000D03*
%TD*%
D19*
%TO.P,C9,1*%
%TO.N,+3V3*%
X104648000Y-102969000D03*
%TO.P,C9,2*%
%TO.N,GND*%
X104648000Y-102009000D03*
%TD*%
D33*
%TO.P,C20,1*%
%TO.N,Net-(C20-Pad1)*%
X73053000Y-64262000D03*
%TO.P,C20,2*%
%TO.N,GND*%
X74013000Y-64262000D03*
%TD*%
D12*
%TO.P,C57,1*%
%TO.N,+12V*%
X62103000Y-90883000D03*
%TO.P,C57,2*%
%TO.N,GND*%
X62103000Y-87933000D03*
%TD*%
D24*
%TO.P,C40,1*%
%TO.N,GND*%
X86647000Y-57372000D03*
%TO.P,C40,2*%
%TO.N,+3V3*%
X89597000Y-57372000D03*
%TD*%
D34*
%TO.P,J10,1,Pin_1*%
%TO.N,+12V*%
X103759000Y-127508000D03*
D35*
%TO.P,J10,2,Pin_2*%
%TO.N,GND*%
X107569000Y-127508000D03*
%TD*%
D31*
%TO.P,C14,1*%
%TO.N,+3V3*%
X105164000Y-106962000D03*
%TO.P,C14,2*%
%TO.N,GND*%
X105164000Y-107922000D03*
%TD*%
D36*
%TO.P,U5,1*%
%TO.N,VCC_EXT*%
X113030000Y-62230000D03*
%TO.P,U5,2*%
%TO.N,Net-(R12-Pad1)*%
X113030000Y-59690000D03*
%TO.P,U5,3*%
%TO.N,Net-(R8-Pad1)*%
X106950000Y-59690000D03*
%TO.P,U5,4*%
%TO.N,+3V3*%
X106950000Y-62230000D03*
%TD*%
D37*
%TO.P,J4,1,Pin_1*%
%TO.N,/RS485/RS485_A*%
X89708600Y-35139700D03*
D35*
%TO.P,J4,2,Pin_2*%
%TO.N,/RS485/RS485_B*%
X85898600Y-35139700D03*
%TD*%
D36*
%TO.P,U13,1*%
%TO.N,VCC_EXT*%
X113022000Y-112014000D03*
%TO.P,U13,2*%
%TO.N,/Stepper Isolation 4/ena_ext_opto*%
X113022000Y-109474000D03*
%TO.P,U13,3*%
%TO.N,Net-(R27-Pad2)*%
X106942000Y-109474000D03*
%TO.P,U13,4*%
%TO.N,+3V3*%
X106942000Y-112014000D03*
%TD*%
D19*
%TO.P,C16,1*%
%TO.N,+3V3*%
X105664000Y-57757000D03*
%TO.P,C16,2*%
%TO.N,GND*%
X105664000Y-56797000D03*
%TD*%
%TO.P,C5,1*%
%TO.N,+3V3*%
X104648000Y-72997000D03*
%TO.P,C5,2*%
%TO.N,GND*%
X104648000Y-72037000D03*
%TD*%
D38*
%TO.P,R59,1*%
%TO.N,/RS485/RS485_A*%
X84582000Y-57596500D03*
%TO.P,R59,2*%
%TO.N,Net-(J14-Pad1)*%
X84582000Y-54671500D03*
%TD*%
D39*
%TO.P,U15,1,A1*%
%TO.N,VCC_EXT*%
X112480000Y-117856000D03*
%TO.P,U15,2,C1*%
%TO.N,Net-(R25-Pad2)*%
X112480000Y-116586000D03*
%TO.P,U15,3,C2*%
%TO.N,Net-(R26-Pad2)*%
X112480000Y-115316000D03*
%TO.P,U15,4,A2*%
%TO.N,VCC_EXT*%
X112480000Y-114046000D03*
%TO.P,U15,5,GND*%
%TO.N,GND*%
X107230000Y-114046000D03*
%TO.P,U15,6,VO2*%
%TO.N,/STEPPER_A_DIR*%
X107230000Y-115316000D03*
%TO.P,U15,7,VO1*%
%TO.N,/STEPPER_A_STEP*%
X107230000Y-116586000D03*
%TO.P,U15,8,VCC*%
%TO.N,+3V3*%
X107230000Y-117856000D03*
%TD*%
D13*
%TO.P,R33,1*%
%TO.N,/Stepper Isolation 1/step_ext*%
X115064000Y-56134000D03*
%TO.P,R33,2*%
%TO.N,Net-(R33-Pad2)*%
X114044000Y-56134000D03*
%TD*%
D31*
%TO.P,C37,1*%
%TO.N,Net-(C37-Pad1)*%
X87614000Y-68195000D03*
%TO.P,C37,2*%
%TO.N,GND*%
X87614000Y-69155000D03*
%TD*%
D20*
%TO.P,R35,1*%
%TO.N,/STEPPER_X_ENn*%
X105156000Y-50040000D03*
%TO.P,R35,2*%
%TO.N,Net-(R35-Pad2)*%
X105156000Y-49020000D03*
%TD*%
D40*
%TO.P,U24,1,BOOT*%
%TO.N,Net-(C39-Pad2)*%
X80567000Y-64865000D03*
%TO.P,U24,2,VIN*%
%TO.N,+12V*%
X80567000Y-66135000D03*
%TO.P,U24,3,EN*%
%TO.N,Net-(R46-Pad2)*%
X80567000Y-67405000D03*
%TO.P,U24,4,SS*%
%TO.N,Net-(C36-Pad1)*%
X80567000Y-68675000D03*
%TO.P,U24,5,VSENS*%
%TO.N,Net-(R49-Pad2)*%
X85517000Y-68675000D03*
%TO.P,U24,6,COMP*%
%TO.N,Net-(C37-Pad1)*%
X85517000Y-67405000D03*
%TO.P,U24,7,GND*%
%TO.N,GND*%
X85517000Y-66135000D03*
%TO.P,U24,8,PH*%
%TO.N,/3.3V 1A Switching regulator/regulator_ph*%
X85517000Y-64865000D03*
%TD*%
D19*
%TO.P,C39,1*%
%TO.N,/3.3V 1A Switching regulator/regulator_ph*%
X86233000Y-63571000D03*
%TO.P,C39,2*%
%TO.N,Net-(C39-Pad2)*%
X86233000Y-62611000D03*
%TD*%
%TO.P,C13,1*%
%TO.N,+3V3*%
X104648000Y-118082000D03*
%TO.P,C13,2*%
%TO.N,GND*%
X104648000Y-117122000D03*
%TD*%
D25*
%TO.P,U9,1,DIAG2*%
%TO.N,/STEPPER_X_DIAG0*%
X76095000Y-39345000D03*
D26*
%TO.P,U9,2,DIAG1*%
%TO.N,/STEPPER DRIVER X/STEPPER_DIAG1*%
X73555000Y-39345000D03*
%TO.P,U9,3,B1*%
%TO.N,/STEPPER DRIVER X/STEPPER_COIL_B1*%
X71015000Y-39345000D03*
%TO.P,U9,4,B1*%
X68475000Y-39345000D03*
%TO.P,U9,5,B1*%
X65935000Y-39345000D03*
%TO.P,U9,6,B2*%
%TO.N,/STEPPER DRIVER X/STEPPER_COIL_B2*%
X63395000Y-39345000D03*
%TO.P,U9,7,B2*%
X60855000Y-39345000D03*
%TO.P,U9,8,B2*%
X58315000Y-39345000D03*
%TO.P,U9,9,A1*%
%TO.N,/STEPPER DRIVER X/STEPPER_COIL_A1*%
X55775000Y-39345000D03*
%TO.P,U9,10,A1*%
X53235000Y-39345000D03*
%TO.P,U9,11,A1*%
X50695000Y-39345000D03*
%TO.P,U9,12,A2*%
%TO.N,/STEPPER DRIVER X/STEPPER_COIL_A2*%
X48155000Y-39345000D03*
%TO.P,U9,13,A2*%
X45615000Y-39345000D03*
%TO.P,U9,14,A2*%
X43075000Y-39345000D03*
%TD*%
D36*
%TO.P,U11,1*%
%TO.N,VCC_EXT*%
X113030000Y-92202000D03*
%TO.P,U11,2*%
%TO.N,Net-(R20-Pad1)*%
X113030000Y-89662000D03*
%TO.P,U11,3*%
%TO.N,Net-(R16-Pad1)*%
X106950000Y-89662000D03*
%TO.P,U11,4*%
%TO.N,+3V3*%
X106950000Y-92202000D03*
%TD*%
%TO.P,U10,1*%
%TO.N,VCC_EXT*%
X113022000Y-96901000D03*
%TO.P,U10,2*%
%TO.N,/Stepper Isolation 3/ena_ext_opto*%
X113022000Y-94361000D03*
%TO.P,U10,3*%
%TO.N,Net-(R19-Pad2)*%
X106942000Y-94361000D03*
%TO.P,U10,4*%
%TO.N,+3V3*%
X106942000Y-96901000D03*
%TD*%
D13*
%TO.P,R18,1*%
%TO.N,/Stepper Isolation 3/dir_ext*%
X115064000Y-100076000D03*
%TO.P,R18,2*%
%TO.N,Net-(R18-Pad2)*%
X114044000Y-100076000D03*
%TD*%
D16*
%TO.P,C28,1*%
%TO.N,+3V3*%
X61671200Y-55527300D03*
%TO.P,C28,2*%
%TO.N,GND*%
X60711200Y-55527300D03*
%TD*%
D12*
%TO.P,C55,1*%
%TO.N,+12V*%
X71755000Y-90883000D03*
%TO.P,C55,2*%
%TO.N,GND*%
X71755000Y-87933000D03*
%TD*%
D41*
%TO.P,U23,1,IOVDD*%
%TO.N,+3V3*%
X64082200Y-63874800D03*
%TO.P,U23,2,GPIO0*%
%TO.N,/RP2040 Microcontroller/GPIO0*%
X64482200Y-63874800D03*
%TO.P,U23,3,GPIO1*%
%TO.N,/RP2040 Microcontroller/GPIO1*%
X64882200Y-63874800D03*
%TO.P,U23,4,GPIO2*%
%TO.N,/RP2040 Microcontroller/GPIO2*%
X65282200Y-63874800D03*
%TO.P,U23,5,GPIO3*%
%TO.N,/RP2040 Microcontroller/GPIO3*%
X65682200Y-63874800D03*
%TO.P,U23,6,GPIO4*%
%TO.N,/RP2040 Microcontroller/GPIO4*%
X66082200Y-63874800D03*
%TO.P,U23,7,GPIO5*%
%TO.N,/RP2040 Microcontroller/GPIO5*%
X66482200Y-63874800D03*
%TO.P,U23,8,GPIO6*%
%TO.N,/RP2040 Microcontroller/GPIO6*%
X66882200Y-63874800D03*
%TO.P,U23,9,GPIO7*%
%TO.N,/RP2040 Microcontroller/GPIO7*%
X67282200Y-63874800D03*
%TO.P,U23,10,IOVDD*%
%TO.N,+3V3*%
X67682200Y-63874800D03*
%TO.P,U23,11,GPIO8*%
%TO.N,/RP2040 Microcontroller/GPIO8*%
X68082200Y-63874800D03*
%TO.P,U23,12,GPIO9*%
%TO.N,/STEPPER_A_CSn*%
X68482200Y-63874800D03*
%TO.P,U23,13,GPIO10*%
%TO.N,/RP2040 Microcontroller/GPIO10*%
X68882200Y-63874800D03*
%TO.P,U23,14,GPIO11*%
%TO.N,/RP2040 Microcontroller/GPIO11*%
X69282200Y-63874800D03*
D42*
%TO.P,U23,15,GPIO12*%
%TO.N,/STEPPER_MISO*%
X70119700Y-63037300D03*
%TO.P,U23,16,GPIO13*%
%TO.N,/STEPPER_Z_CSn*%
X70119700Y-62637300D03*
%TO.P,U23,17,GPIO14*%
%TO.N,/STEPPER_X_CSn*%
X70119700Y-62237300D03*
%TO.P,U23,18,GPIO15*%
%TO.N,/STEPPER_Y_CSn*%
X70119700Y-61837300D03*
%TO.P,U23,19,TESTEN*%
%TO.N,GND*%
X70119700Y-61437300D03*
%TO.P,U23,20,XIN*%
%TO.N,/RP2040 Microcontroller/XIN*%
X70119700Y-61037300D03*
%TO.P,U23,21,XOUT*%
%TO.N,/RP2040 Microcontroller/XOUT*%
X70119700Y-60637300D03*
%TO.P,U23,22,IOVDD*%
%TO.N,+3V3*%
X70119700Y-60237300D03*
%TO.P,U23,23,DVDD*%
%TO.N,/RP2040 Microcontroller/1V1*%
X70119700Y-59837300D03*
%TO.P,U23,24,SWCLK*%
%TO.N,/RP2040 Microcontroller/SWCLK*%
X70119700Y-59437300D03*
%TO.P,U23,25,SWD*%
%TO.N,/RP2040 Microcontroller/SWD*%
X70119700Y-59037300D03*
%TO.P,U23,26,RUN*%
%TO.N,/RP2040 Microcontroller/RUN*%
X70119700Y-58637300D03*
%TO.P,U23,27,GPIO16*%
%TO.N,/RP2040 Microcontroller/GPIO16*%
X70119700Y-58237300D03*
%TO.P,U23,28,GPIO17*%
%TO.N,/RP2040 Microcontroller/GPIO17*%
X70119700Y-57837300D03*
D41*
%TO.P,U23,29,GPIO18*%
%TO.N,/RP2040 Microcontroller/GPIO18*%
X69282200Y-56999800D03*
%TO.P,U23,30,GPIO19*%
%TO.N,/RP2040 Microcontroller/GPIO19*%
X68882200Y-56999800D03*
%TO.P,U23,31,GPIO20*%
%TO.N,/RP2040 Microcontroller/GPIO20*%
X68482200Y-56999800D03*
%TO.P,U23,32,GPIO21*%
%TO.N,/RP2040 Microcontroller/GPIO21*%
X68082200Y-56999800D03*
%TO.P,U23,33,IOVDD*%
%TO.N,+3V3*%
X67682200Y-56999800D03*
%TO.P,U23,34,GPIO22*%
%TO.N,/RP2040 Microcontroller/GPIO22*%
X67282200Y-56999800D03*
%TO.P,U23,35,GPIO23*%
%TO.N,/RP2040 Microcontroller/GPIO23*%
X66882200Y-56999800D03*
%TO.P,U23,36,GPIO24*%
%TO.N,/RP2040 Microcontroller/GPIO24*%
X66482200Y-56999800D03*
%TO.P,U23,37,GPIO25*%
%TO.N,/RP2040 Microcontroller/GPIO25*%
X66082200Y-56999800D03*
%TO.P,U23,38,GPIO26_ADC0*%
%TO.N,/RP2040 Microcontroller/GPIO26_ADC0*%
X65682200Y-56999800D03*
%TO.P,U23,39,GPIO27_ADC1*%
%TO.N,/RP2040 Microcontroller/GPIO27_ADC1*%
X65282200Y-56999800D03*
%TO.P,U23,40,GPIO28_ADC2*%
%TO.N,/RP2040 Microcontroller/GPIO28_ADC2*%
X64882200Y-56999800D03*
%TO.P,U23,41,GPIO29_ADC3*%
%TO.N,/RP2040 Microcontroller/GPIO29_ADC3*%
X64482200Y-56999800D03*
%TO.P,U23,42,IOVDD*%
%TO.N,+3V3*%
X64082200Y-56999800D03*
D42*
%TO.P,U23,43,ADC_AVDD*%
X63244700Y-57837300D03*
%TO.P,U23,44,VREG_IN*%
X63244700Y-58237300D03*
%TO.P,U23,45,VREG_VOUT*%
%TO.N,/RP2040 Microcontroller/1V1*%
X63244700Y-58637300D03*
%TO.P,U23,46,USB_DM*%
%TO.N,Net-(R44-Pad2)*%
X63244700Y-59037300D03*
%TO.P,U23,47,USB_DP*%
%TO.N,Net-(R43-Pad2)*%
X63244700Y-59437300D03*
%TO.P,U23,48,USB_VDD*%
%TO.N,+3V3*%
X63244700Y-59837300D03*
%TO.P,U23,49,IOVDD*%
X63244700Y-60237300D03*
%TO.P,U23,50,DVDD*%
%TO.N,/RP2040 Microcontroller/1V1*%
X63244700Y-60637300D03*
%TO.P,U23,51,QSPI_SD3*%
%TO.N,/RP2040 Microcontroller/QSPI_SD3*%
X63244700Y-61037300D03*
%TO.P,U23,52,QSPI_SCLK*%
%TO.N,/RP2040 Microcontroller/QSPI_SCLK*%
X63244700Y-61437300D03*
%TO.P,U23,53,QSPI_SD0*%
%TO.N,/RP2040 Microcontroller/QSPI_SD0*%
X63244700Y-61837300D03*
%TO.P,U23,54,QSPI_SD2*%
%TO.N,/RP2040 Microcontroller/QSPI_SD2*%
X63244700Y-62237300D03*
%TO.P,U23,55,QSPI_SD1*%
%TO.N,/RP2040 Microcontroller/QSPI_SD1*%
X63244700Y-62637300D03*
%TO.P,U23,56,QSPI_SS*%
%TO.N,/RP2040 Microcontroller/QSPI_SS*%
X63244700Y-63037300D03*
D43*
%TO.P,U23,57,GND*%
%TO.N,GND*%
X65407200Y-61712300D03*
X67957200Y-59162300D03*
X66682200Y-60437300D03*
X66682200Y-61712300D03*
X65407200Y-59162300D03*
X65407200Y-60437300D03*
X67957200Y-61712300D03*
X67957200Y-60437300D03*
X66682200Y-59162300D03*
D44*
X66682200Y-60437300D03*
%TD*%
D12*
%TO.P,C51,1*%
%TO.N,+12V*%
X74168000Y-90883000D03*
%TO.P,C51,2*%
%TO.N,GND*%
X74168000Y-87933000D03*
%TD*%
D45*
%TO.P,U25,1,VCC*%
%TO.N,Net-(C46-Pad1)*%
X88587500Y-102239000D03*
%TO.P,U25,2,SD*%
%TO.N,unconnected-(U25-Pad2)*%
X88587500Y-101589000D03*
%TO.P,U25,3,VIN*%
%TO.N,VCC*%
X88587500Y-100939000D03*
%TO.P,U25,4,VIN*%
X88587500Y-100289000D03*
%TO.P,U25,5,SYNC*%
%TO.N,unconnected-(U25-Pad5)*%
X88587500Y-99639000D03*
%TO.P,U25,6,COMP*%
%TO.N,Net-(R53-Pad2)*%
X88587500Y-98989000D03*
%TO.P,U25,7,FB*%
%TO.N,Net-(C47-Pad1)*%
X88587500Y-98339000D03*
%TO.P,U25,8,RT*%
%TO.N,Net-(R51-Pad1)*%
X88587500Y-97689000D03*
%TO.P,U25,9,RAMP*%
%TO.N,Net-(C44-Pad1)*%
X88587500Y-97039000D03*
%TO.P,U25,10,AGND*%
%TO.N,GND*%
X88587500Y-96389000D03*
%TO.P,U25,11,SS*%
%TO.N,Net-(C45-Pad1)*%
X82862500Y-96389000D03*
%TO.P,U25,12,OUT*%
%TO.N,+12V*%
X82862500Y-97039000D03*
%TO.P,U25,13,PGND*%
%TO.N,GND*%
X82862500Y-97689000D03*
%TO.P,U25,14,PGND*%
X82862500Y-98339000D03*
%TO.P,U25,15,IS*%
%TO.N,/12V 3A Switching Regulator/lm5576_is*%
X82862500Y-98989000D03*
%TO.P,U25,16,IS*%
X82862500Y-99639000D03*
%TO.P,U25,17,SW*%
%TO.N,/12V 3A Switching Regulator/lm5576_sw*%
X82862500Y-100289000D03*
%TO.P,U25,18,SW*%
X82862500Y-100939000D03*
%TO.P,U25,19,PRE*%
X82862500Y-101589000D03*
%TO.P,U25,20,BST*%
%TO.N,/12V 3A Switching Regulator/lm5576_bst*%
X82862500Y-102239000D03*
D46*
%TO.P,U25,21,EP*%
%TO.N,GND*%
X85725000Y-99314000D03*
%TD*%
D36*
%TO.P,U16,1*%
%TO.N,VCC_EXT*%
X113022000Y-51689000D03*
%TO.P,U16,2*%
%TO.N,/Stepper Isolation 1/ena_ext_opto*%
X113022000Y-49149000D03*
%TO.P,U16,3*%
%TO.N,Net-(R35-Pad2)*%
X106942000Y-49149000D03*
%TO.P,U16,4*%
%TO.N,+3V3*%
X106942000Y-51689000D03*
%TD*%
D31*
%TO.P,C10,1*%
%TO.N,+3V3*%
X105164000Y-91849000D03*
%TO.P,C10,2*%
%TO.N,GND*%
X105164000Y-92809000D03*
%TD*%
D24*
%TO.P,C33,1*%
%TO.N,+12V*%
X79154000Y-61817000D03*
%TO.P,C33,2*%
%TO.N,GND*%
X82104000Y-61817000D03*
%TD*%
D15*
%TO.P,R30,1*%
%TO.N,/STEPPER_A_DIR*%
X105664000Y-114044000D03*
%TO.P,R30,2*%
%TO.N,+3V3*%
X105664000Y-115064000D03*
%TD*%
D16*
%TO.P,C19,1*%
%TO.N,/RP2040 Microcontroller/XIN*%
X75738200Y-70993000D03*
%TO.P,C19,2*%
%TO.N,GND*%
X74778200Y-70993000D03*
%TD*%
D22*
%TO.P,R57,1*%
%TO.N,GND*%
X69390800Y-54102000D03*
%TO.P,R57,2*%
%TO.N,/RP2040 Microcontroller/GPIO18*%
X70410800Y-54102000D03*
%TD*%
D33*
%TO.P,C24,1*%
%TO.N,/RP2040 Microcontroller/1V1*%
X72545000Y-60096400D03*
%TO.P,C24,2*%
%TO.N,GND*%
X73505000Y-60096400D03*
%TD*%
D38*
%TO.P,R39,1*%
%TO.N,/RP2040 Microcontroller/QSPI_SS*%
X55651400Y-72303100D03*
%TO.P,R39,2*%
%TO.N,/RP2040 Microcontroller/~{USB_BOOT}*%
X55651400Y-69378100D03*
%TD*%
D40*
%TO.P,U26,1,R*%
%TO.N,/RP2040 Microcontroller/GPIO17*%
X72074000Y-54483000D03*
%TO.P,U26,2,~{RE}*%
%TO.N,/RP2040 Microcontroller/GPIO18*%
X72074000Y-55753000D03*
%TO.P,U26,3,DE*%
X72074000Y-57023000D03*
%TO.P,U26,4,D*%
%TO.N,/RP2040 Microcontroller/GPIO16*%
X72074000Y-58293000D03*
%TO.P,U26,5,GND*%
%TO.N,GND*%
X77024000Y-58293000D03*
%TO.P,U26,6,A*%
%TO.N,/RS485/RS485_A*%
X77024000Y-57023000D03*
%TO.P,U26,7,B*%
%TO.N,/RS485/RS485_B*%
X77024000Y-55753000D03*
%TO.P,U26,8,VCC*%
%TO.N,+3V3*%
X77024000Y-54483000D03*
%TD*%
D20*
%TO.P,R4,1*%
%TO.N,/STEPPER_SCK*%
X69011800Y-67947000D03*
%TO.P,R4,2*%
%TO.N,/RP2040 Microcontroller/GPIO10*%
X69011800Y-66927000D03*
%TD*%
D47*
%TO.P,Q1,1,G*%
%TO.N,/Input_Protection/reverse_polarity_protection*%
X120310800Y-72243600D03*
D48*
%TO.P,Q1,2,D*%
%TO.N,/Input_Protection/vcc_post_fuse*%
X126610800Y-74523600D03*
D47*
%TO.P,Q1,3,D*%
%TO.N,VCC*%
X120310800Y-76803600D03*
%TD*%
D49*
%TO.P,SW3,1*%
%TO.N,/RP2040 Microcontroller/GPIO3*%
X53090000Y-32595000D03*
%TO.P,SW3,2*%
%TO.N,/RP2040 Microcontroller/GPIO2*%
X53090000Y-33865000D03*
%TO.P,SW3,3*%
%TO.N,/RP2040 Microcontroller/GPIO1*%
X53090000Y-35135000D03*
%TO.P,SW3,4*%
%TO.N,/RP2040 Microcontroller/GPIO0*%
X53090000Y-36405000D03*
%TO.P,SW3,5*%
%TO.N,GND*%
X60710000Y-36405000D03*
%TO.P,SW3,6*%
X60710000Y-35135000D03*
%TO.P,SW3,7*%
X60710000Y-33865000D03*
%TO.P,SW3,8*%
X60710000Y-32595000D03*
%TD*%
D50*
%TO.P,D4,1,K*%
%TO.N,/12V 3A Switching Regulator/lm5576_sw*%
X74041000Y-103319000D03*
D51*
%TO.P,D4,2,A*%
%TO.N,/12V 3A Switching Regulator/lm5576_is*%
X71761000Y-97019000D03*
X76321000Y-97019000D03*
%TD*%
D39*
%TO.P,U12,1,A1*%
%TO.N,VCC_EXT*%
X112480000Y-102743000D03*
%TO.P,U12,2,C1*%
%TO.N,Net-(R17-Pad2)*%
X112480000Y-101473000D03*
%TO.P,U12,3,C2*%
%TO.N,Net-(R18-Pad2)*%
X112480000Y-100203000D03*
%TO.P,U12,4,A2*%
%TO.N,VCC_EXT*%
X112480000Y-98933000D03*
%TO.P,U12,5,GND*%
%TO.N,GND*%
X107230000Y-98933000D03*
%TO.P,U12,6,VO2*%
%TO.N,/STEPPER_Z_DIR*%
X107230000Y-100203000D03*
%TO.P,U12,7,VO1*%
%TO.N,/STEPPER_Z_STEP*%
X107230000Y-101473000D03*
%TO.P,U12,8,VCC*%
%TO.N,+3V3*%
X107230000Y-102743000D03*
%TD*%
D20*
%TO.P,R2,1*%
%TO.N,+3V3*%
X49003400Y-35790600D03*
%TO.P,R2,2*%
%TO.N,/RP2040 Microcontroller/GPIO1*%
X49003400Y-34770600D03*
%TD*%
D52*
%TO.P,F1,*%
%TO.N,*%
X130378200Y-82061400D03*
D53*
%TO.P,F1,1*%
%TO.N,/Input_Protection/VCC_INPUT*%
X134378200Y-82061400D03*
%TO.P,F1,2*%
%TO.N,/Input_Protection/vcc_post_fuse*%
X126378200Y-82061400D03*
%TD*%
D20*
%TO.P,R11,1*%
%TO.N,/STEPPER_Y_ENn*%
X105156000Y-65280000D03*
%TO.P,R11,2*%
%TO.N,Net-(R11-Pad2)*%
X105156000Y-64260000D03*
%TD*%
D33*
%TO.P,C35,1*%
%TO.N,+12V*%
X79260000Y-63595000D03*
%TO.P,C35,2*%
%TO.N,GND*%
X80220000Y-63595000D03*
%TD*%
D16*
%TO.P,C31,1*%
%TO.N,+3V3*%
X61671200Y-56543300D03*
%TO.P,C31,2*%
%TO.N,GND*%
X60711200Y-56543300D03*
%TD*%
D19*
%TO.P,C58,1*%
%TO.N,+3V3*%
X78740000Y-55062000D03*
%TO.P,C58,2*%
%TO.N,GND*%
X78740000Y-54102000D03*
%TD*%
D13*
%TO.P,R34,1*%
%TO.N,/Stepper Isolation 1/dir_ext*%
X115064000Y-54864000D03*
%TO.P,R34,2*%
%TO.N,Net-(R34-Pad2)*%
X114044000Y-54864000D03*
%TD*%
D12*
%TO.P,C54,1*%
%TO.N,+12V*%
X69342000Y-90883000D03*
%TO.P,C54,2*%
%TO.N,GND*%
X69342000Y-87933000D03*
%TD*%
D15*
%TO.P,R48,1*%
%TO.N,Net-(C38-Pad2)*%
X88630000Y-66260000D03*
%TO.P,R48,2*%
%TO.N,GND*%
X88630000Y-67280000D03*
%TD*%
D20*
%TO.P,R23,1*%
%TO.N,/Stepper Isolation 4/ena_ext*%
X114808000Y-110492000D03*
%TO.P,R23,2*%
%TO.N,/Stepper Isolation 4/ena_ext_opto*%
X114808000Y-109472000D03*
%TD*%
D15*
%TO.P,R20,1*%
%TO.N,Net-(R20-Pad1)*%
X114816000Y-89660000D03*
%TO.P,R20,2*%
%TO.N,/Stepper Isolation 3/alarm_ext*%
X114816000Y-90680000D03*
%TD*%
%TO.P,R38,1*%
%TO.N,/STEPPER_X_DIR*%
X105664000Y-53719000D03*
%TO.P,R38,2*%
%TO.N,+3V3*%
X105664000Y-54739000D03*
%TD*%
D36*
%TO.P,U4,1*%
%TO.N,VCC_EXT*%
X113022000Y-66929000D03*
%TO.P,U4,2*%
%TO.N,/Stepper Isolation 2/ena_ext_opto*%
X113022000Y-64389000D03*
%TO.P,U4,3*%
%TO.N,Net-(R11-Pad2)*%
X106942000Y-64389000D03*
%TO.P,U4,4*%
%TO.N,+3V3*%
X106942000Y-66929000D03*
%TD*%
D12*
%TO.P,C53,1*%
%TO.N,+12V*%
X66929000Y-90883000D03*
%TO.P,C53,2*%
%TO.N,GND*%
X66929000Y-87933000D03*
%TD*%
D19*
%TO.P,C3,1*%
%TO.N,+3V3*%
X105156000Y-67344000D03*
%TO.P,C3,2*%
%TO.N,GND*%
X105156000Y-66384000D03*
%TD*%
D28*
%TO.P,Je1,1,Pin_1*%
%TO.N,/STEPPER DRIVER X/STEPPER_COIL_A2*%
X42302500Y-44505000D03*
D29*
%TO.P,Je1,2,Pin_2*%
%TO.N,/STEPPER DRIVER X/STEPPER_COIL_A1*%
X42302500Y-48315000D03*
%TO.P,Je1,3,Pin_3*%
%TO.N,/STEPPER DRIVER X/STEPPER_COIL_B2*%
X42302500Y-52125000D03*
%TO.P,Je1,4,Pin_4*%
%TO.N,/STEPPER DRIVER X/STEPPER_COIL_B1*%
X42302500Y-55935000D03*
%TD*%
D20*
%TO.P,R19,1*%
%TO.N,/STEPPER_Z_ENn*%
X105156000Y-95252000D03*
%TO.P,R19,2*%
%TO.N,Net-(R19-Pad2)*%
X105156000Y-94232000D03*
%TD*%
D25*
%TO.P,J2,1,Pin_1*%
%TO.N,/RP2040 Microcontroller/SWCLK*%
X95935800Y-51968400D03*
D26*
%TO.P,J2,2,Pin_2*%
%TO.N,GND*%
X95935800Y-49428400D03*
%TO.P,J2,3,Pin_3*%
%TO.N,/RP2040 Microcontroller/SWD*%
X95935800Y-46888400D03*
%TD*%
D19*
%TO.P,C8,1*%
%TO.N,+3V3*%
X105664000Y-102969000D03*
%TO.P,C8,2*%
%TO.N,GND*%
X105664000Y-102009000D03*
%TD*%
%TO.P,C11,1*%
%TO.N,+3V3*%
X105156000Y-112429000D03*
%TO.P,C11,2*%
%TO.N,GND*%
X105156000Y-111469000D03*
%TD*%
D54*
%TO.P,R52,1*%
%TO.N,Net-(D3-Pad1)*%
X56515000Y-96516000D03*
%TO.P,R52,2*%
%TO.N,GND*%
X56515000Y-99441000D03*
%TD*%
D13*
%TO.P,R60,1*%
%TO.N,+3V3*%
X101983000Y-48895000D03*
%TO.P,R60,2*%
%TO.N,/RS485/RS485_A*%
X100963000Y-48895000D03*
%TD*%
D20*
%TO.P,R21,1*%
%TO.N,/STEPPER_Z_STEP*%
X104648000Y-101094000D03*
%TO.P,R21,2*%
%TO.N,+3V3*%
X104648000Y-100074000D03*
%TD*%
D15*
%TO.P,R12,1*%
%TO.N,Net-(R12-Pad1)*%
X114816000Y-59688000D03*
%TO.P,R12,2*%
%TO.N,/Stepper Isolation 2/alarm_ext*%
X114816000Y-60708000D03*
%TD*%
D25*
%TO.P,U19,1,GND*%
%TO.N,GND*%
X113550000Y-83795000D03*
D26*
%TO.P,U19,2,VCC*%
%TO.N,VCC*%
X111010000Y-83795000D03*
%TO.P,U19,3,GND*%
%TO.N,GND*%
X108470000Y-83795000D03*
%TO.P,U19,4,VCC*%
%TO.N,VCC*%
X105930000Y-83795000D03*
%TO.P,U19,5,GND*%
%TO.N,GND*%
X103390000Y-83795000D03*
%TO.P,U19,6,12V*%
%TO.N,+12V*%
X100850000Y-83795000D03*
%TO.P,U19,7,3V3*%
%TO.N,+3V3*%
X98310000Y-83795000D03*
%TO.P,U19,8,STEPPER_ENn*%
%TO.N,/STEPPER_Z_ENn*%
X95770000Y-83795000D03*
%TO.P,U19,9,STEPPER_DIR*%
%TO.N,/STEPPER_Z_DIR*%
X93230000Y-83795000D03*
%TO.P,U19,10,STEPPER_STEP*%
%TO.N,/STEPPER_Z_STEP*%
X90690000Y-83795000D03*
%TO.P,U19,11,SPI_CSn*%
%TO.N,/STEPPER_Z_CSn*%
X88150000Y-83795000D03*
%TO.P,U19,12,SPI_MISO*%
%TO.N,/STEPPER_MISO*%
X85610000Y-83795000D03*
%TO.P,U19,13,SPI_MOSI*%
%TO.N,/STEPPER_MOSI*%
X83070000Y-83795000D03*
%TO.P,U19,14,SPI_SCK*%
%TO.N,/STEPPER_SCK*%
X80530000Y-83795000D03*
%TD*%
D15*
%TO.P,R24,1*%
%TO.N,Net-(R24-Pad1)*%
X105164000Y-104773000D03*
%TO.P,R24,2*%
%TO.N,/STEPPER_A_DIAG0*%
X105164000Y-105793000D03*
%TD*%
D33*
%TO.P,C36,1*%
%TO.N,Net-(C36-Pad1)*%
X81927000Y-70072000D03*
%TO.P,C36,2*%
%TO.N,GND*%
X82887000Y-70072000D03*
%TD*%
D55*
%TO.P,C46,1*%
%TO.N,Net-(C46-Pad1)*%
X90424000Y-104635000D03*
%TO.P,C46,2*%
%TO.N,GND*%
X90424000Y-106185000D03*
%TD*%
D20*
%TO.P,R31,1*%
%TO.N,/Stepper Isolation 1/ena_ext*%
X114808000Y-50167000D03*
%TO.P,R31,2*%
%TO.N,/Stepper Isolation 1/ena_ext_opto*%
X114808000Y-49147000D03*
%TD*%
D56*
%TO.P,L1,1,1*%
%TO.N,/3.3V 1A Switching regulator/regulator_ph*%
X96758000Y-66440000D03*
%TO.P,L1,2,2*%
%TO.N,+3V3*%
X96758000Y-56940000D03*
%TD*%
D25*
%TO.P,U27,1,GND*%
%TO.N,GND*%
X76200000Y-83820000D03*
D26*
%TO.P,U27,2,VCC*%
%TO.N,VCC*%
X73660000Y-83820000D03*
%TO.P,U27,3,GND*%
%TO.N,GND*%
X71120000Y-83820000D03*
%TO.P,U27,4,VCC*%
%TO.N,VCC*%
X68580000Y-83820000D03*
%TO.P,U27,5,GND*%
%TO.N,GND*%
X66040000Y-83820000D03*
%TO.P,U27,6,12V*%
%TO.N,+12V*%
X63500000Y-83820000D03*
%TO.P,U27,7,3V3*%
%TO.N,+3V3*%
X60960000Y-83820000D03*
%TO.P,U27,8,STEPPER_ENn*%
%TO.N,/STEPPER_A_ENn*%
X58420000Y-83820000D03*
%TO.P,U27,9,STEPPER_DIR*%
%TO.N,/STEPPER_A_DIR*%
X55880000Y-83820000D03*
%TO.P,U27,10,STEPPER_STEP*%
%TO.N,/STEPPER_A_STEP*%
X53340000Y-83820000D03*
%TO.P,U27,11,SPI_CSn*%
%TO.N,/STEPPER_A_CSn*%
X50800000Y-83820000D03*
%TO.P,U27,12,SPI_MISO*%
%TO.N,/STEPPER_MISO*%
X48260000Y-83820000D03*
%TO.P,U27,13,SPI_MOSI*%
%TO.N,/STEPPER_MOSI*%
X45720000Y-83820000D03*
%TO.P,U27,14,SPI_SCK*%
%TO.N,/STEPPER_SCK*%
X43180000Y-83820000D03*
%TD*%
D22*
%TO.P,R47,1*%
%TO.N,Net-(R46-Pad2)*%
X78851000Y-70072000D03*
%TO.P,R47,2*%
%TO.N,GND*%
X79871000Y-70072000D03*
%TD*%
D30*
%TO.P,C43,1*%
%TO.N,VCC*%
X93472000Y-99998000D03*
%TO.P,C43,2*%
%TO.N,GND*%
X93472000Y-102948000D03*
%TD*%
D20*
%TO.P,R15,1*%
%TO.N,/Stepper Isolation 3/ena_ext*%
X114808000Y-95379000D03*
%TO.P,R15,2*%
%TO.N,/Stepper Isolation 3/ena_ext_opto*%
X114808000Y-94359000D03*
%TD*%
D16*
%TO.P,C22,1*%
%TO.N,/RP2040 Microcontroller/1V1*%
X61188200Y-61369300D03*
%TO.P,C22,2*%
%TO.N,GND*%
X60228200Y-61369300D03*
%TD*%
D36*
%TO.P,U14,1*%
%TO.N,VCC_EXT*%
X113030000Y-107315000D03*
%TO.P,U14,2*%
%TO.N,Net-(R28-Pad1)*%
X113030000Y-104775000D03*
%TO.P,U14,3*%
%TO.N,Net-(R24-Pad1)*%
X106950000Y-104775000D03*
%TO.P,U14,4*%
%TO.N,+3V3*%
X106950000Y-107315000D03*
%TD*%
D25*
%TO.P,J14,1,Pin_1*%
%TO.N,Net-(J14-Pad1)*%
X89733200Y-51765200D03*
D26*
%TO.P,J14,2,Pin_2*%
%TO.N,/RS485/RS485_B*%
X92273200Y-51765200D03*
%TD*%
D20*
%TO.P,R7,1*%
%TO.N,/Stepper Isolation 2/ena_ext*%
X114808000Y-65407000D03*
%TO.P,R7,2*%
%TO.N,/Stepper Isolation 2/ena_ext_opto*%
X114808000Y-64387000D03*
%TD*%
D12*
%TO.P,C52,1*%
%TO.N,+12V*%
X64516000Y-90883000D03*
%TO.P,C52,2*%
%TO.N,GND*%
X64516000Y-87933000D03*
%TD*%
D57*
%TO.P,J9,1,Pin_1*%
%TO.N,VCC_EXT*%
X124101000Y-121275500D03*
D58*
%TO.P,J9,2,Pin_2*%
%TO.N,/Stepper Isolation 4/step_ext*%
X124101000Y-118735500D03*
%TO.P,J9,3,Pin_3*%
%TO.N,VCC_EXT*%
X126641000Y-121275500D03*
%TO.P,J9,4,Pin_4*%
%TO.N,/Stepper Isolation 4/dir_ext*%
X126641000Y-118735500D03*
%TO.P,J9,5,Pin_5*%
%TO.N,VCC_EXT*%
X129181000Y-121275500D03*
%TO.P,J9,6,Pin_6*%
%TO.N,/Stepper Isolation 4/ena_ext*%
X129181000Y-118735500D03*
%TO.P,J9,7,Pin_7*%
%TO.N,unconnected-(J9-Pad7)*%
X131721000Y-121275500D03*
%TO.P,J9,8,Pin_8*%
%TO.N,/Stepper Isolation 4/alarm_ext*%
X131721000Y-118735500D03*
%TD*%
D15*
%TO.P,R16,1*%
%TO.N,Net-(R16-Pad1)*%
X105164000Y-89660000D03*
%TO.P,R16,2*%
%TO.N,/STEPPER_Z_DIAG0*%
X105164000Y-90680000D03*
%TD*%
D20*
%TO.P,R29,1*%
%TO.N,/STEPPER_A_STEP*%
X104648000Y-116207000D03*
%TO.P,R29,2*%
%TO.N,+3V3*%
X104648000Y-115187000D03*
%TD*%
D56*
%TO.P,L2,1,1*%
%TO.N,/12V 3A Switching Regulator/lm5576_sw*%
X64014000Y-104182000D03*
%TO.P,L2,2,2*%
%TO.N,+12V*%
X64014000Y-94682000D03*
%TD*%
D59*
%TO.P,R45,1*%
%TO.N,Net-(D1-Pad1)*%
X98806000Y-51753000D03*
%TO.P,R45,2*%
%TO.N,GND*%
X98806000Y-53403000D03*
%TD*%
D20*
%TO.P,R13,1*%
%TO.N,/STEPPER_Y_STEP*%
X104648000Y-71122000D03*
%TO.P,R13,2*%
%TO.N,+3V3*%
X104648000Y-70102000D03*
%TD*%
D25*
%TO.P,U7,1,GND*%
%TO.N,GND*%
X43075000Y-78715000D03*
D26*
%TO.P,U7,2,VCC*%
%TO.N,VCC*%
X45615000Y-78715000D03*
%TO.P,U7,3,GND*%
%TO.N,GND*%
X48155000Y-78715000D03*
%TO.P,U7,4,VCC*%
%TO.N,VCC*%
X50695000Y-78715000D03*
%TO.P,U7,5,GND*%
%TO.N,GND*%
X53235000Y-78715000D03*
%TO.P,U7,6,12V*%
%TO.N,+12V*%
X55775000Y-78715000D03*
%TO.P,U7,7,3V3*%
%TO.N,+3V3*%
X58315000Y-78715000D03*
%TO.P,U7,8,STEPPER_ENn*%
%TO.N,/STEPPER_X_ENn*%
X60855000Y-78715000D03*
%TO.P,U7,9,STEPPER_DIR*%
%TO.N,/STEPPER_X_DIR*%
X63395000Y-78715000D03*
%TO.P,U7,10,STEPPER_STEP*%
%TO.N,/STEPPER_X_STEP*%
X65935000Y-78715000D03*
%TO.P,U7,11,SPI_CSn*%
%TO.N,/STEPPER_X_CSn*%
X68475000Y-78715000D03*
%TO.P,U7,12,SPI_MISO*%
%TO.N,/STEPPER_MISO*%
X71015000Y-78715000D03*
%TO.P,U7,13,SPI_MOSI*%
%TO.N,/STEPPER_MOSI*%
X73555000Y-78715000D03*
%TO.P,U7,14,SPI_SCK*%
%TO.N,/STEPPER_SCK*%
X76095000Y-78715000D03*
%TD*%
D25*
%TO.P,U1,1,GND*%
%TO.N,GND*%
X80550000Y-78690000D03*
D26*
%TO.P,U1,2,VCC*%
%TO.N,VCC*%
X83090000Y-78690000D03*
%TO.P,U1,3,GND*%
%TO.N,GND*%
X85630000Y-78690000D03*
%TO.P,U1,4,VCC*%
%TO.N,VCC*%
X88170000Y-78690000D03*
%TO.P,U1,5,GND*%
%TO.N,GND*%
X90710000Y-78690000D03*
%TO.P,U1,6,12V*%
%TO.N,+12V*%
X93250000Y-78690000D03*
%TO.P,U1,7,3V3*%
%TO.N,+3V3*%
X95790000Y-78690000D03*
%TO.P,U1,8,STEPPER_ENn*%
%TO.N,/STEPPER_Y_ENn*%
X98330000Y-78690000D03*
%TO.P,U1,9,STEPPER_DIR*%
%TO.N,/STEPPER_Y_DIR*%
X100870000Y-78690000D03*
%TO.P,U1,10,STEPPER_STEP*%
%TO.N,/STEPPER_Y_STEP*%
X103410000Y-78690000D03*
%TO.P,U1,11,SPI_CSn*%
%TO.N,/STEPPER_Y_CSn*%
X105950000Y-78690000D03*
%TO.P,U1,12,SPI_MISO*%
%TO.N,/STEPPER_MISO*%
X108490000Y-78690000D03*
%TO.P,U1,13,SPI_MOSI*%
%TO.N,/STEPPER_MOSI*%
X111030000Y-78690000D03*
%TO.P,U1,14,SPI_SCK*%
%TO.N,/STEPPER_SCK*%
X113570000Y-78690000D03*
%TD*%
D18*
%TO.P,R43,1*%
%TO.N,/RP2040 Microcontroller/USB_D+*%
X57826200Y-59337300D03*
%TO.P,R43,2*%
%TO.N,Net-(R43-Pad2)*%
X59476200Y-59337300D03*
%TD*%
D39*
%TO.P,U6,1,A1*%
%TO.N,VCC_EXT*%
X112480000Y-72771000D03*
%TO.P,U6,2,C1*%
%TO.N,Net-(R9-Pad2)*%
X112480000Y-71501000D03*
%TO.P,U6,3,C2*%
%TO.N,Net-(R10-Pad2)*%
X112480000Y-70231000D03*
%TO.P,U6,4,A2*%
%TO.N,VCC_EXT*%
X112480000Y-68961000D03*
%TO.P,U6,5,GND*%
%TO.N,GND*%
X107230000Y-68961000D03*
%TO.P,U6,6,VO2*%
%TO.N,/STEPPER_Y_DIR*%
X107230000Y-70231000D03*
%TO.P,U6,7,VO1*%
%TO.N,/STEPPER_Y_STEP*%
X107230000Y-71501000D03*
%TO.P,U6,8,VCC*%
%TO.N,+3V3*%
X107230000Y-72771000D03*
%TD*%
D15*
%TO.P,R22,1*%
%TO.N,/STEPPER_Z_DIR*%
X105664000Y-98931000D03*
%TO.P,R22,2*%
%TO.N,+3V3*%
X105664000Y-99951000D03*
%TD*%
D32*
%TO.P,C48,1*%
%TO.N,/12V 3A Switching Regulator/lm5576_bst*%
X80645000Y-102550000D03*
%TO.P,C48,2*%
%TO.N,/12V 3A Switching Regulator/lm5576_sw*%
X80645000Y-100650000D03*
%TD*%
D31*
%TO.P,C6,1*%
%TO.N,+3V3*%
X105164000Y-61877000D03*
%TO.P,C6,2*%
%TO.N,GND*%
X105164000Y-62837000D03*
%TD*%
D57*
%TO.P,J8,1,Pin_1*%
%TO.N,VCC_EXT*%
X124101000Y-111369500D03*
D58*
%TO.P,J8,2,Pin_2*%
%TO.N,/Stepper Isolation 3/step_ext*%
X124101000Y-108829500D03*
%TO.P,J8,3,Pin_3*%
%TO.N,VCC_EXT*%
X126641000Y-111369500D03*
%TO.P,J8,4,Pin_4*%
%TO.N,/Stepper Isolation 3/dir_ext*%
X126641000Y-108829500D03*
%TO.P,J8,5,Pin_5*%
%TO.N,VCC_EXT*%
X129181000Y-111369500D03*
%TO.P,J8,6,Pin_6*%
%TO.N,/Stepper Isolation 3/ena_ext*%
X129181000Y-108829500D03*
%TO.P,J8,7,Pin_7*%
%TO.N,unconnected-(J8-Pad7)*%
X131721000Y-111369500D03*
%TO.P,J8,8,Pin_8*%
%TO.N,/Stepper Isolation 3/alarm_ext*%
X131721000Y-108829500D03*
%TD*%
D39*
%TO.P,U18,1,A1*%
%TO.N,VCC_EXT*%
X112480000Y-57531000D03*
%TO.P,U18,2,C1*%
%TO.N,Net-(R33-Pad2)*%
X112480000Y-56261000D03*
%TO.P,U18,3,C2*%
%TO.N,Net-(R34-Pad2)*%
X112480000Y-54991000D03*
%TO.P,U18,4,A2*%
%TO.N,VCC_EXT*%
X112480000Y-53721000D03*
%TO.P,U18,5,GND*%
%TO.N,GND*%
X107230000Y-53721000D03*
%TO.P,U18,6,VO2*%
%TO.N,/STEPPER_X_DIR*%
X107230000Y-54991000D03*
%TO.P,U18,7,VO1*%
%TO.N,/STEPPER_X_STEP*%
X107230000Y-56261000D03*
%TO.P,U18,8,VCC*%
%TO.N,+3V3*%
X107230000Y-57531000D03*
%TD*%
D60*
%TO.P,D7,1,A1*%
%TO.N,GND*%
X120751600Y-83836400D03*
%TO.P,D7,2,A2*%
%TO.N,VCC*%
X120751600Y-79536400D03*
%TD*%
D61*
%TO.P,J3,1,VBUS*%
%TO.N,unconnected-(J3-Pad1)*%
X47849000Y-126947000D03*
%TO.P,J3,2,D-*%
%TO.N,/RP2040 Microcontroller/USB_D-*%
X48499000Y-126947000D03*
%TO.P,J3,3,D+*%
%TO.N,/RP2040 Microcontroller/USB_D+*%
X49149000Y-126947000D03*
%TO.P,J3,4,ID*%
%TO.N,unconnected-(J3-Pad4)*%
X49799000Y-126947000D03*
%TO.P,J3,5,GND*%
%TO.N,GND*%
X50449000Y-126947000D03*
D62*
%TO.P,J3,6,Shield*%
X50149000Y-129647000D03*
X48149000Y-129647000D03*
D63*
X51649000Y-126947000D03*
D64*
X52649000Y-129647000D03*
X45649000Y-129647000D03*
D65*
X46249000Y-129647000D03*
D63*
X46649000Y-126947000D03*
D65*
X52049000Y-129647000D03*
%TD*%
D66*
%TO.P,D5,1,A1*%
%TO.N,/RS485/RS485_B*%
X80571100Y-54904600D03*
%TO.P,D5,2,A2*%
%TO.N,/RS485/RS485_A*%
X80571100Y-56804600D03*
%TO.P,D5,3,common*%
%TO.N,GND*%
X82446100Y-55854600D03*
%TD*%
D33*
%TO.P,C32,1*%
%TO.N,+3V3*%
X72547600Y-61036200D03*
%TO.P,C32,2*%
%TO.N,GND*%
X73507600Y-61036200D03*
%TD*%
D19*
%TO.P,C7,1*%
%TO.N,+3V3*%
X105156000Y-97316000D03*
%TO.P,C7,2*%
%TO.N,GND*%
X105156000Y-96356000D03*
%TD*%
D17*
%TO.P,D3,1,K*%
%TO.N,Net-(D3-Pad1)*%
X59690000Y-89105500D03*
%TO.P,D3,2,A*%
%TO.N,+12V*%
X59690000Y-90980500D03*
%TD*%
D19*
%TO.P,C21,1*%
%TO.N,+3V3*%
X63883200Y-55852000D03*
%TO.P,C21,2*%
%TO.N,GND*%
X63883200Y-54892000D03*
%TD*%
D18*
%TO.P,R55,1*%
%TO.N,+12V*%
X82741000Y-88519000D03*
%TO.P,R55,2*%
%TO.N,Net-(C47-Pad1)*%
X84391000Y-88519000D03*
%TD*%
D13*
%TO.P,R50,1*%
%TO.N,Net-(R49-Pad2)*%
X86346000Y-70072000D03*
%TO.P,R50,2*%
%TO.N,GND*%
X85326000Y-70072000D03*
%TD*%
D28*
%TO.P,J13,1,Pin_1*%
%TO.N,/STEPPER DRIVER A/STEPPER_COIL_A2*%
X42302500Y-106735000D03*
D29*
%TO.P,J13,2,Pin_2*%
%TO.N,/STEPPER DRIVER A/STEPPER_COIL_A1*%
X42302500Y-110545000D03*
%TO.P,J13,3,Pin_3*%
%TO.N,/STEPPER DRIVER A/STEPPER_COIL_B2*%
X42302500Y-114355000D03*
%TO.P,J13,4,Pin_4*%
%TO.N,/STEPPER DRIVER A/STEPPER_COIL_B1*%
X42302500Y-118165000D03*
%TD*%
D67*
%TO.P,U22,1,~{CS}*%
%TO.N,/RP2040 Microcontroller/QSPI_SS*%
X57787200Y-72047281D03*
%TO.P,U22,2,DO(IO1)*%
%TO.N,/RP2040 Microcontroller/QSPI_SD1*%
X59057200Y-72047281D03*
%TO.P,U22,3,IO2*%
%TO.N,/RP2040 Microcontroller/QSPI_SD2*%
X60327200Y-72047281D03*
%TO.P,U22,4,GND*%
%TO.N,GND*%
X61597200Y-72047281D03*
%TO.P,U22,5,DI(IO0)*%
%TO.N,/RP2040 Microcontroller/QSPI_SD0*%
X61597200Y-64847281D03*
%TO.P,U22,6,CLK*%
%TO.N,/RP2040 Microcontroller/QSPI_SCLK*%
X60327200Y-64847281D03*
%TO.P,U22,7,IO3*%
%TO.N,/RP2040 Microcontroller/QSPI_SD3*%
X59057200Y-64847281D03*
%TO.P,U22,8,VCC*%
%TO.N,+3V3*%
X57787200Y-64847281D03*
%TD*%
D28*
%TO.P,J12,1,Pin_1*%
%TO.N,/STEPPER DRIVER Z/STEPPER_COIL_A2*%
X42302500Y-88955000D03*
D29*
%TO.P,J12,2,Pin_2*%
%TO.N,/STEPPER DRIVER Z/STEPPER_COIL_A1*%
X42302500Y-92765000D03*
%TO.P,J12,3,Pin_3*%
%TO.N,/STEPPER DRIVER Z/STEPPER_COIL_B2*%
X42302500Y-96575000D03*
%TO.P,J12,4,Pin_4*%
%TO.N,/STEPPER DRIVER Z/STEPPER_COIL_B1*%
X42302500Y-100385000D03*
%TD*%
D13*
%TO.P,R9,1*%
%TO.N,/Stepper Isolation 2/step_ext*%
X115064000Y-71374000D03*
%TO.P,R9,2*%
%TO.N,Net-(R9-Pad2)*%
X114044000Y-71374000D03*
%TD*%
D68*
%TO.P,J1,1,Pin_1*%
%TO.N,/Input_Protection/VCC_INPUT*%
X132537200Y-74777600D03*
D29*
%TO.P,J1,2,Pin_2*%
%TO.N,GND*%
X132537200Y-70967600D03*
%TD*%
D19*
%TO.P,C29,1*%
%TO.N,+3V3*%
X67668200Y-55852300D03*
%TO.P,C29,2*%
%TO.N,GND*%
X67668200Y-54892300D03*
%TD*%
D37*
%TO.P,J5,1,Pin_1*%
%TO.N,/RS485/RS485_A*%
X113254400Y-35063500D03*
D35*
%TO.P,J5,2,Pin_2*%
%TO.N,/RS485/RS485_B*%
X109444400Y-35063500D03*
%TD*%
D69*
%TO.P,C47,1*%
%TO.N,Net-(C47-Pad1)*%
X82616000Y-92583000D03*
%TO.P,C47,2*%
%TO.N,Net-(C47-Pad2)*%
X84516000Y-92583000D03*
%TD*%
D57*
%TO.P,J6,1,Pin_1*%
%TO.N,VCC_EXT*%
X124079000Y-91557500D03*
D58*
%TO.P,J6,2,Pin_2*%
%TO.N,/Stepper Isolation 1/step_ext*%
X124079000Y-89017500D03*
%TO.P,J6,3,Pin_3*%
%TO.N,VCC_EXT*%
X126619000Y-91557500D03*
%TO.P,J6,4,Pin_4*%
%TO.N,/Stepper Isolation 1/dir_ext*%
X126619000Y-89017500D03*
%TO.P,J6,5,Pin_5*%
%TO.N,VCC_EXT*%
X129159000Y-91557500D03*
%TO.P,J6,6,Pin_6*%
%TO.N,/Stepper Isolation 1/ena_ext*%
X129159000Y-89017500D03*
%TO.P,J6,7,Pin_7*%
%TO.N,unconnected-(J6-Pad7)*%
X131699000Y-91557500D03*
%TO.P,J6,8,Pin_8*%
%TO.N,/Stepper Isolation 1/alarm_ext*%
X131699000Y-89017500D03*
%TD*%
D13*
%TO.P,R17,1*%
%TO.N,/Stepper Isolation 3/step_ext*%
X115064000Y-101346000D03*
%TO.P,R17,2*%
%TO.N,Net-(R17-Pad2)*%
X114044000Y-101346000D03*
%TD*%
D70*
%TO.P,C1,1*%
%TO.N,VCC*%
X126492000Y-55473600D03*
D71*
%TO.P,C1,2*%
%TO.N,GND*%
X126492000Y-62973600D03*
%TD*%
D20*
%TO.P,R6,1*%
%TO.N,+3V3*%
X44660000Y-33504600D03*
%TO.P,R6,2*%
%TO.N,/RP2040 Microcontroller/GPIO3*%
X44660000Y-32484600D03*
%TD*%
D31*
%TO.P,C18,1*%
%TO.N,+3V3*%
X105164000Y-46637000D03*
%TO.P,C18,2*%
%TO.N,GND*%
X105164000Y-47597000D03*
%TD*%
D13*
%TO.P,R58,1*%
%TO.N,/RS485/RS485_B*%
X99646200Y-47447200D03*
%TO.P,R58,2*%
%TO.N,GND*%
X98626200Y-47447200D03*
%TD*%
D15*
%TO.P,R46,1*%
%TO.N,+12V*%
X78597000Y-67657000D03*
%TO.P,R46,2*%
%TO.N,Net-(R46-Pad2)*%
X78597000Y-68677000D03*
%TD*%
D20*
%TO.P,R5,1*%
%TO.N,/STEPPER_MOSI*%
X69519800Y-66016600D03*
%TO.P,R5,2*%
%TO.N,/RP2040 Microcontroller/GPIO11*%
X69519800Y-64996600D03*
%TD*%
%TO.P,R37,1*%
%TO.N,/STEPPER_X_STEP*%
X104648000Y-55882000D03*
%TO.P,R37,2*%
%TO.N,+3V3*%
X104648000Y-54862000D03*
%TD*%
D70*
%TO.P,C2,1*%
%TO.N,VCC*%
X126492000Y-38803646D03*
D71*
%TO.P,C2,2*%
%TO.N,GND*%
X126492000Y-46303646D03*
%TD*%
D57*
%TO.P,J7,1,Pin_1*%
%TO.N,VCC_EXT*%
X124079000Y-101463500D03*
D58*
%TO.P,J7,2,Pin_2*%
%TO.N,/Stepper Isolation 2/step_ext*%
X124079000Y-98923500D03*
%TO.P,J7,3,Pin_3*%
%TO.N,VCC_EXT*%
X126619000Y-101463500D03*
%TO.P,J7,4,Pin_4*%
%TO.N,/Stepper Isolation 2/dir_ext*%
X126619000Y-98923500D03*
%TO.P,J7,5,Pin_5*%
%TO.N,VCC_EXT*%
X129159000Y-101463500D03*
%TO.P,J7,6,Pin_6*%
%TO.N,/Stepper Isolation 2/ena_ext*%
X129159000Y-98923500D03*
%TO.P,J7,7,Pin_7*%
%TO.N,unconnected-(J7-Pad7)*%
X131699000Y-101463500D03*
%TO.P,J7,8,Pin_8*%
%TO.N,/Stepper Isolation 2/alarm_ext*%
X131699000Y-98923500D03*
%TD*%
D72*
%TO.P,D6,1,K*%
%TO.N,VCC*%
X126085600Y-69847400D03*
%TO.P,D6,2,A*%
%TO.N,/Input_Protection/reverse_polarity_protection*%
X122585600Y-69847400D03*
%TD*%
D25*
%TO.P,U21,1,DIAG2*%
%TO.N,/STEPPER_Z_DIAG0*%
X80530000Y-123165000D03*
D26*
%TO.P,U21,2,DIAG1*%
%TO.N,/STEPPER DRIVER Z/STEPPER_DIAG1*%
X83070000Y-123165000D03*
%TO.P,U21,3,B1*%
%TO.N,/STEPPER DRIVER Z/STEPPER_COIL_B1*%
X85610000Y-123165000D03*
%TO.P,U21,4,B1*%
X88150000Y-123165000D03*
%TO.P,U21,5,B1*%
X90690000Y-123165000D03*
%TO.P,U21,6,B2*%
%TO.N,/STEPPER DRIVER Z/STEPPER_COIL_B2*%
X93230000Y-123165000D03*
%TO.P,U21,7,B2*%
X95770000Y-123165000D03*
%TO.P,U21,8,B2*%
X98310000Y-123165000D03*
%TO.P,U21,9,A1*%
%TO.N,/STEPPER DRIVER Z/STEPPER_COIL_A1*%
X100850000Y-123165000D03*
%TO.P,U21,10,A1*%
X103390000Y-123165000D03*
%TO.P,U21,11,A1*%
X105930000Y-123165000D03*
%TO.P,U21,12,A2*%
%TO.N,/STEPPER DRIVER Z/STEPPER_COIL_A2*%
X108470000Y-123165000D03*
%TO.P,U21,13,A2*%
X111010000Y-123165000D03*
%TO.P,U21,14,A2*%
X113550000Y-123165000D03*
%TD*%
D25*
%TO.P,U3,1,DIAG2*%
%TO.N,/STEPPER_Y_DIAG0*%
X113570000Y-39320000D03*
D26*
%TO.P,U3,2,DIAG1*%
%TO.N,/STEPPER DRIVER Y/STEPPER_DIAG1*%
X111030000Y-39320000D03*
%TO.P,U3,3,B1*%
%TO.N,/STEPPER DRIVER Y/STEPPER_COIL_B1*%
X108490000Y-39320000D03*
%TO.P,U3,4,B1*%
X105950000Y-39320000D03*
%TO.P,U3,5,B1*%
X103410000Y-39320000D03*
%TO.P,U3,6,B2*%
%TO.N,/STEPPER DRIVER Y/STEPPER_COIL_B2*%
X100870000Y-39320000D03*
%TO.P,U3,7,B2*%
X98330000Y-39320000D03*
%TO.P,U3,8,B2*%
X95790000Y-39320000D03*
%TO.P,U3,9,A1*%
%TO.N,/STEPPER DRIVER Y/STEPPER_COIL_A1*%
X93250000Y-39320000D03*
%TO.P,U3,10,A1*%
X90710000Y-39320000D03*
%TO.P,U3,11,A1*%
X88170000Y-39320000D03*
%TO.P,U3,12,A2*%
%TO.N,/STEPPER DRIVER Y/STEPPER_COIL_A2*%
X85630000Y-39320000D03*
%TO.P,U3,13,A2*%
X83090000Y-39320000D03*
%TO.P,U3,14,A2*%
X80550000Y-39320000D03*
%TD*%
D36*
%TO.P,U17,1*%
%TO.N,VCC_EXT*%
X113030000Y-46990000D03*
%TO.P,U17,2*%
%TO.N,Net-(R36-Pad1)*%
X113030000Y-44450000D03*
%TO.P,U17,3*%
%TO.N,Net-(R32-Pad1)*%
X106950000Y-44450000D03*
%TO.P,U17,4*%
%TO.N,+3V3*%
X106950000Y-46990000D03*
%TD*%
D69*
%TO.P,C45,1*%
%TO.N,Net-(C45-Pad1)*%
X82616000Y-94742000D03*
%TO.P,C45,2*%
%TO.N,GND*%
X84516000Y-94742000D03*
%TD*%
D73*
%TO.P,R54,1*%
%TO.N,/12V 3A Switching Regulator/lm5576_R60*%
X82762500Y-104775000D03*
%TO.P,R54,2*%
%TO.N,GND*%
X88687500Y-104775000D03*
%TD*%
D74*
%TO.P,C49,1*%
%TO.N,/12V 3A Switching Regulator/lm5576_sw*%
X78613000Y-100650000D03*
%TO.P,C49,2*%
%TO.N,/12V 3A Switching Regulator/lm5576_R60*%
X78613000Y-102550000D03*
%TD*%
D75*
%TO.N,GND*%
X60500000Y-129750000D03*
X72329600Y-130170400D03*
%TO.N,+3V3*%
X57783700Y-66314100D03*
X103733600Y-73025000D03*
X104241600Y-46634400D03*
X91232000Y-54705000D03*
X104140000Y-97344000D03*
X75565000Y-54483000D03*
X49968600Y-35710400D03*
X104241600Y-61849000D03*
X67679685Y-62938569D03*
X92502000Y-55975000D03*
X103809800Y-117983000D03*
X93772000Y-54705000D03*
X93772000Y-57245000D03*
X47733400Y-34669000D03*
X103708200Y-57810400D03*
X91232000Y-59785000D03*
D76*
X61437133Y-58925031D03*
X62331054Y-56794946D03*
D75*
X104215306Y-112403556D03*
X103809800Y-55067200D03*
X104140000Y-52132000D03*
X92502000Y-58515000D03*
X95042000Y-61055000D03*
D76*
X67108564Y-65155307D03*
D75*
X98852000Y-59785000D03*
D76*
X71856600Y-60960000D03*
X64426439Y-65459617D03*
X64617600Y-55676800D03*
D75*
X101981000Y-48006000D03*
D76*
X61489600Y-54864000D03*
D75*
X84247000Y-71215000D03*
X51800000Y-37200000D03*
X96312000Y-59785000D03*
X103809800Y-70104000D03*
X103759000Y-103059000D03*
X64268838Y-62858679D03*
X63726000Y-68511037D03*
X97582000Y-61055000D03*
X104267000Y-106959400D03*
X104013000Y-99568000D03*
X103886000Y-115189000D03*
X104267000Y-91756000D03*
D76*
X61391800Y-59842400D03*
D75*
X92502000Y-61055000D03*
X104267000Y-67335400D03*
X93772000Y-59785000D03*
D76*
X68402200Y-55803800D03*
D75*
X70485000Y-52705000D03*
X45649000Y-33477200D03*
%TO.N,VCC*%
X95250000Y-99382000D03*
X122174000Y-77470000D03*
X119380000Y-73660000D03*
X122189499Y-71389499D03*
X127409000Y-69847400D03*
X126088200Y-68323400D03*
X96520000Y-98112000D03*
X127231200Y-68679000D03*
X119126000Y-77978000D03*
X93980000Y-98112000D03*
X119126000Y-80010000D03*
X122174000Y-75438000D03*
X122174000Y-73660000D03*
X119380000Y-75438000D03*
X122428000Y-79502000D03*
X95250000Y-96842000D03*
X96520000Y-100652000D03*
%TO.N,GND*%
X74930000Y-89535000D03*
X62100000Y-35600000D03*
X61595000Y-89535000D03*
X73025000Y-70739000D03*
X104239839Y-62848501D03*
X62000000Y-33000000D03*
D76*
X60831230Y-58925031D03*
D75*
X76021948Y-58392677D03*
X65405000Y-89535000D03*
X87630000Y-106367000D03*
X122428000Y-81534000D03*
X103759744Y-116984752D03*
X83931000Y-70072000D03*
X104269647Y-107958899D03*
X80949800Y-55854600D03*
X92710000Y-103827000D03*
X86360000Y-105097000D03*
X85928200Y-96774000D03*
X69164287Y-61472140D03*
X96520000Y-105097000D03*
X83612000Y-59785000D03*
X69469000Y-54864000D03*
X85090000Y-103827000D03*
X69215000Y-89535000D03*
X96520000Y-102557000D03*
X103759000Y-102043000D03*
X84455000Y-96842000D03*
X79502000Y-54102000D03*
X98628200Y-48310800D03*
X78740000Y-89535000D03*
X93980000Y-105097000D03*
X119126000Y-83312000D03*
X56515000Y-98298000D03*
X103733600Y-56794400D03*
X108432600Y-114071400D03*
D76*
X68402200Y-54889400D03*
D75*
X67310000Y-89535000D03*
X80756000Y-70072000D03*
X104241600Y-66319400D03*
X84882000Y-61055000D03*
X104239839Y-47633901D03*
X108303000Y-53559042D03*
X62105200Y-70351733D03*
X85979000Y-90551000D03*
X71120000Y-89535000D03*
X119126000Y-81534000D03*
X104241600Y-111404400D03*
X87630000Y-103827000D03*
D76*
X74193400Y-60045600D03*
D75*
X108557000Y-98868000D03*
D76*
X64617600Y-54889400D03*
D75*
X84058000Y-66135000D03*
D76*
X60256067Y-61953609D03*
D75*
X85090000Y-106367000D03*
X95250000Y-106367000D03*
X84429600Y-56108600D03*
X75920600Y-66421000D03*
X119126000Y-85090000D03*
X73025000Y-89535000D03*
X122428000Y-85090000D03*
X103733600Y-71958200D03*
X95250000Y-103827000D03*
X87614000Y-70072000D03*
X104140000Y-51116000D03*
X104267000Y-92772000D03*
D76*
X60731400Y-59867800D03*
D75*
X99466400Y-54381400D03*
X119202200Y-68554600D03*
X74930000Y-64262000D03*
X122428000Y-83312000D03*
D76*
X60883800Y-54889400D03*
D75*
X104140000Y-96328000D03*
X86852000Y-60166000D03*
D76*
X64566800Y-66065400D03*
X60731400Y-57048400D03*
D75*
X86360000Y-102557000D03*
X88630000Y-68167000D03*
X108712000Y-68515000D03*
X85344000Y-59055000D03*
D76*
X74218800Y-61036200D03*
X67081400Y-65760600D03*
%TO.N,/RP2040 Microcontroller/1V1*%
X71805800Y-59975244D03*
X60866666Y-61984064D03*
X62331600Y-57454800D03*
D75*
%TO.N,/RP2040 Microcontroller/~{USB_BOOT}*%
X58877200Y-126415800D03*
X62250000Y-127750000D03*
%TO.N,Net-(C39-Pad2)*%
X87106000Y-62833000D03*
X81534000Y-64135000D03*
%TO.N,+12V*%
X76200000Y-92710000D03*
X72390000Y-94615000D03*
X67945000Y-93345000D03*
X69341000Y-97374000D03*
X69850000Y-94615000D03*
X80010000Y-95250000D03*
X66801000Y-94834000D03*
X64261000Y-97374000D03*
X68071000Y-98644000D03*
X73660000Y-92710000D03*
X62991000Y-98644000D03*
X77470000Y-94615000D03*
X65531000Y-98644000D03*
X74930000Y-94615000D03*
X71120000Y-92710000D03*
X68071000Y-96104000D03*
X77897000Y-59785000D03*
X61721000Y-97374000D03*
X77876315Y-62158529D03*
X79167000Y-66135000D03*
X66801000Y-97374000D03*
X77897000Y-64865000D03*
%TO.N,/RP2040 Microcontroller/GPIO2*%
X38737600Y-75887112D03*
X46699090Y-76137690D03*
%TO.N,/RP2040 Microcontroller/GPIO3*%
X38862000Y-74549000D03*
X45962490Y-76874290D03*
%TO.N,/RP2040 Microcontroller/RUN*%
X53986004Y-65946426D03*
X54178200Y-71145400D03*
%TO.N,/RP2040 Microcontroller/GPIO0*%
X48183698Y-74653083D03*
X40727239Y-75134663D03*
%TO.N,/RP2040 Microcontroller/GPIO1*%
X47476942Y-75359838D03*
X40080801Y-75896977D03*
%TO.N,VCC_EXT*%
X114046000Y-57531000D03*
X114147600Y-113995200D03*
X114046000Y-68961000D03*
X114833400Y-97028000D03*
X114782600Y-92938600D03*
X113715800Y-102768400D03*
X114681000Y-62103000D03*
X114808000Y-66929000D03*
X114858800Y-111963200D03*
X113919000Y-53594000D03*
X114808000Y-46863000D03*
X114046000Y-117805200D03*
X114071400Y-98907600D03*
X113919000Y-72771000D03*
X114808000Y-51562000D03*
X114858800Y-107315000D03*
%TD*%
D77*
%TO.N,GND*%
X63655200Y-130195800D02*
X60945800Y-130195800D01*
X60945800Y-130195800D02*
X60500000Y-129750000D01*
X57655200Y-130195800D02*
X60054200Y-130195800D01*
X60054200Y-130195800D02*
X60500000Y-129750000D01*
X75669400Y-130170400D02*
X69669400Y-130170400D01*
%TO.N,/RP2040 Microcontroller/RUN*%
X75669400Y-126420400D02*
X69669400Y-126420400D01*
D78*
%TO.N,/RP2040 Microcontroller/~{USB_BOOT}*%
X62250000Y-127750000D02*
X63554200Y-126445800D01*
X63554200Y-126445800D02*
X63655200Y-126445800D01*
%TO.N,+3V3*%
X105517000Y-46990000D02*
X105164000Y-46637000D01*
X61671200Y-56543300D02*
X62079408Y-56543300D01*
X44709200Y-33479200D02*
X45647000Y-33479200D01*
D77*
X61643200Y-60093800D02*
X61391800Y-59842400D01*
X105890000Y-117856000D02*
X105664000Y-118082000D01*
D78*
X104648000Y-54862000D02*
X104015000Y-54862000D01*
D79*
X71499000Y-52832000D02*
X70612000Y-52832000D01*
D78*
X61671200Y-55045600D02*
X61489600Y-54864000D01*
X62334200Y-59845300D02*
X63236700Y-59845300D01*
D77*
X107230000Y-117856000D02*
X105890000Y-117856000D01*
D78*
X61671200Y-56543300D02*
X61671200Y-55527300D01*
X106950000Y-107315000D02*
X105517000Y-107315000D01*
X101983000Y-48008000D02*
X101981000Y-48006000D01*
X67682200Y-63874800D02*
X67682200Y-64963000D01*
X63756200Y-68541237D02*
X63726000Y-68511037D01*
X106950000Y-46990000D02*
X105517000Y-46990000D01*
D79*
X77024000Y-54483000D02*
X75565000Y-54483000D01*
D78*
X64047122Y-65080300D02*
X64426439Y-65459617D01*
X106877000Y-57757000D02*
X104648000Y-57757000D01*
X64082200Y-63045317D02*
X64268838Y-62858679D01*
X104168000Y-52104000D02*
X104140000Y-52132000D01*
D77*
X107230000Y-102743000D02*
X105890000Y-102743000D01*
D78*
X105156000Y-67344000D02*
X104275600Y-67344000D01*
X104648000Y-102969000D02*
X103849000Y-102969000D01*
X107230000Y-72771000D02*
X105890000Y-72771000D01*
D77*
X67191771Y-65072100D02*
X67108564Y-65155307D01*
X103908800Y-118082000D02*
X103809800Y-117983000D01*
D78*
X105164000Y-91849000D02*
X104360000Y-91849000D01*
X101983000Y-48895000D02*
X101983000Y-48008000D01*
X104275600Y-67344000D02*
X104267000Y-67335400D01*
X105517000Y-107315000D02*
X105164000Y-106962000D01*
X105517000Y-62230000D02*
X105164000Y-61877000D01*
X46946000Y-34749200D02*
X47653200Y-34749200D01*
X71547244Y-60960000D02*
X70824544Y-60237300D01*
X104648000Y-115187000D02*
X103888000Y-115187000D01*
X104015000Y-54862000D02*
X103809800Y-55067200D01*
D77*
X105664000Y-102969000D02*
X104648000Y-102969000D01*
D78*
X67682200Y-62941084D02*
X67679685Y-62938569D01*
X104269600Y-61877000D02*
X104241600Y-61849000D01*
X63756200Y-69237281D02*
X63756200Y-68541237D01*
X105517000Y-92202000D02*
X105164000Y-91849000D01*
X104648000Y-57757000D02*
X103761600Y-57757000D01*
X105664000Y-115064000D02*
X104771000Y-115064000D01*
X105664000Y-54739000D02*
X104771000Y-54739000D01*
X62079408Y-56543300D02*
X62331054Y-56794946D01*
X63244700Y-57100800D02*
X61671200Y-55527300D01*
X105156000Y-97316000D02*
X104168000Y-97316000D01*
X84374000Y-71088000D02*
X84247000Y-71215000D01*
D77*
X63883200Y-55852000D02*
X64442400Y-55852000D01*
D78*
X51533600Y-36933600D02*
X51800000Y-37200000D01*
X103849000Y-102969000D02*
X103759000Y-103059000D01*
X62269300Y-60237300D02*
X61759200Y-60237300D01*
X64082200Y-63874800D02*
X64082200Y-63045317D01*
X63244700Y-57837300D02*
X63244700Y-57100800D01*
X104360000Y-91849000D02*
X104267000Y-91756000D01*
X49966600Y-35712400D02*
X49968600Y-35710400D01*
D77*
X61615200Y-59337300D02*
X61615200Y-59103098D01*
D78*
X72545000Y-60960000D02*
X71856600Y-60960000D01*
D79*
X70612000Y-52832000D02*
X70485000Y-52705000D01*
D78*
X106942000Y-112014000D02*
X105571000Y-112014000D01*
X63858200Y-65080300D02*
X63858200Y-64098800D01*
X62885200Y-57349091D02*
X62331054Y-56794946D01*
X105156000Y-112429000D02*
X104240750Y-112429000D01*
X106527000Y-67344000D02*
X106942000Y-66929000D01*
X106942000Y-96901000D02*
X105571000Y-96901000D01*
X105164000Y-61877000D02*
X104269600Y-61877000D01*
D77*
X67791300Y-65072100D02*
X67191771Y-65072100D01*
X61643200Y-60353300D02*
X61643200Y-60093800D01*
D78*
X105571000Y-96901000D02*
X105156000Y-97316000D01*
D77*
X68353700Y-55852300D02*
X68402200Y-55803800D01*
D78*
X105664000Y-99951000D02*
X104771000Y-99951000D01*
X104142000Y-99568000D02*
X104013000Y-99568000D01*
X103761600Y-72997000D02*
X103733600Y-73025000D01*
X64082200Y-56999800D02*
X64082200Y-56101300D01*
X67682200Y-56999800D02*
X67682200Y-55866300D01*
X49028800Y-35712400D02*
X49966600Y-35712400D01*
X105664000Y-72997000D02*
X104648000Y-72997000D01*
X50900000Y-36933600D02*
X51533600Y-36933600D01*
X103761600Y-57757000D02*
X103708200Y-57810400D01*
D77*
X61615200Y-59103098D02*
X61437133Y-58925031D01*
D78*
X57783700Y-64850781D02*
X57783700Y-66314100D01*
X67682200Y-63874800D02*
X67682200Y-62941084D01*
D79*
X77024000Y-54483000D02*
X77603000Y-55062000D01*
D78*
X63244700Y-60237300D02*
X62269300Y-60237300D01*
X61826200Y-59337300D02*
X62334200Y-59845300D01*
X103888000Y-115187000D02*
X103886000Y-115189000D01*
X104646000Y-70100000D02*
X103813800Y-70100000D01*
X106950000Y-62230000D02*
X105517000Y-62230000D01*
D77*
X67668200Y-55852300D02*
X68353700Y-55852300D01*
D78*
X47653200Y-34749200D02*
X47733400Y-34669000D01*
X106950000Y-92202000D02*
X105517000Y-92202000D01*
X45647000Y-33479200D02*
X45649000Y-33477200D01*
D77*
X104648000Y-118082000D02*
X103908800Y-118082000D01*
D78*
X63858200Y-65080300D02*
X64047122Y-65080300D01*
D77*
X72547600Y-61036200D02*
X71932800Y-61036200D01*
X71932800Y-61036200D02*
X71856600Y-60960000D01*
D78*
X105571000Y-112014000D02*
X105156000Y-112429000D01*
X105664000Y-69979000D02*
X104771000Y-69979000D01*
D79*
X77603000Y-55062000D02*
X78740000Y-55062000D01*
D78*
X105156000Y-67344000D02*
X106527000Y-67344000D01*
X104240750Y-112429000D02*
X104215306Y-112403556D01*
X103813800Y-70100000D02*
X103809800Y-70104000D01*
X105890000Y-72771000D02*
X105664000Y-72997000D01*
D77*
X105890000Y-102743000D02*
X105664000Y-102969000D01*
D78*
X104269600Y-106962000D02*
X104267000Y-106959400D01*
X105164000Y-106962000D02*
X104269600Y-106962000D01*
X63858200Y-64098800D02*
X64082200Y-63874800D01*
X62885200Y-58237300D02*
X62885200Y-57349091D01*
X104244200Y-46637000D02*
X104241600Y-46634400D01*
X61671200Y-55527300D02*
X61671200Y-55045600D01*
X70824544Y-60237300D02*
X70119700Y-60237300D01*
X106942000Y-51689000D02*
X105571000Y-51689000D01*
X105571000Y-51689000D02*
X105156000Y-52104000D01*
X105164000Y-46637000D02*
X104244200Y-46637000D01*
X105156000Y-52104000D02*
X104168000Y-52104000D01*
X85326000Y-71088000D02*
X84374000Y-71088000D01*
D77*
X64442400Y-55852000D02*
X64617600Y-55676800D01*
D78*
X71856600Y-60960000D02*
X71547244Y-60960000D01*
D77*
X105664000Y-118082000D02*
X104648000Y-118082000D01*
D78*
X104648000Y-100074000D02*
X104142000Y-99568000D01*
X104648000Y-72997000D02*
X103761600Y-72997000D01*
X104168000Y-97316000D02*
X104140000Y-97344000D01*
D80*
%TO.N,VCC*%
X126085600Y-68326000D02*
X126088200Y-68323400D01*
X126085600Y-69847400D02*
X127409000Y-69847400D01*
X126085600Y-69847400D02*
X126085600Y-68326000D01*
X126085600Y-69824600D02*
X127231200Y-68679000D01*
X126085600Y-69847400D02*
X126085600Y-69824600D01*
D81*
%TO.N,/STEPPER DRIVER Y/STEPPER_COIL_B2*%
X98333400Y-39319600D02*
X96995480Y-39319600D01*
X94795960Y-41519120D02*
X90563880Y-41519120D01*
X96995480Y-39319600D02*
X95146940Y-41168140D01*
X57548272Y-50342164D02*
X49664378Y-58226058D01*
X83940347Y-48142653D02*
X64216732Y-48142653D01*
X64216732Y-48142653D02*
X62017221Y-50342164D01*
X49664378Y-64068044D02*
X43827822Y-69904600D01*
X95793400Y-39319600D02*
X95793400Y-40521681D01*
X95793400Y-40521681D02*
X95146940Y-41168140D01*
X43827822Y-69904600D02*
X42305900Y-69904600D01*
X90563880Y-41519120D02*
X83940347Y-48142653D01*
X62017221Y-50342164D02*
X57548272Y-50342164D01*
X95793400Y-39319600D02*
X100873400Y-39319600D01*
X95146940Y-41168140D02*
X94795960Y-41519120D01*
X49664378Y-58226058D02*
X49664378Y-64068044D01*
%TO.N,/STEPPER DRIVER Y/STEPPER_COIL_B1*%
X42305900Y-73714600D02*
X43128400Y-73714600D01*
D82*
X105953408Y-39319606D02*
X108493408Y-39319606D01*
D81*
X105953400Y-39319600D02*
X103413400Y-39319600D01*
X91666369Y-43718631D02*
X101554369Y-43718631D01*
X51863898Y-59137116D02*
X58459339Y-52541675D01*
X43128400Y-73714600D02*
X51863898Y-64979102D01*
X85042836Y-50342164D02*
X91666369Y-43718631D01*
X51863898Y-64979102D02*
X51863898Y-59137116D01*
X62928288Y-52541675D02*
X65127799Y-50342164D01*
X101554369Y-43718631D02*
X105953400Y-39319600D01*
X58459339Y-52541675D02*
X62928288Y-52541675D01*
X65127799Y-50342164D02*
X85042836Y-50342164D01*
%TO.N,/STEPPER DRIVER Y/STEPPER_COIL_A2*%
X55726138Y-45943142D02*
X58511605Y-45943142D01*
X83093400Y-39319600D02*
X85633400Y-39319600D01*
X77644852Y-43566067D02*
X81891319Y-39319600D01*
X83093400Y-39319600D02*
X80553400Y-39319600D01*
X42305900Y-59803769D02*
X45265356Y-56844313D01*
X60711116Y-43743631D02*
X65220538Y-43743631D01*
X45265356Y-56403924D02*
X55726138Y-45943142D01*
X81891319Y-39319600D02*
X83093400Y-39319600D01*
X65220538Y-43743631D02*
X65398102Y-43566067D01*
X65398102Y-43566067D02*
X77644852Y-43566067D01*
X58511605Y-45943142D02*
X60711116Y-43743631D01*
X42305900Y-62284600D02*
X42305900Y-59803769D01*
X45265356Y-56844313D02*
X45265356Y-56403924D01*
%TO.N,/STEPPER DRIVER Y/STEPPER_COIL_A1*%
X61622183Y-45943142D02*
X59422672Y-48142653D01*
X44305900Y-66094600D02*
X42305900Y-66094600D01*
X88173400Y-39319600D02*
X93253400Y-39319600D01*
X59422672Y-48142653D02*
X56637205Y-48142653D01*
X79365898Y-45943142D02*
X61622183Y-45943142D01*
X47464867Y-62935633D02*
X44305900Y-66094600D01*
X56637205Y-48142653D02*
X47464867Y-57314991D01*
X90713400Y-39319600D02*
X89375480Y-39319600D01*
X87018940Y-41676140D02*
X83632900Y-41676140D01*
X83632900Y-41676140D02*
X79365898Y-45943142D01*
X88173400Y-39319600D02*
X88173400Y-40521681D01*
X89375480Y-39319600D02*
X87018940Y-41676140D01*
X47464867Y-57314991D02*
X47464867Y-62935633D01*
X88173400Y-40521681D02*
X87018940Y-41676140D01*
%TO.N,/STEPPER DRIVER X/STEPPER_COIL_B2*%
X56689471Y-41544120D02*
X58888991Y-39344600D01*
X43069510Y-52124600D02*
X44679990Y-50514120D01*
X44933990Y-50514120D02*
X53903990Y-41544120D01*
X60858400Y-39344600D02*
X63398400Y-39344600D01*
X42305900Y-52124600D02*
X43069510Y-52124600D01*
X58888991Y-39344600D02*
X60858400Y-39344600D01*
X44679990Y-50514120D02*
X44933990Y-50514120D01*
X53903990Y-41544120D02*
X56689471Y-41544120D01*
X60858400Y-39344600D02*
X58318400Y-39344600D01*
%TO.N,/STEPPER DRIVER X/STEPPER_COIL_B1*%
X43065845Y-55492857D02*
X43065854Y-55492848D01*
X43105927Y-55452761D02*
X43105927Y-55198761D01*
X42869583Y-55934600D02*
X43065845Y-55738338D01*
X43065854Y-55492848D02*
X43065854Y-55492834D01*
X57600538Y-43743631D02*
X59800049Y-41544120D01*
X45845057Y-52713631D02*
X54815057Y-43743631D01*
X43065845Y-55738338D02*
X43065845Y-55492857D01*
X68478400Y-39344600D02*
X71018400Y-39344600D01*
X45591057Y-52713631D02*
X45845057Y-52713631D01*
X68478400Y-39344600D02*
X65938400Y-39344600D01*
X59800049Y-41544120D02*
X64309471Y-41544120D01*
X43065854Y-55492834D02*
X43105927Y-55452761D01*
X42305900Y-55934600D02*
X42869583Y-55934600D01*
X64309471Y-41544120D02*
X66508991Y-39344600D01*
X43105927Y-55198761D02*
X45591057Y-52713631D01*
X54815057Y-43743631D02*
X57600538Y-43743631D01*
X66508991Y-39344600D02*
X68478400Y-39344600D01*
%TO.N,/STEPPER DRIVER X/STEPPER_COIL_A2*%
X42305900Y-44504600D02*
X42305900Y-42657100D01*
X45618400Y-39344600D02*
X43078400Y-39344600D01*
X45618400Y-39344600D02*
X48158400Y-39344600D01*
X42305900Y-42657100D02*
X45618400Y-39344600D01*
%TO.N,/STEPPER DRIVER X/STEPPER_COIL_A1*%
X42305900Y-48314600D02*
X43066319Y-48314600D01*
X43066319Y-48314600D02*
X52036319Y-39344600D01*
X52036319Y-39344600D02*
X53238400Y-39344600D01*
X53238400Y-39344600D02*
X55778400Y-39344600D01*
X53238400Y-39344600D02*
X50698400Y-39344600D01*
%TO.N,/STEPPER DRIVER Z/STEPPER_COIL_B2*%
X73180122Y-113058122D02*
X78011589Y-117889589D01*
X95767900Y-123162900D02*
X98307900Y-123162900D01*
X86877405Y-120963380D02*
X93568380Y-120963380D01*
X83803614Y-117889589D02*
X86877405Y-120963380D01*
X78011589Y-117889589D02*
X83803614Y-117889589D01*
X98307900Y-123162900D02*
X93227900Y-123162900D01*
X93568380Y-120963380D02*
X95767900Y-123162900D01*
X42300400Y-96572900D02*
X43059004Y-96572900D01*
X59544226Y-113058122D02*
X73180122Y-113058122D01*
X43059004Y-96572900D02*
X59544226Y-113058122D01*
%TO.N,/STEPPER DRIVER Z/STEPPER_COIL_B1*%
X42975071Y-100382900D02*
X57849804Y-115257633D01*
X82892547Y-120089100D02*
X85966347Y-123162900D01*
X42300400Y-100382900D02*
X42975071Y-100382900D01*
X88147900Y-123162900D02*
X85607900Y-123162900D01*
X57849804Y-115257633D02*
X71378211Y-115257633D01*
X85966347Y-123162900D02*
X88147900Y-123162900D01*
X76209678Y-120089100D02*
X82892547Y-120089100D01*
X71378211Y-115257633D02*
X76209678Y-120089100D01*
X88147900Y-123162900D02*
X90687900Y-123162900D01*
%TO.N,/STEPPER DRIVER Z/STEPPER_COIL_A2*%
X42300400Y-88952900D02*
X42300400Y-89798400D01*
X111007900Y-123162900D02*
X113547900Y-123162900D01*
X61366374Y-108659100D02*
X80794281Y-108659100D01*
X43205069Y-89798400D02*
X45299920Y-91893251D01*
X103094364Y-119732801D02*
X107577801Y-119732801D01*
X80794281Y-108659100D02*
X88699521Y-116564340D01*
X45299920Y-91893251D02*
X45299920Y-92592646D01*
X42300400Y-89798400D02*
X43205069Y-89798400D01*
X107577801Y-119732801D02*
X111007900Y-123162900D01*
X45299920Y-92592646D02*
X47458035Y-94750762D01*
X47458035Y-94750762D02*
X61366374Y-108659100D01*
X99925903Y-116564340D02*
X103094364Y-119732801D01*
X111007900Y-123162900D02*
X108467900Y-123162900D01*
X88699521Y-116564340D02*
X99925903Y-116564340D01*
%TO.N,/STEPPER DRIVER Z/STEPPER_COIL_A1*%
X87788463Y-118763860D02*
X98913245Y-118763860D01*
X42300400Y-94373380D02*
X43970076Y-94373380D01*
X102695900Y-122470900D02*
X103387900Y-123162900D01*
X60455307Y-110858611D02*
X79883214Y-110858611D01*
X102620285Y-122470900D02*
X102695900Y-122470900D01*
X43970076Y-94373380D02*
X45258524Y-95661829D01*
X79883214Y-110858611D02*
X87788463Y-118763860D01*
X45258524Y-95661829D02*
X60455307Y-110858611D01*
X101539900Y-122470900D02*
X100847900Y-123162900D01*
X103387900Y-123162900D02*
X105927900Y-123162900D01*
X98913245Y-118763860D02*
X102620285Y-122470900D01*
X42300400Y-92762900D02*
X42300400Y-94373380D01*
X102695900Y-122470900D02*
X101539900Y-122470900D01*
%TO.N,/STEPPER DRIVER A/STEPPER_COIL_B2*%
X53574146Y-120988380D02*
X54248817Y-120988380D01*
X56448337Y-123187900D02*
X58417900Y-123187900D01*
X58417900Y-123187900D02*
X60957900Y-123187900D01*
X54248817Y-120988380D02*
X56448337Y-123187900D01*
X42300400Y-114352900D02*
X46938666Y-114352900D01*
X58417900Y-123187900D02*
X55877900Y-123187900D01*
X46938666Y-114352900D02*
X53574146Y-120988380D01*
%TO.N,/STEPPER DRIVER A/STEPPER_COIL_B1*%
X45772900Y-118162900D02*
X50797900Y-123187900D01*
X50797900Y-123187900D02*
X53337746Y-123187900D01*
X42300400Y-118162900D02*
X45772900Y-118162900D01*
X50797900Y-123187900D02*
X48257900Y-123187900D01*
%TO.N,/STEPPER DRIVER A/STEPPER_COIL_A2*%
X56938737Y-117457144D02*
X67927144Y-117457144D01*
X67927144Y-117457144D02*
X73657900Y-123187900D01*
X42300400Y-106732900D02*
X46214493Y-106732900D01*
X73657900Y-123187900D02*
X71117900Y-123187900D01*
X73657900Y-123187900D02*
X76197900Y-123187900D01*
X46214493Y-106732900D02*
X56938737Y-117457144D01*
%TO.N,/STEPPER DRIVER A/STEPPER_COIL_A1*%
X42300400Y-110542900D02*
X46239244Y-110542900D01*
X46239244Y-110542900D02*
X54485213Y-118788869D01*
X56027670Y-119656655D02*
X62506655Y-119656655D01*
X62506655Y-119656655D02*
X66037900Y-123187900D01*
X54485213Y-118788869D02*
X55159884Y-118788869D01*
X66037900Y-123187900D02*
X68577900Y-123187900D01*
X66037900Y-123187900D02*
X63497900Y-123187900D01*
X55159884Y-118788869D02*
X56027670Y-119656655D01*
D77*
%TO.N,/Input_Protection/reverse_polarity_protection*%
X120310800Y-70517500D02*
X120800500Y-70027800D01*
X120800500Y-70027800D02*
X122405200Y-70027800D01*
X122405200Y-70027800D02*
X122585600Y-69847400D01*
X120310800Y-72243600D02*
X120310800Y-70517500D01*
D78*
%TO.N,/STEPPER_Y_CSn*%
X69044803Y-75409553D02*
X69044812Y-75409544D01*
X59741989Y-78253975D02*
X60399387Y-77596577D01*
X64033767Y-79828011D02*
X64016245Y-79810489D01*
X105950000Y-78690000D02*
X104829511Y-79810489D01*
X62477631Y-77596577D02*
X62798730Y-77275478D01*
X64016245Y-79810489D02*
X63745755Y-79810489D01*
X66599227Y-75409553D02*
X69044803Y-75409553D01*
X63728233Y-79828011D02*
X60270011Y-79828011D01*
X59741989Y-79299989D02*
X59741989Y-78253975D01*
X71519022Y-62632933D02*
X70723389Y-61837300D01*
X70970189Y-73620279D02*
X70970189Y-69333989D01*
X75135108Y-76715588D02*
X68496212Y-76715588D01*
X68496212Y-76715588D02*
X67233800Y-77978000D01*
X78228311Y-78594333D02*
X78228311Y-77889007D01*
X60399387Y-77596577D02*
X62477631Y-77596577D01*
X67233800Y-78990236D02*
X66396025Y-79828011D01*
X104829511Y-79810489D02*
X79444467Y-79810489D01*
X63745755Y-79810489D02*
X63728233Y-79828011D01*
X69180924Y-75409544D02*
X70970189Y-73620279D01*
X79444467Y-79810489D02*
X78228311Y-78594333D01*
X67233800Y-77978000D02*
X67233800Y-78990236D01*
X70970189Y-69333989D02*
X71228678Y-69075500D01*
X76961760Y-76622456D02*
X75228240Y-76622456D01*
X78228311Y-77889007D02*
X76961760Y-76622456D01*
X64733302Y-77275478D02*
X66599227Y-75409553D01*
X66396025Y-79828011D02*
X64033767Y-79828011D01*
X71228678Y-69075500D02*
X71228678Y-63732011D01*
X69044812Y-75409544D02*
X69180924Y-75409544D01*
X75228240Y-76622456D02*
X75135108Y-76715588D01*
X71228678Y-63732011D02*
X71519022Y-63441667D01*
X71519022Y-63441667D02*
X71519022Y-62632933D01*
X70723389Y-61837300D02*
X70119700Y-61837300D01*
X60270011Y-79828011D02*
X59741989Y-79299989D01*
X62798730Y-77275478D02*
X64733302Y-77275478D01*
%TO.N,/STEPPER_SCK*%
X57572890Y-76014822D02*
X57649090Y-75938622D01*
X67030600Y-73736200D02*
X69011800Y-71755000D01*
X73276000Y-81534000D02*
X49022000Y-81534000D01*
X53361430Y-76091022D02*
X55406310Y-76091022D01*
X80530000Y-83795000D02*
X78631978Y-81896978D01*
X56328290Y-76141822D02*
X56379090Y-76091022D01*
X56963290Y-76014822D02*
X57572890Y-76014822D01*
X77405747Y-81896978D02*
X77405738Y-81896969D01*
X46990000Y-79502000D02*
X46990000Y-78305964D01*
X55406310Y-76091022D02*
X55457110Y-76141822D01*
X55457110Y-76141822D02*
X56328290Y-76141822D01*
X113570000Y-80486000D02*
X112395000Y-81661000D01*
X57649090Y-75938622D02*
X58131690Y-75938622D01*
X58207890Y-75862422D02*
X59147690Y-75862422D01*
X69011800Y-71755000D02*
X69011800Y-67947000D01*
X58131690Y-75938622D02*
X58207890Y-75862422D01*
X59147690Y-75862422D02*
X59367189Y-75642923D01*
X46990000Y-78305964D02*
X48112742Y-77183222D01*
X82664000Y-81661000D02*
X80530000Y-83795000D01*
X76095000Y-78715000D02*
X78703422Y-81323422D01*
X52269230Y-77183222D02*
X53361430Y-76091022D01*
X59367189Y-75642923D02*
X64057077Y-75642923D01*
X56379090Y-76091022D02*
X56887090Y-76091022D01*
X65963800Y-73736200D02*
X67030600Y-73736200D01*
X77405738Y-81896969D02*
X45103031Y-81896969D01*
X49022000Y-81534000D02*
X46990000Y-79502000D01*
X112395000Y-81661000D02*
X82664000Y-81661000D01*
X48112742Y-77183222D02*
X52269230Y-77183222D01*
X78631978Y-81896978D02*
X77405747Y-81896978D01*
X45103031Y-81896969D02*
X43180000Y-83820000D01*
X78703422Y-81323422D02*
X110936578Y-81323422D01*
X56887090Y-76091022D02*
X56963290Y-76014822D01*
X113570000Y-78690000D02*
X113570000Y-80486000D01*
X110936578Y-81323422D02*
X113570000Y-78690000D01*
X76095000Y-78715000D02*
X73276000Y-81534000D01*
X64057077Y-75642923D02*
X65963800Y-73736200D01*
%TO.N,/STEPPER_MOSI*%
X114031025Y-77576989D02*
X114683011Y-78228975D01*
X56514335Y-76417533D02*
X57022335Y-76417533D01*
X49403000Y-78347268D02*
X50240535Y-77509733D01*
X53445875Y-76468333D02*
X56463535Y-76468333D01*
X69645620Y-66394420D02*
X69545200Y-66294000D01*
X66069956Y-74091800D02*
X68605400Y-74091800D01*
X49403000Y-79883000D02*
X49403000Y-78347268D01*
X82192044Y-84672956D02*
X81226080Y-84672956D01*
X73555000Y-78715000D02*
X74574879Y-77695121D01*
X56463535Y-76468333D02*
X56514335Y-76417533D01*
X50727489Y-81207489D02*
X49403000Y-79883000D01*
X114122200Y-79711836D02*
X114122200Y-80395569D01*
X77208011Y-78959301D02*
X79245621Y-80996911D01*
X73555000Y-78715000D02*
X71062511Y-81207489D01*
X77270489Y-82223489D02*
X47316511Y-82223489D01*
X58343135Y-76188933D02*
X59282935Y-76188933D01*
X80068975Y-84908011D02*
X79833920Y-84672956D01*
X69645620Y-73051580D02*
X69645620Y-66394420D01*
X52404475Y-77509733D02*
X53445875Y-76468333D01*
X79245621Y-80996911D02*
X108723089Y-80996911D01*
X75633975Y-77601989D02*
X76556025Y-77601989D01*
X84877480Y-81987520D02*
X83070000Y-83795000D01*
X79833920Y-84672956D02*
X79719956Y-84672956D01*
X108723089Y-80996911D02*
X111030000Y-78690000D01*
X50240535Y-77509733D02*
X52404475Y-77509733D01*
X71062511Y-81207489D02*
X50727489Y-81207489D01*
X79719956Y-84672956D02*
X77270489Y-82223489D01*
X114683011Y-79151025D02*
X114122200Y-79711836D01*
X68605400Y-74091800D02*
X69645620Y-73051580D01*
X58266935Y-76265133D02*
X58343135Y-76188933D01*
X112143011Y-77576989D02*
X114031025Y-77576989D01*
X75540843Y-77695121D02*
X75633975Y-77601989D01*
X64192322Y-75969434D02*
X66069956Y-74091800D01*
X74574879Y-77695121D02*
X75540843Y-77695121D01*
X76556025Y-77601989D02*
X77208011Y-78253975D01*
X57784335Y-76265133D02*
X58266935Y-76265133D01*
X59282935Y-76188933D02*
X59502434Y-75969434D01*
X83070000Y-83795000D02*
X82192044Y-84672956D01*
X111030000Y-78690000D02*
X112143011Y-77576989D01*
X77208011Y-78253975D02*
X77208011Y-78959301D01*
X81226080Y-84672956D02*
X80991025Y-84908011D01*
X57022335Y-76417533D02*
X57098535Y-76341333D01*
X47316511Y-82223489D02*
X45720000Y-83820000D01*
X57708135Y-76341333D02*
X57784335Y-76265133D01*
X57098535Y-76341333D02*
X57708135Y-76341333D01*
X80991025Y-84908011D02*
X80068975Y-84908011D01*
X114122200Y-80395569D02*
X112530249Y-81987520D01*
X112530249Y-81987520D02*
X84877480Y-81987520D01*
X59502434Y-75969434D02*
X64192322Y-75969434D01*
X114683011Y-78228975D02*
X114683011Y-79151025D01*
%TO.N,/STEPPER_MISO*%
X66193501Y-74430011D02*
X64327567Y-76295945D01*
X79380866Y-80670400D02*
X77534522Y-78824056D01*
X114166270Y-77250478D02*
X109929522Y-77250478D01*
X108490000Y-78690000D02*
X106509600Y-80670400D01*
X77089000Y-82550000D02*
X79538467Y-84999467D01*
X106509600Y-80670400D02*
X79380866Y-80670400D01*
X71015000Y-79917081D02*
X71015000Y-78715000D01*
X77534522Y-78824056D02*
X77534522Y-78118730D01*
X51943000Y-78432964D02*
X51943000Y-79629000D01*
X69990656Y-68928254D02*
X69990656Y-73214544D01*
X72361390Y-77368610D02*
X71015000Y-78715000D01*
X75498730Y-77275478D02*
X75405598Y-77368610D01*
X115009522Y-78093730D02*
X114166270Y-77250478D01*
X77534522Y-78118730D02*
X76691270Y-77275478D01*
X79698675Y-84999467D02*
X79933730Y-85234522D01*
X56827380Y-76744044D02*
X56776580Y-76794844D01*
X87083600Y-82321400D02*
X112658125Y-82321400D01*
X70119700Y-63037300D02*
X70119700Y-68799210D01*
X70051103Y-80880978D02*
X71015000Y-79917081D01*
X54375485Y-77601989D02*
X52773975Y-77601989D01*
X56776580Y-76794844D02*
X55182630Y-76794844D01*
X59418180Y-76515444D02*
X58478380Y-76515444D01*
X48260000Y-83820000D02*
X49530000Y-82550000D01*
X85610000Y-83795000D02*
X87083600Y-82321400D01*
X114448711Y-80530814D02*
X114448711Y-79847081D01*
X68775189Y-74430011D02*
X66193501Y-74430011D01*
X81361325Y-84999467D02*
X84405533Y-84999467D01*
X109929522Y-77250478D02*
X108490000Y-78690000D01*
X57233780Y-76667844D02*
X57157580Y-76744044D01*
X57843380Y-76667844D02*
X57233780Y-76667844D01*
X51943000Y-79629000D02*
X53194978Y-80880978D01*
X55182630Y-76794844D02*
X54375485Y-77601989D01*
X57919580Y-76591644D02*
X57843380Y-76667844D01*
X64327567Y-76295945D02*
X59637679Y-76295945D01*
X69990656Y-73214544D02*
X68775189Y-74430011D01*
X79538467Y-84999467D02*
X79698675Y-84999467D01*
X79933730Y-85234522D02*
X81126270Y-85234522D01*
X58402180Y-76591644D02*
X57919580Y-76591644D01*
X115009522Y-79286270D02*
X115009522Y-78093730D01*
X76691270Y-77275478D02*
X75498730Y-77275478D01*
X58478380Y-76515444D02*
X58402180Y-76591644D01*
X81126270Y-85234522D02*
X81361325Y-84999467D01*
X53194978Y-80880978D02*
X70051103Y-80880978D01*
X49530000Y-82550000D02*
X77089000Y-82550000D01*
X59637679Y-76295945D02*
X59418180Y-76515444D01*
X57157580Y-76744044D02*
X56827380Y-76744044D01*
X52773975Y-77601989D02*
X51943000Y-78432964D01*
X112658125Y-82321400D02*
X114448711Y-80530814D01*
X84405533Y-84999467D02*
X85610000Y-83795000D01*
X114448711Y-79847081D02*
X115009522Y-79286270D01*
X75405598Y-77368610D02*
X72361390Y-77368610D01*
X70119700Y-68799210D02*
X69990656Y-68928254D01*
%TO.N,/STEPPER_Y_STEP*%
X106851000Y-71122000D02*
X107230000Y-71501000D01*
X104648000Y-71122000D02*
X106851000Y-71122000D01*
X103410000Y-76105000D02*
X102616000Y-75311000D01*
X103378000Y-70993000D02*
X104519000Y-70993000D01*
X102616000Y-75311000D02*
X102616000Y-71755000D01*
X102616000Y-71755000D02*
X103378000Y-70993000D01*
X103410000Y-78690000D02*
X103410000Y-76105000D01*
%TO.N,/STEPPER_Y_DIR*%
X100870000Y-72616115D02*
X103146799Y-70339316D01*
X104017174Y-68959000D02*
X105664000Y-68959000D01*
X100870000Y-78690000D02*
X100870000Y-72616115D01*
X103146799Y-70339316D02*
X103146799Y-69829375D01*
X105664000Y-68959000D02*
X106936000Y-70231000D01*
X103146799Y-69829375D02*
X104017174Y-68959000D01*
%TO.N,/STEPPER_X_CSn*%
X69045679Y-75083033D02*
X70643678Y-73485034D01*
X71192511Y-62768178D02*
X70661633Y-62237300D01*
X66463982Y-75083042D02*
X68909558Y-75083042D01*
X68909567Y-75083033D02*
X69045679Y-75083033D01*
X58113870Y-77320866D02*
X58190070Y-77244666D01*
X70902167Y-63596766D02*
X71192511Y-63306422D01*
X59908169Y-76948967D02*
X64598057Y-76948967D01*
X70902167Y-68940255D02*
X70902167Y-63596766D01*
X57023000Y-77802136D02*
X57504270Y-77320866D01*
X59563000Y-80137000D02*
X57404000Y-80137000D01*
X66962044Y-80227956D02*
X59653956Y-80227956D01*
X70661633Y-62237300D02*
X70119700Y-62237300D01*
X57404000Y-80137000D02*
X57023000Y-79756000D01*
X57023000Y-79756000D02*
X57023000Y-77802136D01*
X58748870Y-77168466D02*
X59688670Y-77168466D01*
X58672670Y-77244666D02*
X58748870Y-77168466D01*
X59688670Y-77168466D02*
X59908169Y-76948967D01*
X68909558Y-75083042D02*
X68909567Y-75083033D01*
X57504270Y-77320866D02*
X58113870Y-77320866D01*
X71192511Y-63306422D02*
X71192511Y-62768178D01*
X64598057Y-76948967D02*
X66463982Y-75083042D01*
X68475000Y-78715000D02*
X66962044Y-80227956D01*
X70643678Y-69198744D02*
X70902167Y-68940255D01*
X59653956Y-80227956D02*
X59563000Y-80137000D01*
X70643678Y-73485034D02*
X70643678Y-69198744D01*
X58190070Y-77244666D02*
X58672670Y-77244666D01*
%TO.N,/STEPPER_X_STEP*%
X74999863Y-76389077D02*
X75092995Y-76295945D01*
X77097005Y-76295945D02*
X77190137Y-76389077D01*
X102543489Y-68950373D02*
X102543489Y-55972533D01*
X104648000Y-55882000D02*
X106978000Y-55882000D01*
X102634022Y-55882000D02*
X104648000Y-55882000D01*
X68260923Y-76389077D02*
X74999863Y-76389077D01*
X95104785Y-76389077D02*
X102543489Y-68950373D01*
X75092995Y-76295945D02*
X77097005Y-76295945D01*
X102543489Y-55972533D02*
X102634022Y-55882000D01*
X65935000Y-78715000D02*
X68260923Y-76389077D01*
X77190137Y-76389077D02*
X95104785Y-76389077D01*
%TO.N,/STEPPER_X_DIR*%
X105664000Y-53719000D02*
X106809000Y-54864000D01*
X94969540Y-76062566D02*
X102216978Y-68815128D01*
X63395000Y-78715000D02*
X64217292Y-78715000D01*
X64217292Y-78715000D02*
X66869717Y-76062575D01*
X102216978Y-54755022D02*
X103253000Y-53719000D01*
X103253000Y-53719000D02*
X105664000Y-53719000D01*
X66869717Y-76062575D02*
X74864609Y-76062575D01*
X74864609Y-76062575D02*
X74957750Y-75969434D01*
X102216978Y-68815128D02*
X102216978Y-54755022D01*
X74957750Y-75969434D02*
X77232250Y-75969434D01*
X77325382Y-76062566D02*
X94969540Y-76062566D01*
X77232250Y-75969434D02*
X77325382Y-76062566D01*
%TO.N,/STEPPER_Z_CSn*%
X69901989Y-79475411D02*
X68822933Y-80554467D01*
X79487022Y-80314800D02*
X77901800Y-78729578D01*
X114198400Y-82651600D02*
X115336033Y-81513967D01*
X75363485Y-76948967D02*
X75270353Y-77042099D01*
X70575656Y-63461521D02*
X70866000Y-63171177D01*
X58613625Y-76841955D02*
X59553425Y-76841955D01*
X70866000Y-62903423D02*
X70599877Y-62637300D01*
X57978625Y-76994355D02*
X58054825Y-76918155D01*
X66328746Y-74756522D02*
X68910434Y-74756522D01*
X89293400Y-82651600D02*
X114198400Y-82651600D01*
X77901800Y-78024252D02*
X76826515Y-76948967D01*
X68910434Y-74756522D02*
X70317167Y-73349789D01*
X70599877Y-62637300D02*
X70119700Y-62637300D01*
X70575656Y-68805010D02*
X70575656Y-63461521D01*
X55027467Y-80554467D02*
X54483000Y-80010000D01*
X115336033Y-77744033D02*
X114300000Y-76708000D01*
X107063011Y-78229989D02*
X107063011Y-79151025D01*
X57369025Y-76994355D02*
X57978625Y-76994355D01*
X57292825Y-77070555D02*
X57369025Y-76994355D01*
X77901800Y-78729578D02*
X77901800Y-78024252D01*
X54483000Y-77978000D02*
X55339645Y-77121355D01*
X58054825Y-76918155D02*
X58537425Y-76918155D01*
X70866000Y-63171177D02*
X70866000Y-62903423D01*
X114300000Y-76708000D02*
X108585000Y-76708000D01*
X70317167Y-73349789D02*
X70317167Y-69063499D01*
X70317167Y-69063499D02*
X70575656Y-68805010D01*
X68822933Y-80554467D02*
X55027467Y-80554467D01*
X59772924Y-76622456D02*
X64462812Y-76622456D01*
X54483000Y-80010000D02*
X54483000Y-77978000D01*
X115336033Y-81513967D02*
X115336033Y-77744033D01*
X105899236Y-80314800D02*
X79487022Y-80314800D01*
X108585000Y-76708000D02*
X107063011Y-78229989D01*
X58537425Y-76918155D02*
X58613625Y-76841955D01*
X75270353Y-77042099D02*
X70557301Y-77042099D01*
X107063011Y-79151025D02*
X105899236Y-80314800D01*
X57214689Y-77070555D02*
X57292825Y-77070555D01*
X64462812Y-76622456D02*
X66328746Y-74756522D01*
X59553425Y-76841955D02*
X59772924Y-76622456D01*
X55339645Y-77121355D02*
X57163889Y-77121355D01*
X57163889Y-77121355D02*
X57214689Y-77070555D01*
X69901989Y-77697411D02*
X69901989Y-79475411D01*
X76826515Y-76948967D02*
X75363485Y-76948967D01*
X88150000Y-83795000D02*
X89293400Y-82651600D01*
X70557301Y-77042099D02*
X69901989Y-77697411D01*
D77*
%TO.N,/STEPPER_Z_STEP*%
X106851000Y-101094000D02*
X107230000Y-101473000D01*
D78*
X102579533Y-91085065D02*
X102579533Y-99072159D01*
X95173730Y-85234522D02*
X96366270Y-85234522D01*
X91894467Y-84999467D02*
X94938675Y-84999467D01*
X96547630Y-85053162D02*
X102579533Y-91085065D01*
X94938675Y-84999467D02*
X95173730Y-85234522D01*
X90690000Y-83795000D02*
X91894467Y-84999467D01*
X102579533Y-99072159D02*
X104601374Y-101094000D01*
X96366270Y-85234522D02*
X96547630Y-85053162D01*
D77*
X104648000Y-101094000D02*
X106851000Y-101094000D01*
D78*
%TO.N,/STEPPER_Z_DIR*%
X93230000Y-83795000D02*
X94107956Y-84672956D01*
X96629180Y-84672956D02*
X102906044Y-90949820D01*
X95073920Y-84672956D02*
X95308975Y-84908011D01*
X102906044Y-90949820D02*
X102906044Y-97147420D01*
X102906044Y-97147420D02*
X104689624Y-98931000D01*
X95308975Y-84908011D02*
X96231025Y-84908011D01*
X94107956Y-84672956D02*
X95073920Y-84672956D01*
X96466080Y-84672956D02*
X96629180Y-84672956D01*
X105664000Y-98931000D02*
X106936000Y-100203000D01*
X104689624Y-98931000D02*
X105664000Y-98931000D01*
X96231025Y-84908011D02*
X96466080Y-84672956D01*
%TO.N,/STEPPER_A_CSn*%
X42748964Y-84963000D02*
X49657000Y-84963000D01*
X49657000Y-84963000D02*
X50800000Y-83820000D01*
X45163741Y-77592223D02*
X44501989Y-78253975D01*
X68482200Y-63874800D02*
X68445220Y-63911780D01*
X46643939Y-77592223D02*
X45163741Y-77592223D01*
X59012445Y-75535911D02*
X53454785Y-75535911D01*
X44501989Y-80923975D02*
X42066989Y-83358975D01*
X63016544Y-75316412D02*
X59231944Y-75316412D01*
X53454785Y-75535911D02*
X52133985Y-76856711D01*
X68445220Y-63911780D02*
X68445220Y-64391957D01*
X44501989Y-78253975D02*
X44501989Y-80923975D01*
X42066989Y-84281025D02*
X42748964Y-84963000D01*
X68427600Y-64409577D02*
X68427600Y-69905356D01*
X68427600Y-69905356D02*
X63016544Y-75316412D01*
X52133985Y-76856711D02*
X47379451Y-76856711D01*
X59231944Y-75316412D02*
X59012445Y-75535911D01*
X47379451Y-76856711D02*
X46643939Y-77592223D01*
X42066989Y-83358975D02*
X42066989Y-84281025D01*
X68445220Y-64391957D02*
X68427600Y-64409577D01*
%TO.N,/STEPPER_A_STEP*%
X79527995Y-86214055D02*
X81532005Y-86214055D01*
X81532005Y-86214055D02*
X81767060Y-85979000D01*
X103498870Y-116066602D02*
X104507602Y-116066602D01*
X96323255Y-86214055D02*
X101600000Y-91490800D01*
X79292940Y-85979000D02*
X79527995Y-86214055D01*
X55499000Y-85979000D02*
X79292940Y-85979000D01*
X101600000Y-91490800D02*
X101600000Y-114167732D01*
X101600000Y-114167732D02*
X103498870Y-116066602D01*
D77*
X107230000Y-116586000D02*
X106851000Y-116207000D01*
D78*
X94767995Y-86214055D02*
X96323255Y-86214055D01*
X53340000Y-83820000D02*
X55499000Y-85979000D01*
X94532940Y-85979000D02*
X94767995Y-86214055D01*
X81767060Y-85979000D02*
X94532940Y-85979000D01*
D77*
X106851000Y-116207000D02*
X104648000Y-116207000D01*
D78*
%TO.N,/STEPPER_A_DIR*%
X81631815Y-85652489D02*
X94668185Y-85652489D01*
X105664000Y-114044000D02*
X106936000Y-115316000D01*
X103884000Y-114044000D02*
X105664000Y-114044000D01*
X96458500Y-85887544D02*
X101926511Y-91355555D01*
X81396760Y-85887544D02*
X81631815Y-85652489D01*
X57712489Y-85652489D02*
X79428185Y-85652489D01*
X94668185Y-85652489D02*
X94903240Y-85887544D01*
X101926511Y-91355555D02*
X101926511Y-112086511D01*
X55880000Y-83820000D02*
X57712489Y-85652489D01*
X101926511Y-112086511D02*
X103884000Y-114044000D01*
X79428185Y-85652489D02*
X79663240Y-85887544D01*
X79663240Y-85887544D02*
X81396760Y-85887544D01*
X94903240Y-85887544D02*
X96458500Y-85887544D01*
%TO.N,GND*%
X104168000Y-51144000D02*
X104140000Y-51116000D01*
D77*
X118975500Y-68781300D02*
X119202200Y-68554600D01*
D78*
X60711200Y-55062000D02*
X60883800Y-54889400D01*
X56515000Y-99441000D02*
X56515000Y-98298000D01*
D77*
X60710000Y-36405000D02*
X61295000Y-36405000D01*
D78*
X72718200Y-68910800D02*
X75018200Y-66610800D01*
D77*
X64615000Y-54892000D02*
X64617600Y-54889400D01*
D78*
X104306546Y-107922000D02*
X104269647Y-107958899D01*
X69469000Y-54864000D02*
X69469000Y-54180200D01*
X79871000Y-70072000D02*
X80756000Y-70072000D01*
X104648000Y-117122000D02*
X104165892Y-117122000D01*
D80*
X46649000Y-126947000D02*
X46649000Y-128647000D01*
D78*
X103736200Y-56797000D02*
X103733600Y-56794400D01*
X104306200Y-66384000D02*
X104241600Y-66319400D01*
D77*
X74718200Y-66510800D02*
X75830800Y-66510800D01*
D78*
X104648000Y-56797000D02*
X105664000Y-56797000D01*
D77*
X88630000Y-67280000D02*
X88630000Y-68167000D01*
X60710000Y-32595000D02*
X61595000Y-32595000D01*
D80*
X50149000Y-129647000D02*
X52049000Y-129647000D01*
D78*
X72718200Y-69060800D02*
X72718200Y-70432200D01*
X72718200Y-69210800D02*
X74367200Y-70859800D01*
D77*
X60655200Y-59337300D02*
X60655200Y-59101061D01*
D78*
X69199127Y-61437300D02*
X69164287Y-61472140D01*
D77*
X118975500Y-70027800D02*
X118975500Y-68781300D01*
X99466400Y-54063400D02*
X99466400Y-54381400D01*
X60710000Y-33865000D02*
X61135000Y-33865000D01*
X60228200Y-61369300D02*
X60228200Y-61925742D01*
X60228200Y-61925742D02*
X60256067Y-61953609D01*
D78*
X107230000Y-68834000D02*
X108650000Y-68834000D01*
D77*
X108492000Y-98933000D02*
X108557000Y-98868000D01*
X86884000Y-60198000D02*
X86852000Y-60166000D01*
D78*
X60683200Y-59916000D02*
X60731400Y-59867800D01*
D77*
X98806000Y-53403000D02*
X99466400Y-54063400D01*
X67791300Y-66032100D02*
X67352900Y-66032100D01*
X75830800Y-66510800D02*
X75920600Y-66421000D01*
D78*
X104648000Y-102009000D02*
X103793000Y-102009000D01*
X74013000Y-65155600D02*
X75018200Y-66160800D01*
D77*
X74142600Y-60096400D02*
X74193400Y-60045600D01*
X73507600Y-61036200D02*
X74218800Y-61036200D01*
D78*
X104648000Y-72037000D02*
X103812400Y-72037000D01*
X104276740Y-47597000D02*
X104239839Y-47633901D01*
X85326000Y-70072000D02*
X83931000Y-70072000D01*
D77*
X61635000Y-35135000D02*
X62100000Y-35600000D01*
D78*
X104304000Y-92809000D02*
X104267000Y-92772000D01*
D77*
X60711200Y-57559300D02*
X60711200Y-57068600D01*
X60711200Y-57068600D02*
X60731400Y-57048400D01*
D78*
X74013000Y-64262000D02*
X74930000Y-64262000D01*
X107230000Y-114046000D02*
X108407200Y-114046000D01*
D77*
X63883200Y-54892000D02*
X64615000Y-54892000D01*
D78*
X107230000Y-53594000D02*
X108268042Y-53594000D01*
D80*
X50149000Y-129647000D02*
X48149000Y-129647000D01*
D78*
X104251340Y-62837000D02*
X104239839Y-62848501D01*
X74013000Y-64262000D02*
X74013000Y-65155600D01*
D83*
X90678000Y-94808000D02*
X90168500Y-94808000D01*
D77*
X64541700Y-66040300D02*
X64566800Y-66065400D01*
D78*
X105664000Y-72037000D02*
X104648000Y-72037000D01*
D77*
X63858200Y-66040300D02*
X64541700Y-66040300D01*
D78*
X103793000Y-102009000D02*
X103759000Y-102043000D01*
X60711200Y-55527300D02*
X60711200Y-55062000D01*
X76121625Y-58293000D02*
X76021948Y-58392677D01*
X105156000Y-66384000D02*
X104306200Y-66384000D01*
X104648000Y-102009000D02*
X105664000Y-102009000D01*
D77*
X67352900Y-66032100D02*
X67081400Y-65760600D01*
X60710000Y-35135000D02*
X61635000Y-35135000D01*
D78*
X108268042Y-53594000D02*
X108303000Y-53559042D01*
X61597200Y-70859733D02*
X62105200Y-70351733D01*
D77*
X104306200Y-111469000D02*
X104241600Y-111404400D01*
X68399300Y-54892300D02*
X68402200Y-54889400D01*
X85517000Y-66135000D02*
X84058000Y-66135000D01*
D78*
X98626200Y-47447200D02*
X98626200Y-48308800D01*
X72718200Y-70432200D02*
X73025000Y-70739000D01*
X104168000Y-96356000D02*
X104140000Y-96328000D01*
X104165892Y-117122000D02*
X103773495Y-116729603D01*
X105156000Y-96356000D02*
X104168000Y-96356000D01*
X84478500Y-90551000D02*
X85979000Y-90551000D01*
D80*
X48149000Y-129647000D02*
X45649000Y-129647000D01*
D78*
X82887000Y-70072000D02*
X83931000Y-70072000D01*
X60683200Y-60353300D02*
X60683200Y-59916000D01*
X74367200Y-70859800D02*
X74778200Y-70859800D01*
X105164000Y-62837000D02*
X104251340Y-62837000D01*
X105164000Y-47597000D02*
X104276740Y-47597000D01*
D83*
X90168500Y-94808000D02*
X88593020Y-96383480D01*
D77*
X61295000Y-36405000D02*
X62100000Y-35600000D01*
D78*
X105164000Y-107922000D02*
X104306546Y-107922000D01*
X104648000Y-117122000D02*
X105664000Y-117122000D01*
D77*
X88630000Y-60198000D02*
X86884000Y-60198000D01*
D78*
X107860000Y-113919000D02*
X107922000Y-113981000D01*
X98626200Y-48308800D02*
X98628200Y-48310800D01*
D77*
X73505000Y-60096400D02*
X74142600Y-60096400D01*
X61135000Y-33865000D02*
X62000000Y-33000000D01*
D78*
X61597200Y-72047281D02*
X61597200Y-70859733D01*
D80*
X46649000Y-128647000D02*
X45649000Y-129647000D01*
D78*
X104648000Y-56797000D02*
X103736200Y-56797000D01*
X105164000Y-92809000D02*
X104304000Y-92809000D01*
X78740000Y-54102000D02*
X79502000Y-54102000D01*
D77*
X60655200Y-59101061D02*
X60831230Y-58925031D01*
D78*
X103812400Y-72037000D02*
X103733600Y-71958200D01*
X70119700Y-61437300D02*
X69199127Y-61437300D01*
D80*
X51649000Y-126947000D02*
X50698511Y-126947000D01*
D77*
X67668200Y-54892300D02*
X68399300Y-54892300D01*
X107230000Y-98933000D02*
X108492000Y-98933000D01*
D78*
X108407200Y-114046000D02*
X108432600Y-114071400D01*
D77*
X105156000Y-111469000D02*
X104306200Y-111469000D01*
X87614000Y-69155000D02*
X87614000Y-70072000D01*
D78*
X105156000Y-51144000D02*
X104168000Y-51144000D01*
D77*
X61595000Y-32595000D02*
X62000000Y-33000000D01*
D78*
%TO.N,/RP2040 Microcontroller/GPIO10*%
X68882200Y-63874800D02*
X68882200Y-66797400D01*
X68882200Y-66797400D02*
X69011800Y-66927000D01*
%TO.N,/RP2040 Microcontroller/XIN*%
X75018200Y-70273000D02*
X75018200Y-69060800D01*
X75103200Y-71628000D02*
X75738200Y-70993000D01*
X71845533Y-62282956D02*
X71845533Y-63576912D01*
X72843700Y-71628000D02*
X75103200Y-71628000D01*
X71845533Y-63576912D02*
X71646022Y-63776423D01*
X71555189Y-70339489D02*
X72843700Y-71628000D01*
X71646022Y-63776423D02*
X71646022Y-64756956D01*
X71555189Y-64847789D02*
X71555189Y-70339489D01*
X71646022Y-64756956D02*
X71555189Y-64847789D01*
X75738200Y-70993000D02*
X75018200Y-70273000D01*
X70599877Y-61037300D02*
X71845533Y-62282956D01*
X70119700Y-61037300D02*
X70599877Y-61037300D01*
%TO.N,/RP2040 Microcontroller/1V1*%
X63244700Y-58637300D02*
X63207720Y-58600320D01*
X62600451Y-60637300D02*
X62483450Y-60754301D01*
X62122155Y-60754301D02*
X61507156Y-61369300D01*
X62227100Y-57559300D02*
X62331600Y-57454800D01*
X61671200Y-57559300D02*
X62227100Y-57559300D01*
X61188200Y-61369300D02*
X61188200Y-61662530D01*
X62483450Y-60754301D02*
X62122155Y-60754301D01*
X61507156Y-61369300D02*
X61188200Y-61369300D01*
X63207720Y-58600320D02*
X62712220Y-58600320D01*
X70119700Y-59837300D02*
X71667856Y-59837300D01*
X63244700Y-60637300D02*
X62600451Y-60637300D01*
X62712220Y-58600320D02*
X61671200Y-57559300D01*
X71667856Y-59837300D02*
X71805800Y-59975244D01*
D77*
X72545000Y-60096400D02*
X71926956Y-60096400D01*
D78*
X61188200Y-61662530D02*
X60866666Y-61984064D01*
D77*
X71926956Y-60096400D02*
X71805800Y-59975244D01*
D78*
%TO.N,/Stepper Isolation 1/step_ext*%
X117434844Y-71897820D02*
X117434844Y-86968512D01*
X118697314Y-88230982D02*
X118748114Y-88230982D01*
X115064000Y-56134000D02*
X117206667Y-58276667D01*
X117206667Y-71669643D02*
X117434844Y-71897820D01*
X117434844Y-86968512D02*
X118697314Y-88230982D01*
X117206667Y-58276667D02*
X117206667Y-71669643D01*
X118748114Y-88230982D02*
X119534632Y-89017500D01*
X119534632Y-89017500D02*
X124079000Y-89017500D01*
%TO.N,/Stepper Isolation 1/dir_ext*%
X117761355Y-71762575D02*
X117533178Y-71534398D01*
X117761355Y-86833267D02*
X117761355Y-71762575D01*
X125505971Y-87904471D02*
X118832559Y-87904471D01*
X117533178Y-71534398D02*
X117533178Y-57333178D01*
X117533178Y-57333178D02*
X115064000Y-54864000D01*
X126619000Y-89017500D02*
X125505971Y-87904471D01*
X118832559Y-87904471D02*
X117761355Y-86833267D01*
%TO.N,/Stepper Isolation 1/ena_ext*%
X129159000Y-89017500D02*
X127719460Y-87577960D01*
X118087866Y-86698022D02*
X118087866Y-71627330D01*
X118087866Y-71627330D02*
X117859689Y-71399153D01*
X117859689Y-53218689D02*
X114808000Y-50167000D01*
X118967804Y-87577960D02*
X118087866Y-86698022D01*
X117859689Y-71399153D02*
X117859689Y-53218689D01*
X127719460Y-87577960D02*
X118967804Y-87577960D01*
%TO.N,/Stepper Isolation 1/alarm_ext*%
X129932949Y-87251449D02*
X131699000Y-89017500D01*
X118414377Y-71492085D02*
X118414377Y-86562777D01*
X114816000Y-45468000D02*
X118186200Y-48838200D01*
X118414377Y-86562777D02*
X119103049Y-87251449D01*
X118186200Y-48838200D02*
X118186200Y-71263908D01*
X119103049Y-87251449D02*
X129932949Y-87251449D01*
X118186200Y-71263908D02*
X118414377Y-71492085D01*
%TO.N,/Stepper Isolation 2/step_ext*%
X116128800Y-90973300D02*
X124079000Y-98923500D01*
X115064000Y-71374000D02*
X116128800Y-72438800D01*
X116128800Y-72438800D02*
X116128800Y-90973300D01*
%TO.N,/Stepper Isolation 2/dir_ext*%
X116227134Y-71267134D02*
X115064000Y-70104000D01*
X116455311Y-88759811D02*
X116455311Y-72303555D01*
X116455311Y-72303555D02*
X116227134Y-72075378D01*
X126619000Y-98923500D02*
X116455311Y-88759811D01*
X116227134Y-72075378D02*
X116227134Y-71267134D01*
%TO.N,/Stepper Isolation 2/ena_ext*%
X118453563Y-88884004D02*
X128493059Y-98923500D01*
X116781822Y-87239002D02*
X118426824Y-88884004D01*
X116553645Y-71940133D02*
X116781822Y-72168310D01*
X116553645Y-67152645D02*
X116553645Y-71940133D01*
X114808000Y-65407000D02*
X116553645Y-67152645D01*
X118426824Y-88884004D02*
X118453563Y-88884004D01*
X116781822Y-72168310D02*
X116781822Y-87239002D01*
%TO.N,/Stepper Isolation 2/alarm_ext*%
X118588808Y-88557493D02*
X118562069Y-88557493D01*
X116880156Y-62391156D02*
X115197000Y-60708000D01*
X124138317Y-94107000D02*
X118588808Y-88557493D01*
X115197000Y-60708000D02*
X114816000Y-60708000D01*
X131699000Y-98923500D02*
X126882500Y-94107000D01*
X117108333Y-87103757D02*
X117108333Y-72033065D01*
X118562069Y-88557493D02*
X117108333Y-87103757D01*
X117108333Y-72033065D02*
X116880156Y-71804888D01*
X116880156Y-71804888D02*
X116880156Y-62391156D01*
X126882500Y-94107000D02*
X124138317Y-94107000D01*
%TO.N,/STEPPER_X_DIAG0*%
X113665000Y-38100000D02*
X112522000Y-38100000D01*
X107539773Y-45468000D02*
X105164000Y-45468000D01*
X112522000Y-38100000D02*
X112268000Y-38354000D01*
X113946988Y-32662469D02*
X114808000Y-33523481D01*
X112268000Y-40132000D02*
X108178020Y-44221980D01*
X114808000Y-33523481D02*
X114808000Y-36957000D01*
X108178020Y-44829753D02*
X107539773Y-45468000D01*
X112268000Y-38354000D02*
X112268000Y-40132000D01*
X114808000Y-36957000D02*
X113665000Y-38100000D01*
X76095000Y-39345000D02*
X82777531Y-32662469D01*
X82777531Y-32662469D02*
X113946988Y-32662469D01*
X108178020Y-44221980D02*
X108178020Y-44829753D01*
%TO.N,/RP2040 Microcontroller/GPIO11*%
X69519800Y-64112400D02*
X69282200Y-63874800D01*
X69519800Y-64996600D02*
X69519800Y-64112400D01*
%TO.N,Net-(R9-Pad2)*%
X112480000Y-71374000D02*
X114044000Y-71374000D01*
%TO.N,Net-(R10-Pad2)*%
X112480000Y-70104000D02*
X114044000Y-70104000D01*
D77*
%TO.N,Net-(R11-Pad2)*%
X106942000Y-64389000D02*
X105285000Y-64389000D01*
D78*
%TO.N,Net-(R17-Pad2)*%
X113917000Y-101473000D02*
X112480000Y-101473000D01*
%TO.N,Net-(R18-Pad2)*%
X113917000Y-100203000D02*
X112480000Y-100203000D01*
%TO.N,Net-(R8-Pad1)*%
X106950000Y-59690000D02*
X105166000Y-59690000D01*
%TO.N,Net-(R12-Pad1)*%
X114816000Y-59688000D02*
X113032000Y-59688000D01*
%TO.N,Net-(R19-Pad2)*%
X105156000Y-94232000D02*
X106813000Y-94232000D01*
D77*
%TO.N,Net-(R25-Pad2)*%
X112480000Y-116586000D02*
X113917000Y-116586000D01*
%TO.N,Net-(R26-Pad2)*%
X112480000Y-115316000D02*
X113917000Y-115316000D01*
D78*
%TO.N,Net-(R16-Pad1)*%
X106950000Y-89662000D02*
X105166000Y-89662000D01*
%TO.N,Net-(R27-Pad2)*%
X105156000Y-109345000D02*
X106813000Y-109345000D01*
%TO.N,/STEPPER_Y_DIAG0*%
X109220000Y-43670000D02*
X113570000Y-39320000D01*
X109220000Y-43670000D02*
X109220000Y-60325000D01*
X108837000Y-60708000D02*
X105164000Y-60708000D01*
X109220000Y-60325000D02*
X108837000Y-60708000D01*
%TO.N,/Stepper Isolation 3/step_ext*%
X124101000Y-108829500D02*
X116617500Y-101346000D01*
X116617500Y-101346000D02*
X115064000Y-101346000D01*
%TO.N,/Stepper Isolation 3/dir_ext*%
X117887500Y-100076000D02*
X126641000Y-108829500D01*
X115064000Y-100076000D02*
X117887500Y-100076000D01*
%TO.N,/Stepper Isolation 3/ena_ext*%
X128258500Y-108829500D02*
X129181000Y-108829500D01*
X114808000Y-95379000D02*
X128258500Y-108829500D01*
%TO.N,/STEPPER_Z_DIAG0*%
X114227489Y-124888111D02*
X115210711Y-123904889D01*
X107647200Y-90680000D02*
X105164000Y-90680000D01*
X82253111Y-124888111D02*
X114227489Y-124888111D01*
X109422112Y-92454912D02*
X107647200Y-90680000D01*
X115210711Y-123904889D02*
X115210711Y-122246511D01*
X115210711Y-122246511D02*
X109422112Y-116457912D01*
X109422112Y-116457912D02*
X109422112Y-92454912D01*
X80530000Y-123165000D02*
X82253111Y-124888111D01*
%TO.N,/STEPPER_A_DIAG0*%
X53860906Y-124450920D02*
X54330737Y-123981089D01*
X55997076Y-124450920D02*
X56006156Y-124460000D01*
X81762600Y-123698000D02*
X82626200Y-124561600D01*
X56006156Y-124460000D02*
X77089000Y-124460000D01*
X47446398Y-124162578D02*
X47734740Y-124450920D01*
X109541965Y-117136565D02*
X109095601Y-117136565D01*
X44145964Y-123190000D02*
X45258975Y-124303011D01*
X107109973Y-105867200D02*
X105238200Y-105867200D01*
X109095601Y-107852828D02*
X107109973Y-105867200D01*
X81762600Y-122174000D02*
X81762600Y-123698000D01*
X47734740Y-124450920D02*
X53860906Y-124450920D01*
X55354740Y-124450920D02*
X55997076Y-124450920D01*
X77089000Y-124460000D02*
X79497011Y-122051989D01*
X46181025Y-124303011D02*
X46321458Y-124162578D01*
X114092244Y-124561600D02*
X114884200Y-123769644D01*
X54330737Y-123981089D02*
X54884909Y-123981089D01*
X54884909Y-123981089D02*
X55354740Y-124450920D01*
X43180000Y-123190000D02*
X44145964Y-123190000D01*
X45258975Y-124303011D02*
X46181025Y-124303011D01*
X114884200Y-122478800D02*
X109541965Y-117136565D01*
X46321458Y-124162578D02*
X47446398Y-124162578D01*
X82626200Y-124561600D02*
X114092244Y-124561600D01*
X79497011Y-122051989D02*
X81640589Y-122051989D01*
X114884200Y-123769644D02*
X114884200Y-122478800D01*
X81640589Y-122051989D02*
X81762600Y-122174000D01*
X109095601Y-117136565D02*
X109095601Y-107852828D01*
%TO.N,/STEPPER_Y_ENn*%
X103886000Y-65278000D02*
X105154000Y-65278000D01*
X102515488Y-70259870D02*
X102515488Y-69440130D01*
X103150488Y-66013512D02*
X103886000Y-65278000D01*
X98330000Y-78690000D02*
X98330000Y-74445358D01*
X98330000Y-74445358D02*
X102515488Y-70259870D01*
X102515488Y-69440130D02*
X103150488Y-68805130D01*
X103150488Y-68805130D02*
X103150488Y-66013512D01*
%TO.N,/STEPPER_X_ENn*%
X66734472Y-75736064D02*
X74729364Y-75736064D01*
X74822505Y-75642923D02*
X77367495Y-75642923D01*
X77367495Y-75642923D02*
X77460627Y-75736055D01*
X61573756Y-78715000D02*
X62365245Y-77923511D01*
X74729364Y-75736064D02*
X74822505Y-75642923D01*
X64868547Y-77601989D02*
X66734472Y-75736064D01*
X101890467Y-51652533D02*
X103503000Y-50040000D01*
X77460627Y-75736055D02*
X94834295Y-75736055D01*
X94834295Y-75736055D02*
X101890467Y-68679883D01*
X101890467Y-68679883D02*
X101890467Y-51652533D01*
X103503000Y-50040000D02*
X105156000Y-50040000D01*
X62612453Y-77923511D02*
X62933975Y-77601989D01*
X62933975Y-77601989D02*
X64868547Y-77601989D01*
X62365245Y-77923511D02*
X62612453Y-77923511D01*
%TO.N,/STEPPER_Z_ENn*%
X96212980Y-83795000D02*
X103232555Y-90814575D01*
X103232555Y-90814575D02*
X103232555Y-93328555D01*
X103232555Y-93328555D02*
X105156000Y-95252000D01*
%TO.N,/STEPPER_A_ENn*%
X58420000Y-83820000D02*
X59925978Y-85325978D01*
X79798485Y-85561033D02*
X81261515Y-85561033D01*
X102253022Y-109873022D02*
X102745000Y-110365000D01*
X81261515Y-85561033D02*
X81496570Y-85325978D01*
X94803430Y-85325978D02*
X95038485Y-85561033D01*
X102745000Y-110365000D02*
X105156000Y-110365000D01*
X96547630Y-85514918D02*
X102253022Y-91220310D01*
X96501515Y-85561033D02*
X96547630Y-85514918D01*
X95038485Y-85561033D02*
X96501515Y-85561033D01*
X59925978Y-85325978D02*
X79563430Y-85325978D01*
X81496570Y-85325978D02*
X94803430Y-85325978D01*
X102253022Y-91220310D02*
X102253022Y-109873022D01*
X79563430Y-85325978D02*
X79798485Y-85561033D01*
%TO.N,Net-(R20-Pad1)*%
X114816000Y-89660000D02*
X113032000Y-89660000D01*
%TO.N,/Stepper Isolation 3/alarm_ext*%
X115445601Y-92968775D02*
X120777000Y-98300174D01*
X114816000Y-90680000D02*
X115445601Y-91309601D01*
X120777000Y-100087019D02*
X128406470Y-107716489D01*
X128406470Y-107716489D02*
X130607989Y-107716489D01*
X115445601Y-91309601D02*
X115445601Y-92968775D01*
X130607989Y-107716489D02*
X131721000Y-108829500D01*
X120777000Y-98300174D02*
X120777000Y-100087019D01*
D79*
%TO.N,/12V 3A Switching Regulator/lm5576_bst*%
X82862500Y-102239000D02*
X80956000Y-102239000D01*
%TO.N,/12V 3A Switching Regulator/lm5576_R60*%
X78486000Y-102550000D02*
X79313520Y-103377520D01*
X81365020Y-103377520D02*
X82762500Y-104775000D01*
X79313520Y-103377520D02*
X81365020Y-103377520D01*
D78*
%TO.N,Net-(R33-Pad2)*%
X112480000Y-56134000D02*
X114044000Y-56134000D01*
%TO.N,Net-(R34-Pad2)*%
X112480000Y-54864000D02*
X114044000Y-54864000D01*
%TO.N,/Stepper Isolation 4/step_ext*%
X124101000Y-118735500D02*
X121824500Y-116459000D01*
X121824500Y-116459000D02*
X115064000Y-116459000D01*
%TO.N,/Stepper Isolation 4/dir_ext*%
X123094500Y-115189000D02*
X126641000Y-118735500D01*
X115064000Y-115189000D02*
X123094500Y-115189000D01*
%TO.N,/Stepper Isolation 4/ena_ext*%
X119809244Y-110492000D02*
X114808000Y-110492000D01*
X125086755Y-115769511D02*
X119809244Y-110492000D01*
X129181000Y-118735500D02*
X126215011Y-115769511D01*
X126215011Y-115769511D02*
X125086755Y-115769511D01*
%TO.N,/RP2040 Microcontroller/~{USB_BOOT}*%
X47599491Y-124777440D02*
X47311149Y-124489098D01*
X42066989Y-120603789D02*
X40239480Y-118776280D01*
X46451631Y-124494175D02*
X46451617Y-124494175D01*
X40239480Y-118776280D02*
X40239480Y-79470720D01*
X44797219Y-124303011D02*
X44293011Y-124303011D01*
D84*
X44293011Y-124303011D02*
X44273961Y-124283961D01*
D78*
X42218489Y-77491711D02*
X44407445Y-77491711D01*
D84*
X42115861Y-121031355D02*
X42115861Y-120652661D01*
D78*
X44407445Y-77491711D02*
X47912645Y-73986511D01*
X46451617Y-124494175D02*
X46316270Y-124629522D01*
D84*
X42086039Y-124283961D02*
X42086039Y-121061177D01*
D78*
X55861840Y-124777440D02*
X47599491Y-124777440D01*
X46316270Y-124629522D02*
X45123730Y-124629522D01*
X45123730Y-124629522D02*
X44797219Y-124303011D01*
X55651400Y-70609826D02*
X55651400Y-69378100D01*
X52027445Y-73986511D02*
X54205555Y-71808401D01*
X46456708Y-124489098D02*
X46451631Y-124494175D01*
D84*
X42086039Y-121061177D02*
X42115861Y-121031355D01*
D78*
X40239480Y-79470720D02*
X42218489Y-77491711D01*
X57530200Y-126445800D02*
X55861840Y-124777440D01*
X54205555Y-71808401D02*
X54452825Y-71808401D01*
X54452825Y-71808401D02*
X55651400Y-70609826D01*
D84*
X44273961Y-124283961D02*
X42086039Y-124283961D01*
D78*
X47311149Y-124489098D02*
X46456708Y-124489098D01*
X58877200Y-126415800D02*
X57685200Y-126415800D01*
X47912645Y-73986511D02*
X52027445Y-73986511D01*
X57655200Y-126445800D02*
X57530200Y-126445800D01*
D84*
X42115861Y-120652661D02*
X42066989Y-120603789D01*
D78*
%TO.N,Net-(C20-Pad1)*%
X73053000Y-64262000D02*
X74704000Y-62611000D01*
X72718200Y-64596800D02*
X73053000Y-64262000D01*
X74704000Y-62611000D02*
X75757500Y-62611000D01*
X72718200Y-66160800D02*
X72718200Y-64596800D01*
%TO.N,/RP2040 Microcontroller/QSPI_SS*%
X63756200Y-71734135D02*
X63756200Y-70197281D01*
X63168500Y-68891163D02*
X63168500Y-69609581D01*
X63168500Y-69609581D02*
X63756200Y-70197281D01*
X63062999Y-68785662D02*
X63168500Y-68891163D01*
X63168500Y-66656760D02*
X63062999Y-66762261D01*
X55907219Y-72047281D02*
X55651400Y-72303100D01*
X57787200Y-72047281D02*
X55907219Y-72047281D01*
X63062999Y-66762261D02*
X63062999Y-68785662D01*
X59870877Y-73436812D02*
X62053523Y-73436812D01*
X59774932Y-73340867D02*
X59870877Y-73436812D01*
X63168500Y-63113500D02*
X63168500Y-66656760D01*
X57787200Y-72161379D02*
X58966688Y-73340867D01*
X62053523Y-73436812D02*
X63756200Y-71734135D01*
X58966688Y-73340867D02*
X59774932Y-73340867D01*
X63244700Y-63037300D02*
X63168500Y-63113500D01*
%TO.N,/RP2040 Microcontroller/XOUT*%
X70762788Y-60637300D02*
X72736488Y-62611000D01*
X70119700Y-60637300D02*
X70762788Y-60637300D01*
%TO.N,Net-(C36-Pad1)*%
X80567000Y-68712000D02*
X81927000Y-70072000D01*
D77*
%TO.N,Net-(C37-Pad1)*%
X85517000Y-67405000D02*
X87459000Y-67405000D01*
X87614000Y-68195000D02*
X87614000Y-67250000D01*
%TO.N,Net-(C38-Pad2)*%
X87614000Y-66290000D02*
X88600000Y-66290000D01*
%TO.N,Net-(C39-Pad2)*%
X80567000Y-64865000D02*
X81297000Y-64135000D01*
X86884000Y-62611000D02*
X87106000Y-62833000D01*
X86233000Y-62611000D02*
X86884000Y-62611000D01*
X81297000Y-64135000D02*
X81534000Y-64135000D01*
D85*
%TO.N,/RP2040 Microcontroller/USB_D+*%
X55510303Y-67214887D02*
X54921287Y-67803903D01*
X48760395Y-125708389D02*
X49149000Y-126096994D01*
X57826200Y-59337300D02*
X56756380Y-59337300D01*
X39152703Y-79051287D02*
X39152703Y-122227259D01*
X43152785Y-125693297D02*
X47895297Y-125693297D01*
X55510303Y-60583377D02*
X55510303Y-67214887D01*
X39152703Y-122227259D02*
X41922127Y-124996683D01*
X47895297Y-125693297D02*
X47910389Y-125708389D01*
X41922127Y-124996683D02*
X42456171Y-124996683D01*
X43745287Y-76287503D02*
X41916487Y-76287503D01*
X54921287Y-67803903D02*
X52228887Y-67803903D01*
X42456171Y-124996683D02*
X43152785Y-125693297D01*
X47910389Y-125708389D02*
X48760395Y-125708389D01*
X56756380Y-59337300D02*
X55510303Y-60583377D01*
X41916487Y-76287503D02*
X39152703Y-79051287D01*
X52228887Y-67803903D02*
X43745287Y-76287503D01*
X49149000Y-126096994D02*
X49149000Y-126947000D01*
D78*
%TO.N,Net-(R24-Pad1)*%
X106950000Y-104775000D02*
X105166000Y-104775000D01*
%TO.N,Net-(R28-Pad1)*%
X114816000Y-104773000D02*
X113032000Y-104773000D01*
%TO.N,Net-(R35-Pad2)*%
X105156000Y-49020000D02*
X106813000Y-49020000D01*
%TO.N,Net-(R36-Pad1)*%
X114816000Y-44448000D02*
X113032000Y-44448000D01*
D85*
%TO.N,/RP2040 Microcontroller/USB_D-*%
X52114313Y-67527297D02*
X43630713Y-76010897D01*
X54806713Y-67527297D02*
X52114313Y-67527297D01*
X41706800Y-125272800D02*
X42341800Y-125272800D01*
X48336014Y-125984986D02*
X48499000Y-126147972D01*
X38876097Y-78936713D02*
X38876097Y-122442097D01*
X41801913Y-76010897D02*
X38876097Y-78936713D01*
X55233697Y-60468803D02*
X55233697Y-67100313D01*
X57889200Y-57813300D02*
X55233697Y-60468803D01*
X43053986Y-125984986D02*
X48336014Y-125984986D01*
X55233697Y-67100313D02*
X54806713Y-67527297D01*
X42341800Y-125272800D02*
X43053986Y-125984986D01*
X48499000Y-126147972D02*
X48499000Y-126947000D01*
X43630713Y-76010897D02*
X41801913Y-76010897D01*
X38876097Y-122442097D02*
X41706800Y-125272800D01*
D78*
%TO.N,/RP2040 Microcontroller/QSPI_SD1*%
X62594189Y-62724289D02*
X62594189Y-62807634D01*
X63066711Y-71961868D02*
X61918278Y-73110301D01*
X61918278Y-73110301D02*
X60006122Y-73110301D01*
X62544180Y-62857643D02*
X62544180Y-68728599D01*
X63244700Y-62637300D02*
X62859245Y-62637300D01*
X62841989Y-69751345D02*
X63033255Y-69942611D01*
X63039774Y-69942611D02*
X63066711Y-69969548D01*
X63066711Y-69969548D02*
X63066711Y-71961868D01*
X62594189Y-62807634D02*
X62544180Y-62857643D01*
X62859245Y-62674280D02*
X62727543Y-62674280D01*
X63033255Y-69942611D02*
X63039774Y-69942611D01*
X62544180Y-68728599D02*
X62841989Y-69026408D01*
X60006122Y-73110301D02*
X59057200Y-72161379D01*
X62727543Y-62674280D02*
X62677534Y-62724289D01*
X62859245Y-62637300D02*
X62859245Y-62674280D01*
X62677534Y-62724289D02*
X62594189Y-62724289D01*
X62841989Y-69026408D02*
X62841989Y-69751345D01*
%TO.N,/RP2040 Microcontroller/QSPI_SD2*%
X62217669Y-62722398D02*
X62217669Y-69280714D01*
X62267678Y-62672389D02*
X62217669Y-62722398D01*
X62267678Y-62589044D02*
X62267678Y-62672389D01*
X60327200Y-71171183D02*
X60327200Y-72047281D01*
X62619422Y-62237300D02*
X62267678Y-62589044D01*
X63244700Y-62237300D02*
X62619422Y-62237300D01*
X62217669Y-69280714D02*
X60327200Y-71171183D01*
%TO.N,/RP2040 Microcontroller/QSPI_SD0*%
X61941167Y-62537144D02*
X61941167Y-62453799D01*
X61891158Y-62587153D02*
X61941167Y-62537144D01*
X61941167Y-62453799D02*
X62557666Y-61837300D01*
X61597200Y-63048621D02*
X61891158Y-62754663D01*
X61891158Y-62754663D02*
X61891158Y-62587153D01*
X62557666Y-61837300D02*
X63244700Y-61837300D01*
X61597200Y-64847281D02*
X61597200Y-63048621D01*
%TO.N,Net-(R32-Pad1)*%
X106950000Y-44450000D02*
X105166000Y-44450000D01*
%TO.N,/RP2040 Microcontroller/QSPI_SCLK*%
X63244700Y-61437300D02*
X62495910Y-61437300D01*
X61614656Y-62401899D02*
X61184325Y-62832230D01*
X60327200Y-63702037D02*
X60327200Y-64847281D01*
X61614656Y-62318554D02*
X61614656Y-62401899D01*
X61184325Y-62832230D02*
X61184325Y-62844912D01*
X62495910Y-61437300D02*
X61614656Y-62318554D01*
X61184325Y-62844912D02*
X60327200Y-63702037D01*
D77*
%TO.N,Net-(C44-Pad1)*%
X90347000Y-97039000D02*
X88587500Y-97039000D01*
%TO.N,Net-(D1-Pad1)*%
X100711000Y-51386500D02*
X99172500Y-51386500D01*
X99172500Y-51386500D02*
X98806000Y-51753000D01*
D78*
%TO.N,/RP2040 Microcontroller/QSPI_SD3*%
X63244700Y-61037300D02*
X62662207Y-61037300D01*
X59057200Y-64497586D02*
X59057200Y-64847281D01*
X61288145Y-62183309D02*
X61288145Y-62266641D01*
X62618695Y-61080812D02*
X62390642Y-61080812D01*
X62390642Y-61080812D02*
X61288145Y-62183309D01*
X61288145Y-62266641D02*
X59057200Y-64497586D01*
X62662207Y-61037300D02*
X62618695Y-61080812D01*
%TO.N,/Stepper Isolation 4/alarm_ext*%
X114816000Y-105793000D02*
X115572000Y-105793000D01*
X115572000Y-105793000D02*
X125222000Y-115443000D01*
X125222000Y-115443000D02*
X128428500Y-115443000D01*
X128428500Y-115443000D02*
X131721000Y-118735500D01*
%TO.N,/Stepper Isolation 2/ena_ext_opto*%
X113022000Y-64389000D02*
X114806000Y-64389000D01*
%TO.N,/Stepper Isolation 3/ena_ext_opto*%
X113022000Y-94361000D02*
X114806000Y-94361000D01*
%TO.N,/Stepper Isolation 4/ena_ext_opto*%
X113022000Y-109474000D02*
X114806000Y-109474000D01*
%TO.N,/Stepper Isolation 1/ena_ext_opto*%
X113022000Y-49149000D02*
X114806000Y-49149000D01*
%TO.N,+12V*%
X78597000Y-66705000D02*
X79167000Y-66135000D01*
X78597000Y-67657000D02*
X78597000Y-66705000D01*
D83*
X82653500Y-88519000D02*
X80899000Y-90273500D01*
D78*
%TO.N,/RP2040 Microcontroller/GPIO2*%
X65711423Y-71190021D02*
X62399555Y-74501889D01*
X43558956Y-36100000D02*
X44575200Y-36100000D01*
X65711423Y-64865202D02*
X65711423Y-71190021D01*
X62399555Y-74501889D02*
X52897335Y-74501889D01*
X48063754Y-76137690D02*
X46699090Y-76137690D01*
X39525001Y-75099711D02*
X39525001Y-40133955D01*
X38737600Y-75887112D02*
X39525001Y-75099711D01*
X52897335Y-74501889D02*
X51756629Y-75642595D01*
X65442678Y-64571057D02*
X65442678Y-64596457D01*
X65442678Y-64596457D02*
X65711423Y-64865202D01*
X47081800Y-33865000D02*
X53090000Y-33865000D01*
X65282200Y-64410579D02*
X65442678Y-64571057D01*
X48558849Y-75642595D02*
X48063754Y-76137690D01*
X44575200Y-36100000D02*
X46946000Y-33729200D01*
X39525001Y-40133955D02*
X43558956Y-36100000D01*
X51756629Y-75642595D02*
X48558849Y-75642595D01*
X65282200Y-63874800D02*
X65282200Y-64410579D01*
%TO.N,/RP2040 Microcontroller/GPIO3*%
X65769189Y-64461212D02*
X66037934Y-64729957D01*
X65682200Y-63874800D02*
X65682200Y-64348823D01*
X66037934Y-64729957D02*
X66037934Y-71325266D01*
X51998740Y-76530200D02*
X47244206Y-76530200D01*
X39192200Y-40005000D02*
X44076980Y-35120220D01*
X39192200Y-74218800D02*
X39192200Y-40005000D01*
X46973715Y-76800691D02*
X46036089Y-76800691D01*
X53700540Y-74828400D02*
X51998740Y-76530200D01*
X65682200Y-64348823D02*
X65769189Y-64435812D01*
X65769189Y-64435812D02*
X65769189Y-64461212D01*
X66037934Y-71325266D02*
X62534800Y-74828400D01*
X62534800Y-74828400D02*
X53700540Y-74828400D01*
X47244206Y-76530200D02*
X46973715Y-76800691D01*
X38862000Y-74549000D02*
X39192200Y-74218800D01*
X46036089Y-76800691D02*
X45962490Y-76874290D01*
X44770400Y-32595000D02*
X53090000Y-32595000D01*
X44076980Y-33067620D02*
X44660000Y-32484600D01*
X44076980Y-35120220D02*
X44076980Y-33067620D01*
%TO.N,/RP2040 Microcontroller/SWCLK*%
X73362928Y-59509042D02*
X74295009Y-58576961D01*
X94212289Y-50244889D02*
X95935800Y-51968400D01*
X74295009Y-58576961D02*
X74295009Y-54649178D01*
X74295009Y-54649178D02*
X75506276Y-53437911D01*
X88180555Y-50244889D02*
X94212289Y-50244889D01*
X70119700Y-59437300D02*
X70735677Y-59437300D01*
X70807419Y-59509042D02*
X73362928Y-59509042D01*
X81576019Y-53437911D02*
X81721051Y-53292880D01*
X75506276Y-53437911D02*
X81576019Y-53437911D01*
X85132564Y-53292880D02*
X88180555Y-50244889D01*
X70735677Y-59437300D02*
X70807419Y-59509042D01*
X81721051Y-53292880D02*
X85132564Y-53292880D01*
%TO.N,/RP2040 Microcontroller/SWD*%
X70942677Y-59182531D02*
X73205323Y-59182531D01*
X73968489Y-58441711D02*
X73968489Y-54428511D01*
X91075274Y-46888400D02*
X95935800Y-46888400D01*
X84997305Y-52966369D02*
X91075274Y-46888400D01*
X75430631Y-52966369D02*
X84997305Y-52966369D01*
X73205323Y-59182531D02*
X73344027Y-59043827D01*
X70119700Y-59037300D02*
X70797446Y-59037300D01*
X70797446Y-59037300D02*
X70942677Y-59182531D01*
X73968489Y-54428511D02*
X75430631Y-52966369D01*
X73304400Y-59105800D02*
X73968489Y-58441711D01*
%TO.N,/RP2040 Microcontroller/RUN*%
X64064663Y-124786511D02*
X68060111Y-124786511D01*
X51663600Y-73660000D02*
X47777400Y-73660000D01*
D84*
X44428256Y-124629522D02*
X42303770Y-124629522D01*
D78*
X73130847Y-53518980D02*
X73130847Y-53443847D01*
X71077922Y-58856020D02*
X73070078Y-58856020D01*
D84*
X41966576Y-124572372D02*
X41757600Y-124363396D01*
D78*
X39878000Y-118973600D02*
X41808400Y-120904000D01*
X73130847Y-53443847D02*
X72519000Y-52832000D01*
X46586862Y-124820686D02*
X47180994Y-124820686D01*
D84*
X42221220Y-124572372D02*
X41966576Y-124572372D01*
D78*
X71832020Y-53518980D02*
X72519000Y-52832000D01*
X53475951Y-125103951D02*
X55803800Y-127431800D01*
X53986004Y-60316170D02*
X60047774Y-54254400D01*
D84*
X42303770Y-124629522D02*
X42263267Y-124589019D01*
D78*
X47777400Y-73660000D02*
X44272200Y-77165200D01*
X44428256Y-124629522D02*
X44661974Y-124629522D01*
X73638531Y-58287567D02*
X73638531Y-54026664D01*
X47464259Y-125103951D02*
X53475951Y-125103951D01*
X44272200Y-77165200D02*
X41937022Y-77165200D01*
X73070078Y-58856020D02*
X73638531Y-58287567D01*
X69090935Y-53518980D02*
X71832020Y-53518980D01*
X41937022Y-77165200D02*
X39878000Y-79224222D01*
X53986004Y-65946426D02*
X53986004Y-60316170D01*
X60047774Y-54254400D02*
X68355515Y-54254400D01*
X55803800Y-127431800D02*
X61419374Y-127431800D01*
X68355515Y-54254400D02*
X69090935Y-53518980D01*
D84*
X42237867Y-124589019D02*
X42221220Y-124572372D01*
D78*
X47180994Y-124820686D02*
X47464259Y-125103951D01*
X44661974Y-124629522D02*
X44988485Y-124956033D01*
X44988485Y-124956033D02*
X46451515Y-124956033D01*
D84*
X41757600Y-120954800D02*
X41808400Y-120904000D01*
D78*
X73638531Y-54026664D02*
X73130847Y-53518980D01*
X70859202Y-58637300D02*
X71077922Y-58856020D01*
X68060111Y-124786511D02*
X69669400Y-126395800D01*
X46451515Y-124956033D02*
X46586862Y-124820686D01*
X61419374Y-127431800D02*
X64064663Y-124786511D01*
X70119700Y-58637300D02*
X70859202Y-58637300D01*
D84*
X42263267Y-124589019D02*
X42237867Y-124589019D01*
D78*
X54178200Y-71145400D02*
X51663600Y-73660000D01*
D84*
X41757600Y-124363396D02*
X41757600Y-120954800D01*
D78*
X39878000Y-79224222D02*
X39878000Y-118973600D01*
D77*
%TO.N,Net-(C45-Pad1)*%
X82616000Y-94742000D02*
X82616000Y-96142500D01*
X82616000Y-96142500D02*
X82862500Y-96389000D01*
%TO.N,Net-(C46-Pad1)*%
X89662000Y-103873000D02*
X90424000Y-104635000D01*
X88751493Y-102239000D02*
X89662000Y-103149507D01*
X89662000Y-103149507D02*
X89662000Y-103873000D01*
%TO.N,Net-(C47-Pad1)*%
X89627776Y-93632520D02*
X89983807Y-93276489D01*
X90612003Y-98366510D02*
X90584493Y-98339000D01*
X83665520Y-93632520D02*
X89627776Y-93632520D01*
X89983807Y-93276489D02*
X92260489Y-93276489D01*
X82653500Y-90344000D02*
X84478500Y-88519000D01*
X91626194Y-98366510D02*
X90612003Y-98366510D01*
X92260489Y-97732215D02*
X91626194Y-98366510D01*
X82616000Y-92583000D02*
X82616000Y-90588500D01*
X90584493Y-98339000D02*
X88587500Y-98339000D01*
X82616000Y-92583000D02*
X83665520Y-93632520D01*
X92260489Y-93276489D02*
X92260489Y-97732215D01*
%TO.N,Net-(C47-Pad2)*%
X84516000Y-92583000D02*
X86209500Y-92583000D01*
D83*
%TO.N,Net-(D3-Pad1)*%
X57027000Y-96516000D02*
X58293000Y-95250000D01*
X58293000Y-95250000D02*
X58293000Y-90502500D01*
X58293000Y-90502500D02*
X59690000Y-89105500D01*
D78*
%TO.N,Net-(R43-Pad2)*%
X61647205Y-58458831D02*
X60354669Y-58458831D01*
X63244700Y-59437300D02*
X62625674Y-59437300D01*
X62625674Y-59437300D02*
X61647205Y-58458831D01*
X60354669Y-58458831D02*
X59476200Y-59337300D01*
%TO.N,Net-(R44-Pad2)*%
X61782464Y-58132320D02*
X59858220Y-58132320D01*
X63244700Y-59037300D02*
X62687444Y-59037300D01*
X62687444Y-59037300D02*
X61782464Y-58132320D01*
X59858220Y-58132320D02*
X59539200Y-57813300D01*
%TO.N,Net-(R46-Pad2)*%
X78597000Y-68677000D02*
X79869000Y-67405000D01*
X78851000Y-68931000D02*
X78597000Y-68677000D01*
X78851000Y-70072000D02*
X78851000Y-68931000D01*
%TO.N,/RP2040 Microcontroller/GPIO0*%
X40178023Y-74585447D02*
X40178023Y-40404445D01*
X40178023Y-40404445D02*
X42685668Y-37896800D01*
X52626845Y-73848867D02*
X52162690Y-74313022D01*
X65033001Y-66258508D02*
X64829801Y-66461708D01*
X64829801Y-71122290D02*
X62103224Y-73848867D01*
X64482200Y-63874800D02*
X64482200Y-64559491D01*
X52162690Y-74313022D02*
X48523759Y-74313022D01*
X62103224Y-73848867D02*
X52626845Y-73848867D01*
X51391400Y-36405000D02*
X53090000Y-36405000D01*
X50900000Y-35913600D02*
X51391400Y-36405000D01*
X64956801Y-65034092D02*
X64956801Y-65796092D01*
X64956801Y-65796092D02*
X65033001Y-65872292D01*
X48523759Y-74313022D02*
X48183698Y-74653083D01*
X64482200Y-64559491D02*
X64956801Y-65034092D01*
X49003200Y-37896800D02*
X50900000Y-36000000D01*
X50900000Y-36000000D02*
X50900000Y-35913600D01*
X64829801Y-66461708D02*
X64829801Y-71122290D01*
X65033001Y-65872292D02*
X65033001Y-66258508D01*
X42685668Y-37896800D02*
X49003200Y-37896800D01*
X40727239Y-75134663D02*
X40178023Y-74585447D01*
%TO.N,/RS485/RS485_B*%
X107760280Y-37202720D02*
X87961620Y-37202720D01*
X79722700Y-55753000D02*
X80571100Y-54904600D01*
X97536000Y-52594222D02*
X97048811Y-53081411D01*
X100803680Y-47463680D02*
X107627359Y-40640000D01*
X80571100Y-54904600D02*
X81856300Y-53619400D01*
X99851180Y-48416180D02*
X100803680Y-47463680D01*
X93589411Y-53081411D02*
X92273200Y-51765200D01*
D84*
X109626400Y-35336600D02*
X109911000Y-35052000D01*
D78*
X85267800Y-53619400D02*
X88315800Y-50571400D01*
X109911000Y-35052000D02*
X107760280Y-37202720D01*
X91079400Y-50571400D02*
X92273200Y-51765200D01*
X81856300Y-53619400D02*
X85267800Y-53619400D01*
X99851180Y-48416180D02*
X97536000Y-50731360D01*
D84*
X109626400Y-39964625D02*
X109626400Y-35245500D01*
D78*
X77024000Y-55753000D02*
X79722700Y-55753000D01*
X100787200Y-47447200D02*
X100803680Y-47463680D01*
D84*
X109626400Y-35245500D02*
X109444400Y-35063500D01*
D78*
X99646200Y-47447200D02*
X100787200Y-47447200D01*
X97048811Y-53081411D02*
X93589411Y-53081411D01*
X97536000Y-50731360D02*
X97536000Y-52594222D01*
X107627359Y-40640000D02*
X108951025Y-40640000D01*
X88315800Y-50571400D02*
X91079400Y-50571400D01*
D84*
X108951025Y-40640000D02*
X109626400Y-39964625D01*
D78*
X87961620Y-37202720D02*
X85898600Y-35139700D01*
%TO.N,/RS485/RS485_A*%
X107932936Y-41275000D02*
X108839000Y-41275000D01*
X85808980Y-56369520D02*
X85808980Y-54128501D01*
X101317989Y-47790191D02*
X101317989Y-47731371D01*
X113254400Y-34565200D02*
X113254400Y-35063500D01*
D84*
X109936039Y-38381861D02*
X113254400Y-35063500D01*
D78*
X101317989Y-47731371D02*
X101706371Y-47342989D01*
X89708600Y-35139700D02*
X90183900Y-35139700D01*
X97470867Y-53811533D02*
X97866200Y-53416200D01*
X84582000Y-57596500D02*
X85808980Y-56369520D01*
X97866200Y-50862916D02*
X99955058Y-48774058D01*
X85808980Y-54128501D02*
X86125948Y-53811533D01*
X92334620Y-32988980D02*
X111678180Y-32988980D01*
D84*
X108992874Y-41275000D02*
X109936039Y-40331835D01*
D78*
X100963000Y-48895000D02*
X100076000Y-48895000D01*
X111678180Y-32988980D02*
X113254400Y-34565200D01*
X104580980Y-44148135D02*
X104814135Y-43914980D01*
X104580980Y-44626956D02*
X104580980Y-44148135D01*
X77024000Y-57023000D02*
X80352700Y-57023000D01*
X100076000Y-48895000D02*
X99955058Y-48774058D01*
X99955058Y-48774058D02*
X100938925Y-47790191D01*
X80571100Y-56804600D02*
X83790100Y-56804600D01*
X97866200Y-53416200D02*
X97866200Y-50862916D01*
D84*
X108839000Y-41275000D02*
X108992874Y-41275000D01*
D78*
X86125948Y-53811533D02*
X97470867Y-53811533D01*
X101864947Y-47342989D02*
X104580980Y-44626956D01*
X104814135Y-43914980D02*
X105292956Y-43914980D01*
X100938925Y-47790191D02*
X101317989Y-47790191D01*
X105292956Y-43914980D02*
X107932936Y-41275000D01*
X90183900Y-35139700D02*
X92334620Y-32988980D01*
X83790100Y-56804600D02*
X84582000Y-57596500D01*
X101706371Y-47342989D02*
X101864947Y-47342989D01*
D84*
X109936039Y-40331835D02*
X109936039Y-38381861D01*
D78*
%TO.N,/RP2040 Microcontroller/GPIO1*%
X52725600Y-34770600D02*
X53090000Y-35135000D01*
X47520696Y-75316084D02*
X47476942Y-75359838D01*
X46207400Y-37566600D02*
X49003400Y-34770600D01*
X62264310Y-74175378D02*
X52762090Y-74175378D01*
X49134874Y-74639533D02*
X48458323Y-75316084D01*
X64882200Y-63874800D02*
X64882200Y-64478489D01*
X64882200Y-64478489D02*
X65116167Y-64712456D01*
X39851512Y-75667688D02*
X39851512Y-40269200D01*
X42554112Y-37566600D02*
X46207400Y-37566600D01*
X65116167Y-64731702D02*
X65384912Y-65000447D01*
X65384912Y-65000447D02*
X65384912Y-71054776D01*
X65384912Y-71054776D02*
X62264310Y-74175378D01*
X49003400Y-34770600D02*
X52725600Y-34770600D01*
X40080801Y-75896977D02*
X39851512Y-75667688D01*
X52762090Y-74175378D02*
X52297935Y-74639533D01*
X48458323Y-75316084D02*
X47520696Y-75316084D01*
X52297935Y-74639533D02*
X49134874Y-74639533D01*
X65116167Y-64712456D02*
X65116167Y-64731702D01*
X39851512Y-40269200D02*
X42554112Y-37566600D01*
D77*
%TO.N,Net-(R51-Pad1)*%
X88034500Y-94742000D02*
X89206507Y-94742000D01*
X89206507Y-94742000D02*
X89965027Y-93983480D01*
X89965027Y-93983480D02*
X91810978Y-93983480D01*
X91810978Y-93983480D02*
X91810978Y-97546022D01*
X91668000Y-97689000D02*
X88587500Y-97689000D01*
X91810978Y-97546022D02*
X91668000Y-97689000D01*
%TO.N,Net-(R53-Pad2)*%
X91639408Y-98989000D02*
X88587500Y-98989000D01*
X92203408Y-92583000D02*
X92710000Y-93089592D01*
X92710000Y-97918408D02*
X91639408Y-98989000D01*
X92710000Y-93089592D02*
X92710000Y-97918408D01*
X88034500Y-92583000D02*
X92203408Y-92583000D01*
%TO.N,Net-(R49-Pad2)*%
X86346000Y-70072000D02*
X86346000Y-71088000D01*
X86346000Y-70072000D02*
X86346000Y-69504000D01*
X86346000Y-69504000D02*
X85517000Y-68675000D01*
D79*
%TO.N,VCC_EXT*%
X112480000Y-72771000D02*
X113919000Y-72771000D01*
X113022000Y-66929000D02*
X114808000Y-66929000D01*
X112480000Y-57531000D02*
X114046000Y-57531000D01*
X112480000Y-53721000D02*
X113792000Y-53721000D01*
D77*
X112480000Y-117856000D02*
X113995200Y-117856000D01*
X114046000Y-92202000D02*
X114782600Y-92938600D01*
X113030000Y-92202000D02*
X114046000Y-92202000D01*
X112480000Y-114046000D02*
X114096800Y-114046000D01*
D79*
X113030000Y-46990000D02*
X114681000Y-46990000D01*
X113792000Y-53721000D02*
X113919000Y-53594000D01*
X114681000Y-51689000D02*
X114808000Y-51562000D01*
X113030000Y-62230000D02*
X114554000Y-62230000D01*
D77*
X113022000Y-112014000D02*
X114808000Y-112014000D01*
X114096800Y-114046000D02*
X114147600Y-113995200D01*
X114808000Y-112014000D02*
X114858800Y-111963200D01*
X112480000Y-102743000D02*
X113690400Y-102743000D01*
D79*
X113022000Y-51689000D02*
X114681000Y-51689000D01*
X114681000Y-46990000D02*
X114808000Y-46863000D01*
X114554000Y-62230000D02*
X114681000Y-62103000D01*
D77*
X114046000Y-98933000D02*
X114071400Y-98907600D01*
X113690400Y-102743000D02*
X113715800Y-102768400D01*
D79*
X112480000Y-68961000D02*
X114046000Y-68961000D01*
D77*
X113022000Y-96901000D02*
X114706400Y-96901000D01*
X113995200Y-117856000D02*
X114046000Y-117805200D01*
X113030000Y-107315000D02*
X114858800Y-107315000D01*
X112480000Y-98933000D02*
X114046000Y-98933000D01*
X114706400Y-96901000D02*
X114833400Y-97028000D01*
D78*
%TO.N,/RP2040 Microcontroller/GPIO18*%
X71077922Y-53919980D02*
X70835980Y-54161922D01*
X70776058Y-54102000D02*
X70410800Y-54102000D01*
X73070078Y-53919980D02*
X71077922Y-53919980D01*
X70776058Y-54102000D02*
X70835980Y-54161922D01*
X72363098Y-55753000D02*
X73312020Y-54804078D01*
X69282200Y-56523932D02*
X69282200Y-56999800D01*
X70835980Y-54161922D02*
X70835980Y-54970152D01*
X70835980Y-54970152D02*
X69282200Y-56523932D01*
X73312020Y-54161922D02*
X73070078Y-53919980D01*
X73312020Y-54804078D02*
X73312020Y-54161922D01*
X72074000Y-57023000D02*
X72074000Y-55753000D01*
%TO.N,/RP2040 Microcontroller/GPIO16*%
X70119700Y-58237300D02*
X72018300Y-58237300D01*
%TO.N,/RP2040 Microcontroller/GPIO17*%
X70119700Y-56148202D02*
X71784902Y-54483000D01*
X70119700Y-57837300D02*
X70119700Y-56148202D01*
%TO.N,Net-(J14-Pad1)*%
X84804225Y-54671500D02*
X84582000Y-54671500D01*
X89733200Y-51765200D02*
X87710525Y-51765200D01*
X87710525Y-51765200D02*
X84804225Y-54671500D01*
%TD*%
%TA.AperFunction,Conductor*%
%TO.N,/12V 3A Switching Regulator/lm5576_is*%
G36*
X78631642Y-95651002D02*
G01*
X78649257Y-95664667D01*
X80391000Y-97282000D01*
X81778615Y-97282000D01*
X81846736Y-97302002D01*
X81893229Y-97355658D01*
X81903333Y-97425932D01*
X81891814Y-97463334D01*
X81884873Y-97477533D01*
X81884872Y-97477537D01*
X81880577Y-97486323D01*
X81870500Y-97555398D01*
X81870500Y-97822602D01*
X81880757Y-97892278D01*
X81885074Y-97901070D01*
X81885074Y-97901071D01*
X81913240Y-97958440D01*
X81925308Y-98028403D01*
X81913337Y-98069303D01*
X81880577Y-98136323D01*
X81870500Y-98205398D01*
X81870500Y-98472602D01*
X81880757Y-98542278D01*
X81932770Y-98648216D01*
X82016294Y-98731595D01*
X82122323Y-98783423D01*
X82152645Y-98787847D01*
X82186872Y-98792840D01*
X82186876Y-98792840D01*
X82191398Y-98793500D01*
X83533602Y-98793500D01*
X83538152Y-98792830D01*
X83538155Y-98792830D01*
X83593592Y-98784669D01*
X83593593Y-98784669D01*
X83603278Y-98783243D01*
X83638469Y-98765965D01*
X83708432Y-98753897D01*
X83773814Y-98781570D01*
X83813855Y-98840198D01*
X83820000Y-98879068D01*
X83820000Y-99696000D01*
X83799998Y-99764121D01*
X83746342Y-99810614D01*
X83694000Y-99822000D01*
X70865000Y-99822000D01*
X70796879Y-99801998D01*
X70750386Y-99748342D01*
X70739000Y-99696000D01*
X70739000Y-95757000D01*
X70759002Y-95688879D01*
X70812658Y-95642386D01*
X70865000Y-95631000D01*
X78563521Y-95631000D01*
X78631642Y-95651002D01*
G37*
%TD.AperFunction*%
%TD*%
%TA.AperFunction,Conductor*%
%TO.N,+3V3*%
G36*
X101446562Y-52576460D02*
G01*
X101514667Y-52596513D01*
X101561120Y-52650204D01*
X101572467Y-52702460D01*
X101572467Y-62357886D01*
X101552465Y-62426007D01*
X101498809Y-62472500D01*
X101446373Y-62483886D01*
X89154676Y-62474759D01*
X89086572Y-62454706D01*
X89040119Y-62401016D01*
X89028782Y-62347132D01*
X89037142Y-61699872D01*
X89058022Y-61632015D01*
X89112273Y-61586219D01*
X89163130Y-61575499D01*
X89555066Y-61575499D01*
X89590818Y-61568388D01*
X89617126Y-61563156D01*
X89617128Y-61563155D01*
X89629301Y-61560734D01*
X89639621Y-61553839D01*
X89639622Y-61553838D01*
X89703168Y-61511377D01*
X89713484Y-61504484D01*
X89769734Y-61420301D01*
X89784500Y-61346067D01*
X89784499Y-58795934D01*
X89769734Y-58721699D01*
X89713484Y-58637516D01*
X89629301Y-58581266D01*
X89555067Y-58566500D01*
X89205246Y-58566500D01*
X89137125Y-58546498D01*
X89090632Y-58492842D01*
X89079257Y-58438873D01*
X89133306Y-54253906D01*
X89154186Y-54186049D01*
X89208437Y-54140253D01*
X89259295Y-54129533D01*
X97451475Y-54129533D01*
X97462457Y-54130012D01*
X97499010Y-54133210D01*
X97512733Y-54129533D01*
X97534448Y-54123715D01*
X97545177Y-54121337D01*
X97570446Y-54116881D01*
X97570451Y-54116879D01*
X97581307Y-54114965D01*
X97590854Y-54109452D01*
X97593820Y-54108373D01*
X97596681Y-54107039D01*
X97607333Y-54104185D01*
X97637387Y-54083141D01*
X97646657Y-54077236D01*
X97668878Y-54064407D01*
X97668882Y-54064404D01*
X97678427Y-54058893D01*
X97702010Y-54030788D01*
X97709436Y-54022684D01*
X97932245Y-53799875D01*
X97994557Y-53765849D01*
X98065372Y-53770914D01*
X98122208Y-53813461D01*
X98124366Y-53816867D01*
X98124791Y-53818076D01*
X98205990Y-53928010D01*
X98315924Y-54009209D01*
X98444873Y-54054493D01*
X98452515Y-54055215D01*
X98452518Y-54055216D01*
X98467421Y-54056624D01*
X98476685Y-54057500D01*
X98483209Y-54057500D01*
X98707376Y-54057499D01*
X98775495Y-54077501D01*
X98821988Y-54131156D01*
X98832093Y-54201430D01*
X98830042Y-54211701D01*
X98827806Y-54217437D01*
X98807129Y-54374496D01*
X98824513Y-54531953D01*
X98878953Y-54680719D01*
X98967308Y-54812205D01*
X98972927Y-54817318D01*
X98972928Y-54817319D01*
X98984303Y-54827669D01*
X99084476Y-54918819D01*
X99223693Y-54994408D01*
X99376922Y-55034607D01*
X99460877Y-55035926D01*
X99527719Y-55036976D01*
X99527722Y-55036976D01*
X99535316Y-55037095D01*
X99689732Y-55001729D01*
X99760142Y-54966317D01*
X99824472Y-54933963D01*
X99824475Y-54933961D01*
X99831255Y-54930551D01*
X99837026Y-54925622D01*
X99837029Y-54925620D01*
X99945936Y-54832604D01*
X99945936Y-54832603D01*
X99951714Y-54827669D01*
X100044155Y-54699024D01*
X100103242Y-54552041D01*
X100125562Y-54395207D01*
X100125707Y-54381400D01*
X100106676Y-54224133D01*
X100050680Y-54075946D01*
X99960953Y-53945392D01*
X99842675Y-53840011D01*
X99725587Y-53778016D01*
X99695451Y-53755757D01*
X99572405Y-53632711D01*
X99538379Y-53570399D01*
X99535500Y-53543616D01*
X99535499Y-53151654D01*
X99535499Y-53148686D01*
X99532493Y-53116873D01*
X99487209Y-52987924D01*
X99406010Y-52877990D01*
X99303479Y-52802259D01*
X99260569Y-52745698D01*
X99255049Y-52674916D01*
X99288673Y-52612387D01*
X99350765Y-52577962D01*
X99378434Y-52574908D01*
X101446562Y-52576460D01*
G37*
%TD.AperFunction*%
%TD*%
%TA.AperFunction,Conductor*%
%TO.N,/Input_Protection/vcc_post_fuse*%
G36*
X130117121Y-71241602D02*
G01*
X130163614Y-71295258D01*
X130175000Y-71347600D01*
X130175000Y-80056503D01*
X130154998Y-80124624D01*
X130101342Y-80171117D01*
X130073582Y-80180082D01*
X129919021Y-80210826D01*
X129874370Y-80219708D01*
X129870167Y-80221184D01*
X129624108Y-80307593D01*
X129624105Y-80307594D01*
X129619900Y-80309071D01*
X129615947Y-80311124D01*
X129615941Y-80311127D01*
X129481126Y-80381159D01*
X129380560Y-80433399D01*
X129376945Y-80435982D01*
X129376939Y-80435986D01*
X129335584Y-80465539D01*
X129161125Y-80590209D01*
X128965974Y-80776373D01*
X128799001Y-80988178D01*
X128663538Y-81221396D01*
X128661870Y-81225513D01*
X128661867Y-81225520D01*
X128641555Y-81275669D01*
X128562286Y-81471374D01*
X128497267Y-81733125D01*
X128469777Y-82001425D01*
X128480366Y-82270923D01*
X128528821Y-82536240D01*
X128614177Y-82792082D01*
X128616169Y-82796069D01*
X128616170Y-82796071D01*
X128695507Y-82954849D01*
X128734729Y-83033346D01*
X128888073Y-83255216D01*
X128891089Y-83258478D01*
X128891094Y-83258485D01*
X129068124Y-83449994D01*
X129071150Y-83453267D01*
X129175727Y-83538406D01*
X129276843Y-83620728D01*
X129276848Y-83620731D01*
X129280305Y-83623546D01*
X129511366Y-83762657D01*
X129515461Y-83764391D01*
X129515463Y-83764392D01*
X129755622Y-83866086D01*
X129755629Y-83866088D01*
X129759723Y-83867822D01*
X130020421Y-83936945D01*
X130024842Y-83937468D01*
X130024846Y-83937469D01*
X130046030Y-83939976D01*
X130063810Y-83942080D01*
X130129107Y-83969950D01*
X130168971Y-84028698D01*
X130175000Y-84067207D01*
X130175000Y-85599000D01*
X130154998Y-85667121D01*
X130101342Y-85713614D01*
X130049000Y-85725000D01*
X123316000Y-85725000D01*
X123247879Y-85704998D01*
X123201386Y-85651342D01*
X123190000Y-85599000D01*
X123190000Y-71347600D01*
X123210002Y-71279479D01*
X123263658Y-71232986D01*
X123316000Y-71221600D01*
X130049000Y-71221600D01*
X130117121Y-71241602D01*
G37*
%TD.AperFunction*%
%TD*%
%TA.AperFunction,Conductor*%
%TO.N,/12V 3A Switching Regulator/lm5576_sw*%
G36*
X83254121Y-100223002D02*
G01*
X83300614Y-100276658D01*
X83312000Y-100329000D01*
X83312000Y-101658500D01*
X83291998Y-101726621D01*
X83238342Y-101773114D01*
X83186000Y-101784500D01*
X82191398Y-101784500D01*
X82186848Y-101785170D01*
X82186845Y-101785170D01*
X82131408Y-101793331D01*
X82131407Y-101793331D01*
X82121722Y-101794757D01*
X82057577Y-101826251D01*
X82022234Y-101843603D01*
X81966703Y-101856500D01*
X81397130Y-101856500D01*
X81352901Y-101848482D01*
X81348335Y-101846770D01*
X81301345Y-101829155D01*
X81236843Y-101804974D01*
X81236841Y-101804974D01*
X81229448Y-101802202D01*
X81221598Y-101801349D01*
X81221597Y-101801349D01*
X81171153Y-101795869D01*
X81171152Y-101795869D01*
X81167756Y-101795500D01*
X80122244Y-101795500D01*
X80118848Y-101795869D01*
X80118847Y-101795869D01*
X80068403Y-101801349D01*
X80068402Y-101801349D01*
X80060552Y-101802202D01*
X80053159Y-101804974D01*
X80053157Y-101804974D01*
X80014954Y-101819296D01*
X79925236Y-101852929D01*
X79918057Y-101858309D01*
X79918054Y-101858311D01*
X79830023Y-101924287D01*
X79809596Y-101939596D01*
X79804215Y-101946776D01*
X79729826Y-102046033D01*
X79672967Y-102088548D01*
X79602148Y-102093574D01*
X79539855Y-102059514D01*
X79528174Y-102046033D01*
X79453785Y-101946776D01*
X79448404Y-101939596D01*
X79427977Y-101924287D01*
X79339946Y-101858311D01*
X79339943Y-101858309D01*
X79332764Y-101852929D01*
X79243046Y-101819296D01*
X79204843Y-101804974D01*
X79204841Y-101804974D01*
X79197448Y-101802202D01*
X79189598Y-101801349D01*
X79189597Y-101801349D01*
X79139153Y-101795869D01*
X79139152Y-101795869D01*
X79135756Y-101795500D01*
X78090244Y-101795500D01*
X78086848Y-101795869D01*
X78086847Y-101795869D01*
X78036403Y-101801349D01*
X78036402Y-101801349D01*
X78028552Y-101802202D01*
X78021159Y-101804974D01*
X78021157Y-101804974D01*
X77982954Y-101819296D01*
X77893236Y-101852929D01*
X77886057Y-101858309D01*
X77886054Y-101858311D01*
X77798023Y-101924287D01*
X77777596Y-101939596D01*
X77772215Y-101946776D01*
X77696311Y-102048054D01*
X77696309Y-102048057D01*
X77690929Y-102055236D01*
X77640202Y-102190552D01*
X77633500Y-102252244D01*
X77633500Y-102847756D01*
X77640202Y-102909448D01*
X77690929Y-103044764D01*
X77696309Y-103051943D01*
X77696311Y-103051946D01*
X77752001Y-103126253D01*
X77777596Y-103160404D01*
X77784776Y-103165785D01*
X77886054Y-103241689D01*
X77886057Y-103241691D01*
X77893236Y-103247071D01*
X77982954Y-103280704D01*
X78021157Y-103295026D01*
X78021159Y-103295026D01*
X78028552Y-103297798D01*
X78036402Y-103298651D01*
X78036403Y-103298651D01*
X78069477Y-103302244D01*
X78090244Y-103304500D01*
X78647373Y-103304500D01*
X78715494Y-103324502D01*
X78736468Y-103341405D01*
X79004692Y-103609629D01*
X79020166Y-103628787D01*
X79021050Y-103629759D01*
X79026699Y-103638507D01*
X79034876Y-103644953D01*
X79053331Y-103659502D01*
X79057820Y-103663491D01*
X79057879Y-103663421D01*
X79061842Y-103666779D01*
X79065520Y-103670457D01*
X79081374Y-103681786D01*
X79086085Y-103685323D01*
X79126701Y-103717342D01*
X79135410Y-103720400D01*
X79142917Y-103725765D01*
X79171589Y-103734340D01*
X79192425Y-103740571D01*
X79198058Y-103742401D01*
X79246848Y-103759535D01*
X79252448Y-103760020D01*
X79255154Y-103760020D01*
X79257846Y-103760136D01*
X79257890Y-103760149D01*
X79257882Y-103760329D01*
X79258654Y-103760378D01*
X79264918Y-103762251D01*
X79319235Y-103760117D01*
X79324181Y-103760020D01*
X81154393Y-103760020D01*
X81222514Y-103780022D01*
X81243488Y-103796925D01*
X81858595Y-104412032D01*
X81892621Y-104474344D01*
X81895500Y-104501127D01*
X81895500Y-106247756D01*
X81902202Y-106309448D01*
X81904974Y-106316841D01*
X81904974Y-106316843D01*
X81929689Y-106382771D01*
X81934872Y-106453579D01*
X81900950Y-106515947D01*
X81838695Y-106550076D01*
X81811707Y-106553000D01*
X61340000Y-106553000D01*
X61271879Y-106532998D01*
X61225386Y-106479342D01*
X61214000Y-106427000D01*
X61214000Y-100329000D01*
X61234002Y-100260879D01*
X61287658Y-100214386D01*
X61340000Y-100203000D01*
X83186000Y-100203000D01*
X83254121Y-100223002D01*
G37*
%TD.AperFunction*%
%TD*%
%TA.AperFunction,Conductor*%
%TO.N,VCC*%
G36*
X96970121Y-95651002D02*
G01*
X97016614Y-95704658D01*
X97028000Y-95757000D01*
X97028000Y-101474000D01*
X97007998Y-101542121D01*
X96954342Y-101588614D01*
X96902000Y-101600000D01*
X89705500Y-101600000D01*
X89637379Y-101579998D01*
X89590886Y-101526342D01*
X89579500Y-101474000D01*
X89579500Y-101455398D01*
X89569243Y-101385722D01*
X89517230Y-101279784D01*
X89433706Y-101196405D01*
X89327677Y-101144577D01*
X89297355Y-101140153D01*
X89263128Y-101135160D01*
X89263124Y-101135160D01*
X89258602Y-101134500D01*
X87916398Y-101134500D01*
X87911851Y-101135169D01*
X87911842Y-101135170D01*
X87901350Y-101136715D01*
X87831043Y-101126847D01*
X87777231Y-101080534D01*
X87757000Y-101012058D01*
X87757000Y-100215961D01*
X87777002Y-100147840D01*
X87830658Y-100101347D01*
X87901189Y-100091281D01*
X87916398Y-100093500D01*
X89258602Y-100093500D01*
X89263152Y-100092830D01*
X89263155Y-100092830D01*
X89318592Y-100084669D01*
X89318593Y-100084669D01*
X89328278Y-100083243D01*
X89378678Y-100058498D01*
X89424868Y-100035820D01*
X89424870Y-100035819D01*
X89434216Y-100031230D01*
X89493301Y-99972043D01*
X89524163Y-99953713D01*
X89528247Y-99949000D01*
X89535000Y-99949000D01*
X89535000Y-99935453D01*
X89537879Y-99922217D01*
X89539329Y-99922532D01*
X89547800Y-99885913D01*
X89565127Y-99850465D01*
X89569423Y-99841677D01*
X89579500Y-99772602D01*
X89579500Y-99505398D01*
X89579164Y-99503117D01*
X89594012Y-99434302D01*
X89644129Y-99384015D01*
X89704702Y-99368500D01*
X91585488Y-99368500D01*
X91609436Y-99371049D01*
X91611101Y-99371128D01*
X91621284Y-99373320D01*
X91631625Y-99372096D01*
X91654631Y-99369373D01*
X91660562Y-99369023D01*
X91660554Y-99368928D01*
X91665732Y-99368500D01*
X91670932Y-99368500D01*
X91676061Y-99367646D01*
X91676064Y-99367646D01*
X91689973Y-99365331D01*
X91695851Y-99364494D01*
X91736409Y-99359694D01*
X91736410Y-99359694D01*
X91746749Y-99358470D01*
X91755001Y-99354507D01*
X91764034Y-99353004D01*
X91773203Y-99348057D01*
X91773205Y-99348056D01*
X91809140Y-99328666D01*
X91814433Y-99325969D01*
X91853490Y-99307215D01*
X91853494Y-99307212D01*
X91860640Y-99303781D01*
X91864916Y-99300186D01*
X91866839Y-99298263D01*
X91868771Y-99296491D01*
X91868850Y-99296448D01*
X91868963Y-99296572D01*
X91869503Y-99296096D01*
X91875222Y-99293010D01*
X91911825Y-99253413D01*
X91915254Y-99249848D01*
X92940216Y-98224886D01*
X92958964Y-98209744D01*
X92960189Y-98208629D01*
X92968940Y-98202979D01*
X92975387Y-98194801D01*
X92975389Y-98194799D01*
X92989729Y-98176608D01*
X92993675Y-98172167D01*
X92993602Y-98172105D01*
X92996961Y-98168141D01*
X93000638Y-98164464D01*
X93011892Y-98148716D01*
X93015398Y-98144046D01*
X93047156Y-98103761D01*
X93050188Y-98095127D01*
X93055514Y-98087674D01*
X93070203Y-98038558D01*
X93072036Y-98032916D01*
X93086390Y-97992041D01*
X93086390Y-97992040D01*
X93089018Y-97984557D01*
X93089500Y-97978992D01*
X93089500Y-97976284D01*
X93089614Y-97973650D01*
X93089643Y-97973552D01*
X93089807Y-97973559D01*
X93089851Y-97972855D01*
X93091713Y-97966630D01*
X93089597Y-97912773D01*
X93089500Y-97907826D01*
X93089500Y-95757000D01*
X93109502Y-95688879D01*
X93163158Y-95642386D01*
X93215500Y-95631000D01*
X96902000Y-95631000D01*
X96970121Y-95651002D01*
G37*
%TD.AperFunction*%
%TD*%
%TA.AperFunction,Conductor*%
%TO.N,+12V*%
G36*
X79817065Y-58405329D02*
G01*
X79863656Y-58458900D01*
X79875137Y-58511596D01*
X79874762Y-58834049D01*
X79869882Y-63025169D01*
X79849801Y-63093266D01*
X79832977Y-63114117D01*
X79756865Y-63190229D01*
X79700132Y-63301573D01*
X79685500Y-63393955D01*
X79685501Y-63796044D01*
X79700132Y-63888427D01*
X79756865Y-63999771D01*
X79831651Y-64074557D01*
X79865677Y-64136869D01*
X79868556Y-64163797D01*
X79868532Y-64184645D01*
X79848451Y-64252743D01*
X79794742Y-64299174D01*
X79742532Y-64310500D01*
X79710166Y-64310500D01*
X79615445Y-64325502D01*
X79501277Y-64383674D01*
X79410674Y-64474277D01*
X79352502Y-64588445D01*
X79337500Y-64683166D01*
X79337500Y-65046834D01*
X79352502Y-65141555D01*
X79410674Y-65255723D01*
X79501277Y-65346326D01*
X79615445Y-65404498D01*
X79710166Y-65419500D01*
X79754346Y-65419500D01*
X79822467Y-65439502D01*
X79867011Y-65490908D01*
X79867000Y-65500000D01*
X81900000Y-65500000D01*
X81968121Y-65520002D01*
X82014614Y-65573658D01*
X82026000Y-65626000D01*
X82026000Y-66771129D01*
X82005998Y-66839250D01*
X81952342Y-66885743D01*
X81900130Y-66897129D01*
X81807450Y-66897224D01*
X81611586Y-66897426D01*
X81554255Y-66883692D01*
X81518555Y-66865502D01*
X81423834Y-66850500D01*
X79710166Y-66850500D01*
X79615445Y-66865502D01*
X79575525Y-66885843D01*
X79518455Y-66899575D01*
X78367021Y-66900757D01*
X77463760Y-66901684D01*
X77395619Y-66881752D01*
X77349071Y-66828144D01*
X77337643Y-66777441D01*
X77320106Y-65520002D01*
X77228824Y-58975256D01*
X77247874Y-58906864D01*
X77300876Y-58859627D01*
X77354812Y-58847500D01*
X77880834Y-58847500D01*
X77975555Y-58832498D01*
X78089723Y-58774326D01*
X78180326Y-58683723D01*
X78238498Y-58569555D01*
X78250428Y-58494230D01*
X78280840Y-58430077D01*
X78341108Y-58392550D01*
X78374648Y-58387941D01*
X79748909Y-58385450D01*
X79817065Y-58405329D01*
G37*
%TD.AperFunction*%
%TD*%
%TA.AperFunction,Conductor*%
%TO.N,GND*%
G36*
X119457852Y-80996435D02*
G01*
X119502299Y-81026134D01*
X119514468Y-81028555D01*
X119514469Y-81028555D01*
X119569414Y-81039484D01*
X119576533Y-81040900D01*
X120751410Y-81040900D01*
X121926666Y-81040899D01*
X122000901Y-81026134D01*
X122011218Y-81019241D01*
X122011219Y-81019240D01*
X122045348Y-80996435D01*
X122115351Y-80975200D01*
X122804500Y-80975200D01*
X122872621Y-80995202D01*
X122919114Y-81048858D01*
X122930500Y-81101200D01*
X122930500Y-85599000D01*
X122910498Y-85667121D01*
X122856842Y-85713614D01*
X122804500Y-85725000D01*
X118858377Y-85725000D01*
X118790256Y-85704998D01*
X118743763Y-85651342D01*
X118732377Y-85599000D01*
X118732377Y-81101200D01*
X118752379Y-81033079D01*
X118806035Y-80986586D01*
X118858377Y-80975200D01*
X119387849Y-80975200D01*
X119457852Y-80996435D01*
G37*
%TD.AperFunction*%
%TD*%
%TA.AperFunction,Conductor*%
%TO.N,+12V*%
G36*
X82028621Y-90258002D02*
G01*
X82075114Y-90311658D01*
X82086500Y-90364000D01*
X82086501Y-90677051D01*
X82086501Y-90880314D01*
X82089507Y-90912127D01*
X82134791Y-91041076D01*
X82140387Y-91048652D01*
X82211851Y-91145406D01*
X82236234Y-91212085D01*
X82236500Y-91220266D01*
X82236500Y-91530391D01*
X82216498Y-91598512D01*
X82162842Y-91645005D01*
X82154735Y-91648371D01*
X82121236Y-91660929D01*
X82114057Y-91666309D01*
X82114054Y-91666311D01*
X82034516Y-91725922D01*
X82005596Y-91747596D01*
X82000215Y-91754776D01*
X81924311Y-91856054D01*
X81924309Y-91856057D01*
X81918929Y-91863236D01*
X81868202Y-91998552D01*
X81861500Y-92060244D01*
X81861500Y-93105756D01*
X81868202Y-93167448D01*
X81918929Y-93302764D01*
X81924309Y-93309943D01*
X81924311Y-93309946D01*
X81972002Y-93373580D01*
X82005596Y-93418404D01*
X82012776Y-93423785D01*
X82114054Y-93499689D01*
X82114057Y-93499691D01*
X82121236Y-93505071D01*
X82189768Y-93530762D01*
X82226462Y-93544518D01*
X82283227Y-93587159D01*
X82307927Y-93653721D01*
X82292720Y-93723069D01*
X82242434Y-93773188D01*
X82226461Y-93780482D01*
X82121236Y-93819929D01*
X82114057Y-93825309D01*
X82114054Y-93825311D01*
X82026023Y-93891287D01*
X82005596Y-93906596D01*
X82000215Y-93913776D01*
X81924311Y-94015054D01*
X81924309Y-94015057D01*
X81918929Y-94022236D01*
X81868202Y-94157552D01*
X81861500Y-94219244D01*
X81861500Y-95264756D01*
X81861869Y-95268152D01*
X81861869Y-95268153D01*
X81862015Y-95269492D01*
X81868202Y-95326448D01*
X81918929Y-95461764D01*
X81924309Y-95468943D01*
X81924311Y-95468946D01*
X81945843Y-95497676D01*
X82005596Y-95577404D01*
X82012776Y-95582785D01*
X82114054Y-95658689D01*
X82114057Y-95658691D01*
X82121236Y-95664071D01*
X82154730Y-95676627D01*
X82211494Y-95719269D01*
X82236194Y-95785830D01*
X82236500Y-95794609D01*
X82236500Y-95819051D01*
X82216498Y-95887172D01*
X82162842Y-95933665D01*
X82140696Y-95940207D01*
X82140763Y-95940424D01*
X82131409Y-95943331D01*
X82121722Y-95944757D01*
X82071322Y-95969502D01*
X82025132Y-95992180D01*
X82025130Y-95992181D01*
X82015784Y-95996770D01*
X81932405Y-96080294D01*
X81880577Y-96186323D01*
X81870500Y-96255398D01*
X81870500Y-96522602D01*
X81880757Y-96592278D01*
X81932770Y-96698216D01*
X82016294Y-96781595D01*
X82122323Y-96833423D01*
X82152645Y-96837847D01*
X82186872Y-96842840D01*
X82186876Y-96842840D01*
X82191398Y-96843500D01*
X83313000Y-96843500D01*
X83381121Y-96863502D01*
X83427614Y-96917158D01*
X83439000Y-96969500D01*
X83439000Y-97108500D01*
X83418998Y-97176621D01*
X83365342Y-97223114D01*
X83313000Y-97234500D01*
X82191398Y-97234500D01*
X82191398Y-97233023D01*
X82128280Y-97219411D01*
X82089864Y-97185273D01*
X82089346Y-97185722D01*
X82042853Y-97132066D01*
X82009564Y-97099944D01*
X81919845Y-97053013D01*
X81913909Y-97051270D01*
X81856047Y-97034280D01*
X81856043Y-97034279D01*
X81851724Y-97033011D01*
X81847276Y-97032371D01*
X81847269Y-97032370D01*
X81783063Y-97023139D01*
X81783056Y-97023139D01*
X81778615Y-97022500D01*
X80542382Y-97022500D01*
X80474261Y-97002498D01*
X80456645Y-96988832D01*
X80290802Y-96834835D01*
X78825834Y-95474507D01*
X78808317Y-95459630D01*
X78790702Y-95445965D01*
X78704751Y-95402013D01*
X78699096Y-95400352D01*
X78699092Y-95400351D01*
X78640953Y-95383280D01*
X78640949Y-95383279D01*
X78636630Y-95382011D01*
X78632182Y-95381371D01*
X78632175Y-95381370D01*
X78567969Y-95372139D01*
X78567962Y-95372139D01*
X78563521Y-95371500D01*
X70865000Y-95371500D01*
X70861654Y-95371860D01*
X70861649Y-95371860D01*
X70813205Y-95377068D01*
X70813199Y-95377069D01*
X70809841Y-95377430D01*
X70757499Y-95388816D01*
X70730709Y-95396166D01*
X70723858Y-95400067D01*
X70723856Y-95400068D01*
X70675414Y-95427653D01*
X70642722Y-95446269D01*
X70638046Y-95450321D01*
X70609034Y-95475460D01*
X70589066Y-95492762D01*
X70556944Y-95526051D01*
X70510013Y-95615770D01*
X70508270Y-95621706D01*
X70495831Y-95664071D01*
X70490011Y-95683891D01*
X70489371Y-95688339D01*
X70489370Y-95688346D01*
X70481039Y-95746293D01*
X70479500Y-95757000D01*
X70479500Y-99696000D01*
X70485363Y-99750533D01*
X70472758Y-99820399D01*
X70424379Y-99872362D01*
X70360085Y-99890000D01*
X58927000Y-99890000D01*
X58858879Y-99869998D01*
X58812386Y-99816342D01*
X58801000Y-99764000D01*
X58801000Y-95315577D01*
X58802501Y-95296189D01*
X58802750Y-95294588D01*
X58803500Y-95289774D01*
X58803500Y-95274173D01*
X58803846Y-95264836D01*
X58806890Y-95223869D01*
X58807555Y-95214921D01*
X58805682Y-95206145D01*
X58805133Y-95198097D01*
X58803500Y-95182625D01*
X58803500Y-90766146D01*
X58823502Y-90698025D01*
X58840405Y-90677051D01*
X59242551Y-90274905D01*
X59304863Y-90240879D01*
X59331646Y-90238000D01*
X81960500Y-90238000D01*
X82028621Y-90258002D01*
G37*
%TD.AperFunction*%
%TD*%
%TA.AperFunction,Conductor*%
%TO.N,/Input_Protection/VCC_INPUT*%
G36*
X137047621Y-73324402D02*
G01*
X137094114Y-73378058D01*
X137105500Y-73430400D01*
X137105500Y-85599000D01*
X137085498Y-85667121D01*
X137031842Y-85713614D01*
X136979500Y-85725000D01*
X130560500Y-85725000D01*
X130492379Y-85704998D01*
X130445886Y-85651342D01*
X130434500Y-85599000D01*
X130434500Y-84088264D01*
X130454502Y-84020143D01*
X130508158Y-83973650D01*
X130549134Y-83964252D01*
X130548998Y-83962815D01*
X130553430Y-83962396D01*
X130557887Y-83962291D01*
X130642987Y-83948127D01*
X130819542Y-83918740D01*
X130819546Y-83918739D01*
X130823932Y-83918009D01*
X130828173Y-83916668D01*
X130828176Y-83916667D01*
X131076838Y-83838026D01*
X131076840Y-83838025D01*
X131081084Y-83836683D01*
X131085095Y-83834757D01*
X131085100Y-83834755D01*
X131320192Y-83721865D01*
X131320193Y-83721864D01*
X131324211Y-83719935D01*
X131436974Y-83644589D01*
X131544755Y-83572572D01*
X131544759Y-83572569D01*
X131548463Y-83570094D01*
X131551780Y-83567123D01*
X131551784Y-83567120D01*
X131746049Y-83393122D01*
X131749365Y-83390152D01*
X131922909Y-83183697D01*
X132065631Y-82954849D01*
X132174685Y-82708174D01*
X132247894Y-82448595D01*
X132283797Y-82181290D01*
X132287565Y-82061400D01*
X132268517Y-81792368D01*
X132211751Y-81528704D01*
X132118402Y-81275669D01*
X131990330Y-81038311D01*
X131830093Y-80821367D01*
X131826974Y-80818198D01*
X131826970Y-80818194D01*
X131736790Y-80726587D01*
X131640886Y-80629164D01*
X131426485Y-80465539D01*
X131191168Y-80333755D01*
X131186742Y-80332043D01*
X130943785Y-80238049D01*
X130943779Y-80238047D01*
X130939630Y-80236442D01*
X130935298Y-80235438D01*
X130935295Y-80235437D01*
X130827943Y-80210554D01*
X130676890Y-80175542D01*
X130579974Y-80167148D01*
X130549628Y-80164520D01*
X130483487Y-80138715D01*
X130441797Y-80081248D01*
X130434500Y-80038990D01*
X130434500Y-73430400D01*
X130454502Y-73362279D01*
X130508158Y-73315786D01*
X130560500Y-73304400D01*
X136979500Y-73304400D01*
X137047621Y-73324402D01*
G37*
%TD.AperFunction*%
%TD*%
%TA.AperFunction,Conductor*%
%TO.N,/3.3V 1A Switching regulator/regulator_ph*%
G36*
X85622031Y-62758002D02*
G01*
X85668524Y-62811658D01*
X85678359Y-62844290D01*
X85681481Y-62864000D01*
X85683132Y-62874427D01*
X85739865Y-62985771D01*
X85828229Y-63074135D01*
X85939573Y-63130868D01*
X85949363Y-63132419D01*
X85949364Y-63132419D01*
X85975101Y-63136495D01*
X86031955Y-63145500D01*
X86232979Y-63145500D01*
X86434044Y-63145499D01*
X86438994Y-63144715D01*
X86439016Y-63144718D01*
X86443869Y-63144336D01*
X86443949Y-63145356D01*
X86509404Y-63153815D01*
X86563287Y-63198889D01*
X86606908Y-63263805D01*
X86612527Y-63268918D01*
X86612528Y-63268919D01*
X86623903Y-63279269D01*
X86724076Y-63370419D01*
X86863293Y-63446008D01*
X87016522Y-63486207D01*
X87100477Y-63487526D01*
X87167319Y-63488576D01*
X87167322Y-63488576D01*
X87174916Y-63488695D01*
X87329332Y-63453329D01*
X87399742Y-63417917D01*
X87464072Y-63385563D01*
X87464075Y-63385561D01*
X87470855Y-63382151D01*
X87476626Y-63377222D01*
X87476629Y-63377220D01*
X87585536Y-63284204D01*
X87585536Y-63284203D01*
X87591314Y-63279269D01*
X87683755Y-63150624D01*
X87742842Y-63003641D01*
X87765162Y-62846807D01*
X87767075Y-62847079D01*
X87789477Y-62787964D01*
X87846534Y-62745715D01*
X87889948Y-62738000D01*
X94192638Y-62738000D01*
X99569094Y-62741993D01*
X99637199Y-62762046D01*
X99683652Y-62815736D01*
X99695000Y-62867993D01*
X99695000Y-69089000D01*
X99674998Y-69157121D01*
X99621342Y-69203614D01*
X99569000Y-69215000D01*
X88304499Y-69215000D01*
X88236378Y-69194998D01*
X88189885Y-69141342D01*
X88178499Y-69089000D01*
X88178499Y-68983956D01*
X88177638Y-68978516D01*
X88163868Y-68891573D01*
X88167119Y-68891058D01*
X88165584Y-68837123D01*
X88202253Y-68776329D01*
X88265968Y-68745010D01*
X88336501Y-68753110D01*
X88347551Y-68758430D01*
X88387293Y-68780008D01*
X88540522Y-68820207D01*
X88624477Y-68821526D01*
X88691319Y-68822576D01*
X88691322Y-68822576D01*
X88698916Y-68822695D01*
X88853332Y-68787329D01*
X88937475Y-68745010D01*
X88988072Y-68719563D01*
X88988075Y-68719561D01*
X88994855Y-68716151D01*
X89000626Y-68711222D01*
X89000629Y-68711220D01*
X89109536Y-68618204D01*
X89109536Y-68618203D01*
X89115314Y-68613269D01*
X89207755Y-68484624D01*
X89266842Y-68337641D01*
X89289162Y-68180807D01*
X89289307Y-68167000D01*
X89270276Y-68009733D01*
X89214280Y-67861546D01*
X89147824Y-67764851D01*
X89125724Y-67697383D01*
X89139397Y-67636282D01*
X89185553Y-67545695D01*
X89190054Y-67536862D01*
X89204500Y-67445653D01*
X89204499Y-67114348D01*
X89190054Y-67023138D01*
X89134040Y-66913204D01*
X89079931Y-66859095D01*
X89045905Y-66796783D01*
X89050970Y-66725968D01*
X89079931Y-66680905D01*
X89134040Y-66626796D01*
X89190054Y-66516862D01*
X89204500Y-66425653D01*
X89204499Y-66094348D01*
X89195316Y-66036364D01*
X89191606Y-66012936D01*
X89191605Y-66012934D01*
X89190054Y-66003138D01*
X89162100Y-65948274D01*
X89138540Y-65902036D01*
X89134040Y-65893204D01*
X89046796Y-65805960D01*
X88936862Y-65749946D01*
X88927073Y-65748396D01*
X88927071Y-65748395D01*
X88900579Y-65744199D01*
X88845653Y-65735500D01*
X88630044Y-65735500D01*
X88414348Y-65735501D01*
X88409455Y-65736276D01*
X88409454Y-65736276D01*
X88332936Y-65748394D01*
X88332934Y-65748395D01*
X88323138Y-65749946D01*
X88314301Y-65754449D01*
X88314300Y-65754449D01*
X88274687Y-65774633D01*
X88213204Y-65805960D01*
X88194261Y-65824903D01*
X88131949Y-65858929D01*
X88061134Y-65853864D01*
X88031103Y-65837743D01*
X88025785Y-65833879D01*
X88018771Y-65826865D01*
X88009935Y-65822363D01*
X88009934Y-65822362D01*
X87965967Y-65799960D01*
X87907427Y-65770132D01*
X87897637Y-65768581D01*
X87897636Y-65768581D01*
X87871899Y-65764505D01*
X87815045Y-65755500D01*
X87614041Y-65755500D01*
X87412956Y-65755501D01*
X87389792Y-65759170D01*
X87330371Y-65768580D01*
X87330369Y-65768581D01*
X87320573Y-65770132D01*
X87209229Y-65826865D01*
X87120865Y-65915229D01*
X87064132Y-66026573D01*
X87049500Y-66118955D01*
X87049501Y-66461044D01*
X87050276Y-66465937D01*
X87058346Y-66516890D01*
X87064132Y-66553427D01*
X87120865Y-66664771D01*
X87136999Y-66680905D01*
X87171025Y-66743217D01*
X87165960Y-66814032D01*
X87136999Y-66859095D01*
X87120865Y-66875229D01*
X87097016Y-66922036D01*
X87079352Y-66956703D01*
X87030604Y-67008318D01*
X86967085Y-67025500D01*
X86736739Y-67025500D01*
X86668618Y-67005498D01*
X86647644Y-66988595D01*
X86582723Y-66923674D01*
X86501458Y-66882267D01*
X86449843Y-66833518D01*
X86432777Y-66764603D01*
X86455678Y-66697402D01*
X86501458Y-66657733D01*
X86507313Y-66654750D01*
X86582723Y-66616326D01*
X86673326Y-66525723D01*
X86731498Y-66411555D01*
X86746500Y-66316834D01*
X86746500Y-65953166D01*
X86731498Y-65858445D01*
X86673326Y-65744277D01*
X86582723Y-65653674D01*
X86468555Y-65595502D01*
X86373834Y-65580500D01*
X84708000Y-65580500D01*
X84639879Y-65560498D01*
X84593386Y-65506842D01*
X84582000Y-65454500D01*
X84582000Y-62864000D01*
X84602002Y-62795879D01*
X84655658Y-62749386D01*
X84708000Y-62738000D01*
X85553910Y-62738000D01*
X85622031Y-62758002D01*
G37*
%TD.AperFunction*%
%TD*%
%TA.AperFunction,Conductor*%
%TO.N,VCC*%
G36*
X121668999Y-70750504D02*
G01*
X121694177Y-70788208D01*
X121695866Y-70796701D01*
X121752116Y-70880884D01*
X121836299Y-70937134D01*
X121910533Y-70951900D01*
X121932467Y-70951900D01*
X122886018Y-70951899D01*
X122954138Y-70971901D01*
X123000631Y-71025557D01*
X123010735Y-71095831D01*
X122997665Y-71136300D01*
X122963881Y-71200885D01*
X122963877Y-71200895D01*
X122961013Y-71206370D01*
X122959270Y-71212306D01*
X122944356Y-71263100D01*
X122941011Y-71274491D01*
X122940371Y-71278939D01*
X122940370Y-71278946D01*
X122931139Y-71343152D01*
X122930500Y-71347600D01*
X122930500Y-80589700D01*
X122910498Y-80657821D01*
X122856842Y-80704314D01*
X122804500Y-80715700D01*
X122115351Y-80715700D01*
X122110770Y-80716380D01*
X122110764Y-80716380D01*
X122044620Y-80726192D01*
X122044619Y-80726192D01*
X122040023Y-80726874D01*
X121970020Y-80748109D01*
X121925212Y-80769302D01*
X121871342Y-80781399D01*
X120751700Y-80781399D01*
X119631863Y-80781400D01*
X119577991Y-80769303D01*
X119537375Y-80750093D01*
X119537374Y-80750093D01*
X119533180Y-80748109D01*
X119528747Y-80746764D01*
X119528741Y-80746762D01*
X119488829Y-80734655D01*
X119463177Y-80726874D01*
X119458581Y-80726192D01*
X119458580Y-80726192D01*
X119392436Y-80716380D01*
X119392430Y-80716380D01*
X119387849Y-80715700D01*
X118858377Y-80715700D01*
X118790256Y-80695698D01*
X118743763Y-80642042D01*
X118732377Y-80589700D01*
X118732377Y-72993772D01*
X118752379Y-72925651D01*
X118806035Y-72879158D01*
X118876309Y-72869054D01*
X118940889Y-72898548D01*
X118970378Y-72939442D01*
X118971066Y-72942901D01*
X119027316Y-73027084D01*
X119111499Y-73083334D01*
X119185733Y-73098100D01*
X120310618Y-73098100D01*
X121435866Y-73098099D01*
X121471618Y-73090988D01*
X121497926Y-73085756D01*
X121497928Y-73085755D01*
X121510101Y-73083334D01*
X121520421Y-73076439D01*
X121520422Y-73076438D01*
X121583968Y-73033977D01*
X121594284Y-73027084D01*
X121650534Y-72942901D01*
X121665300Y-72868667D01*
X121665299Y-71618534D01*
X121658188Y-71582782D01*
X121652956Y-71556474D01*
X121652955Y-71556472D01*
X121650534Y-71544299D01*
X121611495Y-71485873D01*
X121601177Y-71470432D01*
X121594284Y-71460116D01*
X121510101Y-71403866D01*
X121435867Y-71389100D01*
X120816300Y-71389100D01*
X120748179Y-71369098D01*
X120701686Y-71315442D01*
X120690300Y-71263100D01*
X120690300Y-71108300D01*
X120710302Y-71040179D01*
X120763958Y-70993686D01*
X120816300Y-70982300D01*
X121110756Y-70982300D01*
X121114153Y-70981931D01*
X121164597Y-70976451D01*
X121164598Y-70976451D01*
X121172448Y-70975598D01*
X121179841Y-70972826D01*
X121179843Y-70972826D01*
X121238883Y-70950693D01*
X121307764Y-70924871D01*
X121314943Y-70919491D01*
X121314946Y-70919489D01*
X121416224Y-70843585D01*
X121423404Y-70838204D01*
X121454509Y-70796701D01*
X121479028Y-70763985D01*
X121535887Y-70721470D01*
X121606706Y-70716444D01*
X121668999Y-70750504D01*
G37*
%TD.AperFunction*%
%TD*%
%TA.AperFunction,Conductor*%
%TO.N,GND*%
G36*
X83514460Y-93983478D02*
G01*
X83545369Y-93992722D01*
X83551006Y-93994554D01*
X83591887Y-94008910D01*
X83599371Y-94011538D01*
X83604936Y-94012020D01*
X83607644Y-94012020D01*
X83610278Y-94012134D01*
X83610376Y-94012163D01*
X83610369Y-94012327D01*
X83611073Y-94012371D01*
X83617298Y-94014233D01*
X83671155Y-94012117D01*
X83676102Y-94012020D01*
X87156334Y-94012020D01*
X87224455Y-94032022D01*
X87270948Y-94085678D01*
X87281052Y-94155952D01*
X87278135Y-94167311D01*
X87278802Y-94167470D01*
X87276974Y-94175157D01*
X87274202Y-94182552D01*
X87267500Y-94244244D01*
X87267500Y-95239756D01*
X87274202Y-95301448D01*
X87276974Y-95308841D01*
X87276974Y-95308843D01*
X87281842Y-95321829D01*
X87324929Y-95436764D01*
X87330309Y-95443943D01*
X87330311Y-95443946D01*
X87396287Y-95531977D01*
X87411596Y-95552404D01*
X87418776Y-95557785D01*
X87520054Y-95633689D01*
X87520057Y-95633691D01*
X87527236Y-95639071D01*
X87616954Y-95672704D01*
X87655157Y-95687026D01*
X87655159Y-95687026D01*
X87662552Y-95689798D01*
X87670402Y-95690651D01*
X87670403Y-95690651D01*
X87720847Y-95696131D01*
X87724244Y-95696500D01*
X88344756Y-95696500D01*
X88348153Y-95696131D01*
X88398597Y-95690651D01*
X88398598Y-95690651D01*
X88406448Y-95689798D01*
X88413841Y-95687026D01*
X88413843Y-95687026D01*
X88452046Y-95672704D01*
X88541764Y-95639071D01*
X88548943Y-95633691D01*
X88548946Y-95633689D01*
X88650224Y-95557785D01*
X88657404Y-95552404D01*
X88672713Y-95531977D01*
X88738689Y-95443946D01*
X88738691Y-95443943D01*
X88744071Y-95436764D01*
X88787158Y-95321829D01*
X88792026Y-95308843D01*
X88792026Y-95308841D01*
X88794798Y-95301448D01*
X88801500Y-95239756D01*
X88801588Y-95239766D01*
X88824927Y-95173739D01*
X88881022Y-95130220D01*
X88927081Y-95121500D01*
X89152587Y-95121500D01*
X89176535Y-95124049D01*
X89178200Y-95124128D01*
X89188383Y-95126320D01*
X89198724Y-95125096D01*
X89221730Y-95122373D01*
X89227661Y-95122023D01*
X89227653Y-95121928D01*
X89232831Y-95121500D01*
X89238031Y-95121500D01*
X89243160Y-95120646D01*
X89243163Y-95120646D01*
X89257072Y-95118331D01*
X89262950Y-95117494D01*
X89303508Y-95112694D01*
X89303509Y-95112694D01*
X89313848Y-95111470D01*
X89322100Y-95107507D01*
X89331133Y-95106004D01*
X89340302Y-95101057D01*
X89340304Y-95101056D01*
X89376239Y-95081666D01*
X89381532Y-95078969D01*
X89420589Y-95060215D01*
X89420593Y-95060212D01*
X89427739Y-95056781D01*
X89432015Y-95053186D01*
X89433938Y-95051263D01*
X89435870Y-95049491D01*
X89435949Y-95049448D01*
X89436062Y-95049572D01*
X89436602Y-95049096D01*
X89442321Y-95046010D01*
X89478924Y-95006413D01*
X89482353Y-95002848D01*
X89700905Y-94784296D01*
X89763217Y-94750270D01*
X89834032Y-94755335D01*
X89890868Y-94797882D01*
X89915679Y-94864402D01*
X89916000Y-94873391D01*
X89916000Y-95369729D01*
X89895998Y-95437850D01*
X89865510Y-95470597D01*
X89850659Y-95481714D01*
X89850655Y-95481718D01*
X89847057Y-95484411D01*
X89752903Y-95578565D01*
X89717976Y-95621943D01*
X89716152Y-95624787D01*
X89716148Y-95624792D01*
X89694885Y-95657938D01*
X89688942Y-95667203D01*
X89675117Y-95691552D01*
X89648493Y-95789241D01*
X89643547Y-95860065D01*
X89644450Y-95906312D01*
X89674867Y-96002887D01*
X89677841Y-96008312D01*
X89707638Y-96062667D01*
X89707645Y-96062678D01*
X89708996Y-96065143D01*
X89710568Y-96067487D01*
X89734763Y-96103567D01*
X89733068Y-96104704D01*
X89758737Y-96158134D01*
X89752374Y-96222719D01*
X89705202Y-96348552D01*
X89698500Y-96410244D01*
X89698500Y-96533500D01*
X89678498Y-96601621D01*
X89624842Y-96648114D01*
X89572500Y-96659500D01*
X89489453Y-96659500D01*
X89435708Y-96642310D01*
X89433706Y-96646405D01*
X89327677Y-96594577D01*
X89297355Y-96590153D01*
X89263128Y-96585160D01*
X89263124Y-96585160D01*
X89258602Y-96584500D01*
X87916398Y-96584500D01*
X87911848Y-96585170D01*
X87911845Y-96585170D01*
X87856408Y-96593331D01*
X87856407Y-96593331D01*
X87846722Y-96594757D01*
X87832742Y-96601621D01*
X87750132Y-96642180D01*
X87750130Y-96642181D01*
X87740784Y-96646770D01*
X87657405Y-96730294D01*
X87605577Y-96836323D01*
X87595500Y-96905398D01*
X87595500Y-97172602D01*
X87596170Y-97177152D01*
X87596170Y-97177155D01*
X87604331Y-97232592D01*
X87605757Y-97242278D01*
X87610074Y-97251070D01*
X87610074Y-97251071D01*
X87638240Y-97308440D01*
X87650308Y-97378403D01*
X87638337Y-97419303D01*
X87605577Y-97486323D01*
X87595500Y-97555398D01*
X87595500Y-97822602D01*
X87605757Y-97892278D01*
X87610074Y-97901070D01*
X87610074Y-97901071D01*
X87638240Y-97958440D01*
X87650308Y-98028403D01*
X87638337Y-98069303D01*
X87605577Y-98136323D01*
X87595500Y-98205398D01*
X87595500Y-98472602D01*
X87596170Y-98477152D01*
X87596170Y-98477155D01*
X87603634Y-98527854D01*
X87605757Y-98542278D01*
X87610074Y-98551070D01*
X87610074Y-98551071D01*
X87638240Y-98608440D01*
X87650308Y-98678403D01*
X87638337Y-98719303D01*
X87605577Y-98786323D01*
X87595500Y-98855398D01*
X87595500Y-99122602D01*
X87605757Y-99192278D01*
X87610074Y-99201070D01*
X87610074Y-99201071D01*
X87638240Y-99258440D01*
X87650308Y-99328403D01*
X87638337Y-99369303D01*
X87605577Y-99436323D01*
X87595500Y-99505398D01*
X87595500Y-99772602D01*
X87605757Y-99842278D01*
X87610072Y-99851067D01*
X87610869Y-99853631D01*
X87611982Y-99924619D01*
X87585699Y-99970659D01*
X87586473Y-99971217D01*
X87581229Y-99978489D01*
X87581216Y-99978512D01*
X87581202Y-99978526D01*
X87581200Y-99978529D01*
X87574944Y-99985012D01*
X87528013Y-100074731D01*
X87508011Y-100142852D01*
X87507371Y-100147300D01*
X87507370Y-100147307D01*
X87506207Y-100155398D01*
X87497500Y-100215961D01*
X87497500Y-101012058D01*
X87508134Y-101085585D01*
X87528365Y-101154061D01*
X87545571Y-101197469D01*
X87586347Y-101249597D01*
X87590961Y-101255496D01*
X87617177Y-101321475D01*
X87612098Y-101370335D01*
X87609873Y-101377535D01*
X87605577Y-101386323D01*
X87595500Y-101455398D01*
X87595500Y-101722602D01*
X87596170Y-101727152D01*
X87596170Y-101727155D01*
X87604331Y-101782592D01*
X87605757Y-101792278D01*
X87610074Y-101801070D01*
X87610074Y-101801071D01*
X87638240Y-101858440D01*
X87650308Y-101928403D01*
X87638337Y-101969303D01*
X87605577Y-102036323D01*
X87595500Y-102105398D01*
X87595500Y-102372602D01*
X87596170Y-102377152D01*
X87596170Y-102377155D01*
X87604331Y-102432592D01*
X87605757Y-102442278D01*
X87610073Y-102451068D01*
X87652926Y-102538349D01*
X87657770Y-102548216D01*
X87741294Y-102631595D01*
X87847323Y-102683423D01*
X87877645Y-102687847D01*
X87911872Y-102692840D01*
X87911876Y-102692840D01*
X87916398Y-102693500D01*
X88617109Y-102693500D01*
X88685230Y-102713502D01*
X88706204Y-102730405D01*
X89245595Y-103269796D01*
X89279621Y-103332108D01*
X89282500Y-103358891D01*
X89282500Y-103819080D01*
X89279951Y-103843028D01*
X89279872Y-103844693D01*
X89277680Y-103854876D01*
X89278904Y-103865217D01*
X89281627Y-103888223D01*
X89281977Y-103894154D01*
X89282072Y-103894146D01*
X89282500Y-103899324D01*
X89282500Y-103904524D01*
X89283354Y-103909653D01*
X89283354Y-103909656D01*
X89285669Y-103923565D01*
X89286506Y-103929443D01*
X89292530Y-103980341D01*
X89296493Y-103988593D01*
X89297996Y-103997626D01*
X89302943Y-104006795D01*
X89302944Y-104006797D01*
X89322334Y-104042732D01*
X89325031Y-104048025D01*
X89343785Y-104087082D01*
X89343788Y-104087086D01*
X89347219Y-104094232D01*
X89350814Y-104098508D01*
X89352737Y-104100431D01*
X89354509Y-104102363D01*
X89354552Y-104102442D01*
X89354428Y-104102555D01*
X89354904Y-104103095D01*
X89357990Y-104108814D01*
X89365635Y-104115881D01*
X89397586Y-104145416D01*
X89401152Y-104148846D01*
X89657595Y-104405289D01*
X89691621Y-104467601D01*
X89694500Y-104494384D01*
X89694501Y-104905388D01*
X89700870Y-104964024D01*
X89749083Y-105092635D01*
X89754463Y-105099814D01*
X89754465Y-105099817D01*
X89826077Y-105195367D01*
X89831456Y-105202544D01*
X89838633Y-105207923D01*
X89934183Y-105279535D01*
X89934186Y-105279537D01*
X89941365Y-105284917D01*
X89949769Y-105288067D01*
X89949770Y-105288068D01*
X90062581Y-105330358D01*
X90062582Y-105330358D01*
X90069976Y-105333130D01*
X90077826Y-105333983D01*
X90077827Y-105333983D01*
X90125205Y-105339130D01*
X90128611Y-105339500D01*
X90423956Y-105339500D01*
X90719388Y-105339499D01*
X90722782Y-105339130D01*
X90722788Y-105339130D01*
X90770166Y-105333984D01*
X90770170Y-105333983D01*
X90778024Y-105333130D01*
X90906635Y-105284917D01*
X90913814Y-105279537D01*
X90913817Y-105279535D01*
X91009367Y-105207923D01*
X91016544Y-105202544D01*
X91021923Y-105195367D01*
X91093535Y-105099817D01*
X91093537Y-105099814D01*
X91098917Y-105092635D01*
X91147130Y-104964024D01*
X91153500Y-104905389D01*
X91153499Y-104364612D01*
X91147130Y-104305976D01*
X91098917Y-104177365D01*
X91093537Y-104170186D01*
X91093535Y-104170183D01*
X91021923Y-104074633D01*
X91016544Y-104067456D01*
X90935608Y-104006797D01*
X90913817Y-103990465D01*
X90913814Y-103990463D01*
X90906635Y-103985083D01*
X90898230Y-103981932D01*
X90785419Y-103939642D01*
X90785418Y-103939642D01*
X90778024Y-103936870D01*
X90770174Y-103936017D01*
X90770173Y-103936017D01*
X90722786Y-103930869D01*
X90722785Y-103930869D01*
X90719389Y-103930500D01*
X90690934Y-103930500D01*
X90308385Y-103930501D01*
X90240265Y-103910499D01*
X90219290Y-103893596D01*
X90078405Y-103752711D01*
X90044379Y-103690399D01*
X90041500Y-103663616D01*
X90041500Y-103203427D01*
X90044049Y-103179480D01*
X90044128Y-103177814D01*
X90046320Y-103167631D01*
X90045096Y-103157289D01*
X90045096Y-103157286D01*
X90042374Y-103134294D01*
X90042023Y-103128353D01*
X90041928Y-103128361D01*
X90041500Y-103123181D01*
X90041500Y-103117983D01*
X90038329Y-103098931D01*
X90037492Y-103093054D01*
X90032693Y-103052504D01*
X90032692Y-103052502D01*
X90031469Y-103042166D01*
X90027508Y-103033917D01*
X90026004Y-103024881D01*
X90021056Y-103015710D01*
X90001652Y-102979747D01*
X89998957Y-102974458D01*
X89980212Y-102935422D01*
X89976780Y-102928275D01*
X89973186Y-102923999D01*
X89971246Y-102922059D01*
X89969493Y-102920148D01*
X89969444Y-102920058D01*
X89969567Y-102919946D01*
X89969095Y-102919411D01*
X89966010Y-102913693D01*
X89926413Y-102877090D01*
X89922848Y-102873661D01*
X89603388Y-102554201D01*
X89569362Y-102491889D01*
X89571501Y-102441980D01*
X89569423Y-102441677D01*
X89578840Y-102377128D01*
X89578840Y-102377124D01*
X89579500Y-102372602D01*
X89579500Y-102105398D01*
X89569243Y-102035722D01*
X89564930Y-102026937D01*
X89563088Y-102021010D01*
X89561974Y-101950022D01*
X89599416Y-101889702D01*
X89663526Y-101859199D01*
X89696526Y-101858942D01*
X89696555Y-101858539D01*
X89701052Y-101858861D01*
X89705500Y-101859500D01*
X96902000Y-101859500D01*
X96970121Y-101879502D01*
X97016614Y-101933158D01*
X97028000Y-101985500D01*
X97028000Y-106622000D01*
X97007998Y-106690121D01*
X96954342Y-106736614D01*
X96902000Y-106748000D01*
X83596699Y-106748000D01*
X83528578Y-106727998D01*
X83482085Y-106674342D01*
X83471981Y-106604068D01*
X83495873Y-106546435D01*
X83566689Y-106451946D01*
X83566691Y-106451943D01*
X83572071Y-106444764D01*
X83622798Y-106309448D01*
X83629500Y-106247756D01*
X83629500Y-103302244D01*
X83622798Y-103240552D01*
X83572071Y-103105236D01*
X83566691Y-103098057D01*
X83566689Y-103098054D01*
X83500713Y-103010023D01*
X83485404Y-102989596D01*
X83438999Y-102954818D01*
X83392977Y-102920326D01*
X83350462Y-102863467D01*
X83345436Y-102792648D01*
X83379496Y-102730355D01*
X83441827Y-102696365D01*
X83468542Y-102693500D01*
X83533602Y-102693500D01*
X83538152Y-102692830D01*
X83538155Y-102692830D01*
X83593592Y-102684669D01*
X83593593Y-102684669D01*
X83603278Y-102683243D01*
X83653678Y-102658498D01*
X83699868Y-102635820D01*
X83699870Y-102635819D01*
X83709216Y-102631230D01*
X83792595Y-102547706D01*
X83844423Y-102441677D01*
X83854500Y-102372602D01*
X83854500Y-102105398D01*
X83845757Y-102046003D01*
X83845669Y-102045408D01*
X83845668Y-102045404D01*
X83844243Y-102035722D01*
X83837020Y-102021010D01*
X83811760Y-101969560D01*
X83799692Y-101899597D01*
X83811663Y-101858697D01*
X83823327Y-101834834D01*
X83844423Y-101791677D01*
X83854500Y-101722602D01*
X83854500Y-101455398D01*
X83844243Y-101385722D01*
X83839926Y-101376929D01*
X83811760Y-101319560D01*
X83799692Y-101249597D01*
X83811663Y-101208697D01*
X83821260Y-101189063D01*
X83844423Y-101141677D01*
X83854500Y-101072602D01*
X83854500Y-100805398D01*
X83844243Y-100735722D01*
X83839926Y-100726929D01*
X83811760Y-100669560D01*
X83799692Y-100599597D01*
X83811663Y-100558697D01*
X83840127Y-100500465D01*
X83844423Y-100491677D01*
X83854500Y-100422602D01*
X83854500Y-100155398D01*
X83853309Y-100147307D01*
X83851631Y-100135903D01*
X83861500Y-100065596D01*
X83907270Y-100015378D01*
X83905848Y-100013368D01*
X83910898Y-100009794D01*
X83916278Y-100006731D01*
X83941343Y-99985012D01*
X83967811Y-99962078D01*
X83967816Y-99962073D01*
X83969934Y-99960238D01*
X84002056Y-99926949D01*
X84048987Y-99837230D01*
X84054293Y-99819159D01*
X84067720Y-99773432D01*
X84067721Y-99773428D01*
X84068989Y-99769109D01*
X84079500Y-99696000D01*
X84079500Y-98879068D01*
X84076317Y-98838547D01*
X84070172Y-98799677D01*
X84070023Y-98798865D01*
X84069102Y-98793849D01*
X84069101Y-98793846D01*
X84067842Y-98786990D01*
X84038996Y-98719303D01*
X84030571Y-98699533D01*
X84030569Y-98699529D01*
X84028146Y-98693844D01*
X83988105Y-98635216D01*
X83958714Y-98599492D01*
X83874961Y-98542594D01*
X83809579Y-98514921D01*
X83765541Y-98500759D01*
X83711303Y-98499373D01*
X83670514Y-98498331D01*
X83670512Y-98498331D01*
X83664322Y-98498173D01*
X83658218Y-98499226D01*
X83658216Y-98499226D01*
X83598792Y-98509476D01*
X83598787Y-98509477D01*
X83594359Y-98510241D01*
X83590087Y-98511627D01*
X83590077Y-98511629D01*
X83540051Y-98527854D01*
X83501180Y-98534000D01*
X82295000Y-98534000D01*
X82226879Y-98513998D01*
X82180386Y-98460342D01*
X82169000Y-98408000D01*
X82169000Y-98137668D01*
X82173936Y-98103242D01*
X82173816Y-98103209D01*
X82174082Y-98102245D01*
X82174359Y-98101298D01*
X82178446Y-98085512D01*
X82181032Y-97984293D01*
X82170834Y-97925171D01*
X82169000Y-97903753D01*
X82169000Y-97620000D01*
X82189002Y-97551879D01*
X82242658Y-97505386D01*
X82295000Y-97494000D01*
X83313000Y-97494000D01*
X83316096Y-97493667D01*
X83322327Y-97493500D01*
X83533602Y-97493500D01*
X83538152Y-97492830D01*
X83538155Y-97492830D01*
X83593592Y-97484669D01*
X83593593Y-97484669D01*
X83603278Y-97483243D01*
X83653678Y-97458498D01*
X83699868Y-97435820D01*
X83699870Y-97435819D01*
X83709216Y-97431230D01*
X83792595Y-97347706D01*
X83844423Y-97241677D01*
X83854500Y-97172602D01*
X83854500Y-96905398D01*
X83845757Y-96846003D01*
X83845669Y-96845408D01*
X83845669Y-96845407D01*
X83844243Y-96835722D01*
X83839926Y-96826929D01*
X83811760Y-96769560D01*
X83799692Y-96699597D01*
X83811663Y-96658697D01*
X83840127Y-96600465D01*
X83844423Y-96591677D01*
X83854500Y-96522602D01*
X83854500Y-96255398D01*
X83849690Y-96222719D01*
X83845669Y-96195408D01*
X83845669Y-96195407D01*
X83844243Y-96185722D01*
X83792230Y-96079784D01*
X83784860Y-96072427D01*
X83784858Y-96072424D01*
X83719580Y-96007260D01*
X83685500Y-95944978D01*
X83687422Y-95890680D01*
X83685765Y-95890320D01*
X83686720Y-95885929D01*
X83687989Y-95881609D01*
X83690684Y-95862868D01*
X83697861Y-95812948D01*
X83697861Y-95812941D01*
X83698500Y-95808500D01*
X83698500Y-95667199D01*
X83698335Y-95657938D01*
X83698014Y-95648949D01*
X83684539Y-95581207D01*
X83682805Y-95572489D01*
X83682804Y-95572487D01*
X83681817Y-95567523D01*
X83657006Y-95501003D01*
X83637042Y-95459275D01*
X83569381Y-95383950D01*
X83564426Y-95380241D01*
X83564422Y-95380237D01*
X83514799Y-95343090D01*
X83514794Y-95343087D01*
X83512545Y-95341403D01*
X83473189Y-95317092D01*
X83463167Y-95314343D01*
X83461994Y-95313618D01*
X83456237Y-95311112D01*
X83456597Y-95310284D01*
X83402765Y-95277033D01*
X83372123Y-95212989D01*
X83370500Y-95192832D01*
X83370500Y-94219244D01*
X83366514Y-94182552D01*
X83364651Y-94165403D01*
X83364651Y-94165402D01*
X83363798Y-94157552D01*
X83360376Y-94148423D01*
X83360270Y-94146979D01*
X83359198Y-94142470D01*
X83359927Y-94142297D01*
X83355193Y-94077618D01*
X83389113Y-94015249D01*
X83451369Y-93981120D01*
X83514460Y-93983478D01*
G37*
%TD.AperFunction*%
%TA.AperFunction,Conductor*%
G36*
X89858121Y-90131002D02*
G01*
X89904614Y-90184658D01*
X89916000Y-90237000D01*
X89916000Y-92077500D01*
X89895998Y-92145621D01*
X89842342Y-92192114D01*
X89790000Y-92203500D01*
X88927081Y-92203500D01*
X88858960Y-92183498D01*
X88812467Y-92129842D01*
X88801500Y-92085274D01*
X88801500Y-92085244D01*
X88794798Y-92023552D01*
X88791283Y-92014174D01*
X88747221Y-91896640D01*
X88744071Y-91888236D01*
X88738691Y-91881057D01*
X88738689Y-91881054D01*
X88662785Y-91779776D01*
X88657404Y-91772596D01*
X88633627Y-91754776D01*
X88548946Y-91691311D01*
X88548943Y-91691309D01*
X88541764Y-91685929D01*
X88452046Y-91652296D01*
X88413843Y-91637974D01*
X88413841Y-91637974D01*
X88406448Y-91635202D01*
X88398598Y-91634349D01*
X88398597Y-91634349D01*
X88348153Y-91628869D01*
X88348152Y-91628869D01*
X88344756Y-91628500D01*
X87724244Y-91628500D01*
X87720848Y-91628869D01*
X87720847Y-91628869D01*
X87670403Y-91634349D01*
X87670402Y-91634349D01*
X87662552Y-91635202D01*
X87655159Y-91637974D01*
X87655157Y-91637974D01*
X87616954Y-91652296D01*
X87527236Y-91685929D01*
X87520057Y-91691309D01*
X87520054Y-91691311D01*
X87435373Y-91754776D01*
X87411596Y-91772596D01*
X87406215Y-91779776D01*
X87330311Y-91881054D01*
X87330309Y-91881057D01*
X87324929Y-91888236D01*
X87321779Y-91896640D01*
X87277718Y-92014174D01*
X87274202Y-92023552D01*
X87267500Y-92085244D01*
X87267500Y-93080756D01*
X87271048Y-93113412D01*
X87258521Y-93183293D01*
X87210201Y-93235309D01*
X87145785Y-93253020D01*
X87098215Y-93253020D01*
X87030094Y-93233018D01*
X86983601Y-93179362D01*
X86972952Y-93113412D01*
X86976500Y-93080756D01*
X86976500Y-92085244D01*
X86969798Y-92023552D01*
X86966283Y-92014174D01*
X86922221Y-91896640D01*
X86919071Y-91888236D01*
X86913691Y-91881057D01*
X86913689Y-91881054D01*
X86837785Y-91779776D01*
X86832404Y-91772596D01*
X86808627Y-91754776D01*
X86723946Y-91691311D01*
X86723943Y-91691309D01*
X86716764Y-91685929D01*
X86627046Y-91652296D01*
X86588843Y-91637974D01*
X86588841Y-91637974D01*
X86581448Y-91635202D01*
X86573598Y-91634349D01*
X86573597Y-91634349D01*
X86523153Y-91628869D01*
X86523152Y-91628869D01*
X86519756Y-91628500D01*
X85899244Y-91628500D01*
X85895848Y-91628869D01*
X85895847Y-91628869D01*
X85845403Y-91634349D01*
X85845402Y-91634349D01*
X85837552Y-91635202D01*
X85830159Y-91637974D01*
X85830157Y-91637974D01*
X85791954Y-91652296D01*
X85702236Y-91685929D01*
X85695057Y-91691309D01*
X85695054Y-91691311D01*
X85610373Y-91754776D01*
X85586596Y-91772596D01*
X85581215Y-91779776D01*
X85505311Y-91881054D01*
X85505309Y-91881057D01*
X85499929Y-91888236D01*
X85496779Y-91896639D01*
X85479168Y-91943617D01*
X85436527Y-92000382D01*
X85369966Y-92025082D01*
X85300617Y-92009875D01*
X85250498Y-91959589D01*
X85243204Y-91943617D01*
X85225593Y-91896639D01*
X85213071Y-91863236D01*
X85207691Y-91856057D01*
X85207689Y-91856054D01*
X85141108Y-91767215D01*
X85126404Y-91747596D01*
X85104140Y-91730910D01*
X85017946Y-91666311D01*
X85017943Y-91666309D01*
X85010764Y-91660929D01*
X84921046Y-91627296D01*
X84882843Y-91612974D01*
X84882841Y-91612974D01*
X84875448Y-91610202D01*
X84867598Y-91609349D01*
X84867597Y-91609349D01*
X84817153Y-91603869D01*
X84817152Y-91603869D01*
X84813756Y-91603500D01*
X84218244Y-91603500D01*
X84214848Y-91603869D01*
X84214847Y-91603869D01*
X84164403Y-91609349D01*
X84164402Y-91609349D01*
X84156552Y-91610202D01*
X84149159Y-91612974D01*
X84149157Y-91612974D01*
X84110954Y-91627296D01*
X84021236Y-91660929D01*
X84014057Y-91666309D01*
X84014054Y-91666311D01*
X83905596Y-91747596D01*
X83904622Y-91746296D01*
X83851283Y-91775422D01*
X83780468Y-91770357D01*
X83723632Y-91727810D01*
X83698821Y-91661290D01*
X83698500Y-91652301D01*
X83698500Y-91272946D01*
X83690644Y-91209577D01*
X83675617Y-91149903D01*
X83664353Y-91115508D01*
X83608642Y-91030960D01*
X83558763Y-90980436D01*
X83556617Y-90978619D01*
X83530334Y-90956365D01*
X83530331Y-90956363D01*
X83523457Y-90950543D01*
X83515219Y-90946894D01*
X83515214Y-90946891D01*
X83470471Y-90927072D01*
X83416287Y-90881195D01*
X83395500Y-90811868D01*
X83395499Y-90237000D01*
X83415501Y-90168879D01*
X83469157Y-90122386D01*
X83521499Y-90111000D01*
X89790000Y-90111000D01*
X89858121Y-90131002D01*
G37*
%TD.AperFunction*%
%TD*%
%TA.AperFunction,Conductor*%
%TO.N,GND*%
G36*
X88712976Y-54149535D02*
G01*
X88759469Y-54203191D01*
X88770118Y-54269139D01*
X88767869Y-54289842D01*
X88767868Y-54289853D01*
X88767500Y-54293244D01*
X88767500Y-55688756D01*
X88774202Y-55750448D01*
X88824929Y-55885764D01*
X88830311Y-55892945D01*
X88834624Y-55900823D01*
X88831911Y-55902308D01*
X88851371Y-55954411D01*
X88851685Y-55965083D01*
X88845927Y-56410906D01*
X88830459Y-56469786D01*
X88830314Y-56470051D01*
X88824929Y-56477236D01*
X88821778Y-56485641D01*
X88821777Y-56485643D01*
X88781363Y-56593449D01*
X88774202Y-56612552D01*
X88767500Y-56674244D01*
X88767500Y-58069756D01*
X88774202Y-58131448D01*
X88776974Y-58138844D01*
X88776975Y-58138846D01*
X88813744Y-58236930D01*
X88821751Y-58282785D01*
X88820874Y-58350689D01*
X88819779Y-58435522D01*
X88825336Y-58492392D01*
X88836711Y-58546361D01*
X88844412Y-58574791D01*
X88862439Y-58606448D01*
X88867492Y-58615322D01*
X88884000Y-58677671D01*
X88884000Y-61392175D01*
X88863998Y-61460296D01*
X88863262Y-61461361D01*
X88858084Y-61466591D01*
X88853805Y-61474521D01*
X88853803Y-61474523D01*
X88812937Y-61550250D01*
X88809998Y-61555697D01*
X88789118Y-61623554D01*
X88777664Y-61696521D01*
X88777606Y-61701026D01*
X88774644Y-61930359D01*
X88753764Y-61998216D01*
X88744015Y-62011088D01*
X88378033Y-62434856D01*
X88318370Y-62473338D01*
X88282673Y-62478500D01*
X87889948Y-62478500D01*
X87887195Y-62478743D01*
X87887189Y-62478743D01*
X87870292Y-62480233D01*
X87844544Y-62482503D01*
X87841817Y-62482988D01*
X87841814Y-62482988D01*
X87835737Y-62484068D01*
X87801130Y-62490218D01*
X87800056Y-62490447D01*
X87800052Y-62490448D01*
X87790788Y-62492425D01*
X87790786Y-62492426D01*
X87783672Y-62493944D01*
X87778983Y-62496157D01*
X87708897Y-62498965D01*
X87647682Y-62463004D01*
X87635687Y-62448112D01*
X87604855Y-62403251D01*
X87604854Y-62403249D01*
X87600553Y-62396992D01*
X87482275Y-62291611D01*
X87342274Y-62217484D01*
X87188633Y-62178892D01*
X87181034Y-62178852D01*
X87181033Y-62178852D01*
X87115181Y-62178507D01*
X87030221Y-62178062D01*
X87022841Y-62179834D01*
X87022839Y-62179834D01*
X86883563Y-62213271D01*
X86883560Y-62213272D01*
X86876184Y-62215043D01*
X86869441Y-62218523D01*
X86862314Y-62221174D01*
X86861809Y-62219815D01*
X86813700Y-62231500D01*
X86773596Y-62231500D01*
X86705475Y-62211498D01*
X86684501Y-62194595D01*
X86637771Y-62147865D01*
X86526427Y-62091132D01*
X86516637Y-62089581D01*
X86516636Y-62089581D01*
X86490899Y-62085505D01*
X86434045Y-62076500D01*
X86233041Y-62076500D01*
X86031956Y-62076501D01*
X86008792Y-62080170D01*
X85949371Y-62089580D01*
X85949369Y-62089581D01*
X85939573Y-62091132D01*
X85828229Y-62147865D01*
X85739865Y-62236229D01*
X85683132Y-62347573D01*
X85681581Y-62357364D01*
X85681581Y-62357365D01*
X85679220Y-62372272D01*
X85648808Y-62436425D01*
X85588540Y-62473953D01*
X85553910Y-62477418D01*
X85553910Y-62478500D01*
X84708000Y-62478500D01*
X84704654Y-62478860D01*
X84704649Y-62478860D01*
X84656205Y-62484068D01*
X84656199Y-62484069D01*
X84652841Y-62484430D01*
X84600499Y-62495816D01*
X84573709Y-62503166D01*
X84566858Y-62507067D01*
X84566856Y-62507068D01*
X84515272Y-62536442D01*
X84485722Y-62553269D01*
X84432066Y-62599762D01*
X84399944Y-62633051D01*
X84353013Y-62722770D01*
X84351270Y-62728706D01*
X84341886Y-62760667D01*
X84333011Y-62790891D01*
X84322500Y-62864000D01*
X84322500Y-64518946D01*
X84308767Y-64576148D01*
X84307004Y-64579608D01*
X84307003Y-64579612D01*
X84302502Y-64588445D01*
X84287500Y-64683166D01*
X84287500Y-65046834D01*
X84302502Y-65141555D01*
X84307003Y-65150388D01*
X84307004Y-65150392D01*
X84308767Y-65153852D01*
X84322500Y-65211054D01*
X84322500Y-65454500D01*
X84322860Y-65457846D01*
X84322860Y-65457851D01*
X84327318Y-65499312D01*
X84328430Y-65509659D01*
X84339816Y-65562001D01*
X84347166Y-65588791D01*
X84351067Y-65595642D01*
X84351068Y-65595644D01*
X84394206Y-65671399D01*
X84397269Y-65676778D01*
X84443762Y-65730434D01*
X84477051Y-65762556D01*
X84566770Y-65809487D01*
X84572706Y-65811230D01*
X84630568Y-65828220D01*
X84630572Y-65828221D01*
X84634891Y-65829489D01*
X84639339Y-65830129D01*
X84639346Y-65830130D01*
X84703552Y-65839361D01*
X84703559Y-65839361D01*
X84708000Y-65840000D01*
X86343497Y-65840000D01*
X86363204Y-65841551D01*
X86364707Y-65841789D01*
X86428861Y-65872199D01*
X86466390Y-65932466D01*
X86471000Y-65966238D01*
X86471000Y-66304796D01*
X86450998Y-66372917D01*
X86402211Y-66417058D01*
X86389531Y-66423520D01*
X86389510Y-66423528D01*
X86389511Y-66423529D01*
X86387053Y-66424781D01*
X86387049Y-66424783D01*
X86383656Y-66426512D01*
X86380498Y-66428639D01*
X86380492Y-66428642D01*
X86358961Y-66443140D01*
X86331521Y-66461617D01*
X86285741Y-66501286D01*
X86260780Y-66526069D01*
X86210049Y-66613696D01*
X86187148Y-66680897D01*
X86176189Y-66725838D01*
X86176607Y-66734838D01*
X86176434Y-66736627D01*
X86149969Y-66802506D01*
X86092087Y-66843619D01*
X86051019Y-66850500D01*
X84660166Y-66850500D01*
X84565445Y-66865502D01*
X84451277Y-66923674D01*
X84360674Y-67014277D01*
X84302502Y-67128445D01*
X84287500Y-67223166D01*
X84287500Y-67586834D01*
X84302502Y-67681555D01*
X84360674Y-67795723D01*
X84451277Y-67886326D01*
X84501335Y-67911832D01*
X84532542Y-67927733D01*
X84584157Y-67976482D01*
X84601223Y-68045397D01*
X84578322Y-68112598D01*
X84532542Y-68152267D01*
X84451277Y-68193674D01*
X84360674Y-68284277D01*
X84302502Y-68398445D01*
X84287500Y-68493166D01*
X84287500Y-68856834D01*
X84288275Y-68861726D01*
X84288275Y-68861729D01*
X84295966Y-68910291D01*
X84286866Y-68980702D01*
X84241143Y-69035015D01*
X84171517Y-69056000D01*
X81912483Y-69056000D01*
X81844362Y-69035998D01*
X81797869Y-68982342D01*
X81788034Y-68910291D01*
X81795725Y-68861729D01*
X81795725Y-68861726D01*
X81796500Y-68856834D01*
X81796500Y-68493166D01*
X81781498Y-68398445D01*
X81723326Y-68284277D01*
X81632723Y-68193674D01*
X81551458Y-68152267D01*
X81499843Y-68103518D01*
X81482777Y-68034603D01*
X81505678Y-67967402D01*
X81551458Y-67927733D01*
X81582665Y-67911832D01*
X81632723Y-67886326D01*
X81723326Y-67795723D01*
X81781498Y-67681555D01*
X81796500Y-67586834D01*
X81796500Y-67280972D01*
X81816502Y-67212851D01*
X81870158Y-67166358D01*
X81908933Y-67155705D01*
X81955420Y-67150670D01*
X81958695Y-67149956D01*
X81958700Y-67149955D01*
X82005978Y-67139645D01*
X82005989Y-67139642D01*
X82007632Y-67139284D01*
X82009249Y-67138840D01*
X82009265Y-67138836D01*
X82026697Y-67134049D01*
X82026701Y-67134047D01*
X82034291Y-67131963D01*
X82122278Y-67081860D01*
X82144030Y-67063012D01*
X82173811Y-67037207D01*
X82173816Y-67037202D01*
X82175934Y-67035367D01*
X82208056Y-67002078D01*
X82254987Y-66912359D01*
X82267424Y-66870003D01*
X82273720Y-66848561D01*
X82273721Y-66848557D01*
X82274989Y-66844238D01*
X82276390Y-66834499D01*
X82284861Y-66775577D01*
X82284861Y-66775570D01*
X82285500Y-66771129D01*
X82285500Y-65626000D01*
X82281500Y-65588791D01*
X82279932Y-65574205D01*
X82279931Y-65574199D01*
X82279570Y-65570841D01*
X82268184Y-65518499D01*
X82260834Y-65491709D01*
X82237728Y-65451131D01*
X82213794Y-65409101D01*
X82210731Y-65403722D01*
X82164238Y-65350066D01*
X82130949Y-65317944D01*
X82041230Y-65271013D01*
X82035294Y-65269270D01*
X81977432Y-65252280D01*
X81977428Y-65252279D01*
X81973109Y-65251011D01*
X81968661Y-65250371D01*
X81968654Y-65250370D01*
X81936756Y-65245785D01*
X81900000Y-65240500D01*
X81900130Y-65239599D01*
X81837697Y-65216313D01*
X81795149Y-65159479D01*
X81788755Y-65095733D01*
X81795725Y-65051726D01*
X81796500Y-65046834D01*
X81796500Y-64813298D01*
X81816502Y-64745177D01*
X81865885Y-64700734D01*
X81892068Y-64687565D01*
X81892071Y-64687563D01*
X81898855Y-64684151D01*
X81904626Y-64679222D01*
X81904629Y-64679220D01*
X82013536Y-64586204D01*
X82013536Y-64586203D01*
X82019314Y-64581269D01*
X82111755Y-64452624D01*
X82170842Y-64305641D01*
X82193162Y-64148807D01*
X82193307Y-64135000D01*
X82174276Y-63977733D01*
X82118280Y-63829546D01*
X82028553Y-63698992D01*
X81910275Y-63593611D01*
X81902889Y-63589700D01*
X81776988Y-63523039D01*
X81776989Y-63523039D01*
X81770274Y-63519484D01*
X81616633Y-63480892D01*
X81609034Y-63480852D01*
X81609033Y-63480852D01*
X81543181Y-63480507D01*
X81458221Y-63480062D01*
X81450841Y-63481834D01*
X81450839Y-63481834D01*
X81311563Y-63515271D01*
X81311560Y-63515272D01*
X81304184Y-63517043D01*
X81163414Y-63589700D01*
X81044039Y-63693838D01*
X80952950Y-63823444D01*
X80895406Y-63971037D01*
X80894730Y-63976173D01*
X80862328Y-64032978D01*
X80621711Y-64273595D01*
X80559399Y-64307621D01*
X80532616Y-64310500D01*
X80254033Y-64310500D01*
X80185912Y-64290498D01*
X80139419Y-64236842D01*
X80128033Y-64184357D01*
X80128054Y-64165789D01*
X80128056Y-64164096D01*
X80126585Y-64136210D01*
X80123706Y-64109282D01*
X80123194Y-64107644D01*
X80121000Y-64086299D01*
X80121000Y-63092372D01*
X80122304Y-63074294D01*
X80128736Y-63029927D01*
X80129382Y-63025471D01*
X80134262Y-58834351D01*
X80134637Y-58511898D01*
X80128689Y-58456354D01*
X80124904Y-58438982D01*
X80123888Y-58434317D01*
X80121000Y-58407495D01*
X80121000Y-57485100D01*
X80141002Y-57416979D01*
X80194658Y-57370486D01*
X80247000Y-57359100D01*
X81190434Y-57359100D01*
X81285155Y-57344098D01*
X81399323Y-57285926D01*
X81489926Y-57195323D01*
X81494429Y-57186485D01*
X81500257Y-57178464D01*
X81502560Y-57180137D01*
X81540676Y-57139781D01*
X81604193Y-57122600D01*
X83326500Y-57122600D01*
X83394621Y-57142602D01*
X83441114Y-57196258D01*
X83452500Y-57248600D01*
X83452500Y-57956756D01*
X83459202Y-58018448D01*
X83509929Y-58153764D01*
X83515309Y-58160943D01*
X83515311Y-58160946D01*
X83570838Y-58235035D01*
X83596596Y-58269404D01*
X83603776Y-58274785D01*
X83705054Y-58350689D01*
X83705057Y-58350691D01*
X83712236Y-58356071D01*
X83801954Y-58389704D01*
X83840157Y-58404026D01*
X83840159Y-58404026D01*
X83847552Y-58406798D01*
X83855402Y-58407651D01*
X83855403Y-58407651D01*
X83905847Y-58413131D01*
X83909244Y-58413500D01*
X85254756Y-58413500D01*
X85258153Y-58413131D01*
X85308597Y-58407651D01*
X85308598Y-58407651D01*
X85316448Y-58406798D01*
X85323841Y-58404026D01*
X85323843Y-58404026D01*
X85362046Y-58389704D01*
X85451764Y-58356071D01*
X85458943Y-58350691D01*
X85458946Y-58350689D01*
X85560224Y-58274785D01*
X85567404Y-58269404D01*
X85593162Y-58235035D01*
X85648689Y-58160946D01*
X85648691Y-58160943D01*
X85654071Y-58153764D01*
X85704798Y-58018448D01*
X85711500Y-57956756D01*
X85711500Y-57236244D01*
X85707156Y-57196258D01*
X85705651Y-57182403D01*
X85705651Y-57182402D01*
X85704798Y-57174552D01*
X85664800Y-57067856D01*
X85659617Y-56997050D01*
X85693687Y-56934533D01*
X86020131Y-56608089D01*
X86028235Y-56600663D01*
X86047893Y-56584168D01*
X86056340Y-56577080D01*
X86061851Y-56567535D01*
X86061854Y-56567531D01*
X86074683Y-56545310D01*
X86080588Y-56536040D01*
X86095309Y-56515016D01*
X86101632Y-56505986D01*
X86104486Y-56495334D01*
X86105820Y-56492473D01*
X86106899Y-56489507D01*
X86112412Y-56479960D01*
X86114326Y-56469104D01*
X86114328Y-56469099D01*
X86118784Y-56443830D01*
X86121162Y-56433101D01*
X86127805Y-56408308D01*
X86127805Y-56408306D01*
X86130657Y-56397663D01*
X86127459Y-56361104D01*
X86126980Y-56350126D01*
X86126980Y-54312412D01*
X86146982Y-54244291D01*
X86163884Y-54223317D01*
X86220762Y-54166438D01*
X86283074Y-54132413D01*
X86309858Y-54129533D01*
X88644855Y-54129533D01*
X88712976Y-54149535D01*
G37*
%TD.AperFunction*%
%TA.AperFunction,Conductor*%
G36*
X83463685Y-53957402D02*
G01*
X83510178Y-54011058D01*
X83520282Y-54081332D01*
X83509379Y-54114030D01*
X83509929Y-54114236D01*
X83459202Y-54249552D01*
X83458349Y-54257402D01*
X83458349Y-54257403D01*
X83457180Y-54268166D01*
X83452500Y-54311244D01*
X83452500Y-55031756D01*
X83459202Y-55093448D01*
X83509929Y-55228764D01*
X83515309Y-55235943D01*
X83515311Y-55235946D01*
X83553192Y-55286490D01*
X83596596Y-55344404D01*
X83603776Y-55349785D01*
X83705054Y-55425689D01*
X83705057Y-55425691D01*
X83712236Y-55431071D01*
X83794684Y-55461979D01*
X83840157Y-55479026D01*
X83840159Y-55479026D01*
X83847552Y-55481798D01*
X83855402Y-55482651D01*
X83855403Y-55482651D01*
X83905847Y-55488131D01*
X83909244Y-55488500D01*
X85254756Y-55488500D01*
X85258153Y-55488131D01*
X85308597Y-55482651D01*
X85308598Y-55482651D01*
X85316448Y-55481798D01*
X85323843Y-55479026D01*
X85331530Y-55477198D01*
X85332044Y-55479358D01*
X85391561Y-55475003D01*
X85453929Y-55508925D01*
X85488056Y-55571181D01*
X85490980Y-55598167D01*
X85490980Y-56185610D01*
X85470978Y-56253731D01*
X85454075Y-56274705D01*
X84986185Y-56742595D01*
X84923873Y-56776621D01*
X84897090Y-56779500D01*
X84266910Y-56779500D01*
X84198789Y-56759498D01*
X84177815Y-56742595D01*
X84028669Y-56593449D01*
X84021243Y-56585345D01*
X84004748Y-56565687D01*
X83997660Y-56557240D01*
X83988115Y-56551729D01*
X83988111Y-56551726D01*
X83965890Y-56538897D01*
X83956620Y-56532992D01*
X83935596Y-56518271D01*
X83926566Y-56511948D01*
X83915914Y-56509094D01*
X83913053Y-56507760D01*
X83910087Y-56506681D01*
X83900540Y-56501168D01*
X83889684Y-56499254D01*
X83889679Y-56499252D01*
X83864410Y-56494796D01*
X83853681Y-56492418D01*
X83828894Y-56485777D01*
X83818243Y-56482923D01*
X83785622Y-56485777D01*
X83781690Y-56486121D01*
X83770708Y-56486600D01*
X81604193Y-56486600D01*
X81536072Y-56466598D01*
X81502290Y-56429259D01*
X81500257Y-56430736D01*
X81494429Y-56422715D01*
X81489926Y-56413877D01*
X81399323Y-56323274D01*
X81285155Y-56265102D01*
X81190434Y-56250100D01*
X80247000Y-56250100D01*
X80178879Y-56230098D01*
X80132386Y-56176442D01*
X80121000Y-56124100D01*
X80121000Y-55856610D01*
X80141002Y-55788489D01*
X80157905Y-55767515D01*
X80429415Y-55496005D01*
X80491727Y-55461979D01*
X80518510Y-55459100D01*
X81190434Y-55459100D01*
X81285155Y-55444098D01*
X81399323Y-55385926D01*
X81489926Y-55295323D01*
X81548098Y-55181155D01*
X81563100Y-55086434D01*
X81563100Y-54722766D01*
X81548098Y-54628045D01*
X81505030Y-54543520D01*
X81491925Y-54473743D01*
X81518625Y-54407958D01*
X81528200Y-54397221D01*
X81951115Y-53974305D01*
X82013428Y-53940280D01*
X82040211Y-53937400D01*
X83395564Y-53937400D01*
X83463685Y-53957402D01*
G37*
%TD.AperFunction*%
%TD*%
%TA.AperFunction,Conductor*%
%TO.N,GND*%
G36*
X81222121Y-86575002D02*
G01*
X81268614Y-86628658D01*
X81280000Y-86681000D01*
X81280000Y-89118354D01*
X81259998Y-89186475D01*
X81243095Y-89207449D01*
X80512099Y-89938445D01*
X80511345Y-89937691D01*
X80455738Y-89973406D01*
X80420273Y-89978500D01*
X61086000Y-89978500D01*
X61017879Y-89958498D01*
X60971386Y-89904842D01*
X60960000Y-89852500D01*
X60960000Y-86681000D01*
X60980002Y-86612879D01*
X61033658Y-86566386D01*
X61086000Y-86555000D01*
X81154000Y-86555000D01*
X81222121Y-86575002D01*
G37*
%TD.AperFunction*%
%TD*%
M02*
