%TF.GenerationSoftware,KiCad,Pcbnew,(6.0.4-0)*%
%TF.CreationDate,2022-09-03T22:07:04-04:00*%
%TF.ProjectId,QuarkCncQuadDriver,51756172-6b43-46e6-9351-756164447269,rev?*%
%TF.SameCoordinates,Original*%
%TF.FileFunction,Paste,Top*%
%TF.FilePolarity,Positive*%
%FSLAX46Y46*%
G04 Gerber Fmt 4.6, Leading zero omitted, Abs format (unit mm)*
G04 Created by KiCad (PCBNEW (6.0.4-0)) date 2022-09-03 22:07:04*
%MOMM*%
%LPD*%
G01*
G04 APERTURE LIST*
G04 Aperture macros list*
%AMRoundRect*
0 Rectangle with rounded corners*
0 $1 Rounding radius*
0 $2 $3 $4 $5 $6 $7 $8 $9 X,Y pos of 4 corners*
0 Add a 4 corners polygon primitive as box body*
4,1,4,$2,$3,$4,$5,$6,$7,$8,$9,$2,$3,0*
0 Add four circle primitives for the rounded corners*
1,1,$1+$1,$2,$3*
1,1,$1+$1,$4,$5*
1,1,$1+$1,$6,$7*
1,1,$1+$1,$8,$9*
0 Add four rect primitives between the rounded corners*
20,1,$1+$1,$2,$3,$4,$5,0*
20,1,$1+$1,$4,$5,$6,$7,0*
20,1,$1+$1,$6,$7,$8,$9,0*
20,1,$1+$1,$8,$9,$2,$3,0*%
G04 Aperture macros list end*
%ADD10R,1.000000X0.750000*%
%ADD11RoundRect,0.250000X0.262500X0.450000X-0.262500X0.450000X-0.262500X-0.450000X0.262500X-0.450000X0*%
%ADD12RoundRect,0.250000X0.650000X-0.325000X0.650000X0.325000X-0.650000X0.325000X-0.650000X-0.325000X0*%
%ADD13RoundRect,0.135000X0.135000X0.185000X-0.135000X0.185000X-0.135000X-0.185000X0.135000X-0.185000X0*%
%ADD14R,1.200000X1.400000*%
%ADD15RoundRect,0.135000X-0.185000X0.135000X-0.185000X-0.135000X0.185000X-0.135000X0.185000X0.135000X0*%
%ADD16RoundRect,0.140000X0.140000X0.170000X-0.140000X0.170000X-0.140000X-0.170000X0.140000X-0.170000X0*%
%ADD17RoundRect,0.243750X-0.456250X0.243750X-0.456250X-0.243750X0.456250X-0.243750X0.456250X0.243750X0*%
%ADD18RoundRect,0.200000X-0.200000X-0.275000X0.200000X-0.275000X0.200000X0.275000X-0.200000X0.275000X0*%
%ADD19RoundRect,0.140000X0.170000X-0.140000X0.170000X0.140000X-0.170000X0.140000X-0.170000X-0.140000X0*%
%ADD20RoundRect,0.135000X0.185000X-0.135000X0.185000X0.135000X-0.185000X0.135000X-0.185000X-0.135000X0*%
%ADD21RoundRect,0.250000X-0.262500X-0.450000X0.262500X-0.450000X0.262500X0.450000X-0.262500X0.450000X0*%
%ADD22RoundRect,0.135000X-0.135000X-0.185000X0.135000X-0.185000X0.135000X0.185000X-0.135000X0.185000X0*%
%ADD23RoundRect,0.250000X-0.312500X-0.625000X0.312500X-0.625000X0.312500X0.625000X-0.312500X0.625000X0*%
%ADD24RoundRect,0.250000X-0.325000X-0.650000X0.325000X-0.650000X0.325000X0.650000X-0.325000X0.650000X0*%
%ADD25R,1.800000X2.500000*%
%ADD26RoundRect,0.250000X-0.650000X0.325000X-0.650000X-0.325000X0.650000X-0.325000X0.650000X0.325000X0*%
%ADD27RoundRect,0.140000X-0.170000X0.140000X-0.170000X-0.140000X0.170000X-0.140000X0.170000X0.140000X0*%
%ADD28RoundRect,0.250000X0.475000X-0.250000X0.475000X0.250000X-0.475000X0.250000X-0.475000X-0.250000X0*%
%ADD29RoundRect,0.140000X-0.140000X-0.170000X0.140000X-0.170000X0.140000X0.170000X-0.140000X0.170000X0*%
%ADD30RoundRect,0.041300X0.923700X0.253700X-0.923700X0.253700X-0.923700X-0.253700X0.923700X-0.253700X0*%
%ADD31RoundRect,0.250000X0.625000X-0.312500X0.625000X0.312500X-0.625000X0.312500X-0.625000X-0.312500X0*%
%ADD32R,1.450000X0.800000*%
%ADD33RoundRect,0.150000X-0.825000X-0.150000X0.825000X-0.150000X0.825000X0.150000X-0.825000X0.150000X0*%
%ADD34RoundRect,0.250000X0.292217X-0.292217X0.292217X0.292217X-0.292217X0.292217X-0.292217X-0.292217X0*%
%ADD35RoundRect,0.050000X0.050000X-0.387500X0.050000X0.387500X-0.050000X0.387500X-0.050000X-0.387500X0*%
%ADD36RoundRect,0.050000X0.387500X-0.050000X0.387500X0.050000X-0.387500X0.050000X-0.387500X-0.050000X0*%
%ADD37RoundRect,0.250001X0.899999X0.554999X-0.899999X0.554999X-0.899999X-0.554999X0.899999X-0.554999X0*%
%ADD38RoundRect,0.100000X0.637500X0.100000X-0.637500X0.100000X-0.637500X-0.100000X0.637500X-0.100000X0*%
%ADD39R,3.050000X2.750000*%
%ADD40R,2.200000X1.200000*%
%ADD41R,1.270000X0.762000*%
%ADD42R,2.750000X3.050000*%
%ADD43R,1.200000X2.200000*%
%ADD44RoundRect,0.250000X-0.625000X0.312500X-0.625000X-0.312500X0.625000X-0.312500X0.625000X0.312500X0*%
%ADD45RoundRect,0.225000X-0.250000X0.225000X-0.250000X-0.225000X0.250000X-0.225000X0.250000X0.225000X0*%
%ADD46R,4.100000X4.100000*%
%ADD47RoundRect,0.200000X-0.275000X0.200000X-0.275000X-0.200000X0.275000X-0.200000X0.275000X0.200000X0*%
%ADD48R,2.300000X2.500000*%
%ADD49O,1.250000X0.950000*%
%ADD50O,0.890000X1.550000*%
%ADD51R,0.400000X1.350000*%
%ADD52R,1.500000X1.550000*%
%ADD53R,1.200000X1.550000*%
%ADD54RoundRect,0.150000X-0.587500X-0.150000X0.587500X-0.150000X0.587500X0.150000X-0.587500X0.150000X0*%
%ADD55RoundRect,0.150000X0.150000X-0.650000X0.150000X0.650000X-0.150000X0.650000X-0.150000X-0.650000X0*%
%ADD56RoundRect,0.250000X-0.250000X-0.475000X0.250000X-0.475000X0.250000X0.475000X-0.250000X0.475000X0*%
%ADD57R,1.300000X1.700000*%
%ADD58RoundRect,0.250000X-0.362500X-1.425000X0.362500X-1.425000X0.362500X1.425000X-0.362500X1.425000X0*%
%ADD59RoundRect,0.250000X-0.475000X0.250000X-0.475000X-0.250000X0.475000X-0.250000X0.475000X0.250000X0*%
G04 APERTURE END LIST*
D10*
%TO.C,SW2*%
X75669400Y-130170400D03*
X69669400Y-130170400D03*
X69669400Y-126420400D03*
X75669400Y-126420400D03*
%TD*%
%TO.C,SW1*%
X63655200Y-130195800D03*
X57655200Y-130195800D03*
X57655200Y-126445800D03*
X63655200Y-126445800D03*
%TD*%
D11*
%TO.C,R61*%
X120800500Y-70027800D03*
X118975500Y-70027800D03*
%TD*%
D12*
%TO.C,C50*%
X76581000Y-90883000D03*
X76581000Y-87933000D03*
%TD*%
D13*
%TO.C,R42*%
X72519000Y-52832000D03*
X71499000Y-52832000D03*
%TD*%
D14*
%TO.C,Y1*%
X73018200Y-66510800D03*
X73018200Y-68710800D03*
X74718200Y-68710800D03*
X74718200Y-66510800D03*
%TD*%
D12*
%TO.C,C56*%
X78994000Y-90883000D03*
X78994000Y-87933000D03*
%TD*%
D15*
%TO.C,R36*%
X114816000Y-44448000D03*
X114816000Y-45468000D03*
%TD*%
D16*
%TO.C,C23*%
X61671200Y-57559300D03*
X60711200Y-57559300D03*
%TD*%
D11*
%TO.C,R51*%
X88034500Y-94742000D03*
X86209500Y-94742000D03*
%TD*%
D17*
%TO.C,D1*%
X100711000Y-51386500D03*
X100711000Y-53261500D03*
%TD*%
D18*
%TO.C,R56*%
X82741000Y-90551000D03*
X84391000Y-90551000D03*
%TD*%
D19*
%TO.C,C38*%
X87614000Y-67250000D03*
X87614000Y-66290000D03*
%TD*%
D20*
%TO.C,R27*%
X105156000Y-110365000D03*
X105156000Y-109345000D03*
%TD*%
D18*
%TO.C,R44*%
X57889200Y-57813300D03*
X59539200Y-57813300D03*
%TD*%
D20*
%TO.C,R1*%
X50900000Y-36933600D03*
X50900000Y-35913600D03*
%TD*%
D19*
%TO.C,C17*%
X104648000Y-57757000D03*
X104648000Y-56797000D03*
%TD*%
D16*
%TO.C,C30*%
X61615200Y-59337300D03*
X60655200Y-59337300D03*
%TD*%
D13*
%TO.C,R25*%
X115064000Y-116459000D03*
X114044000Y-116459000D03*
%TD*%
D21*
%TO.C,R53*%
X86209500Y-92583000D03*
X88034500Y-92583000D03*
%TD*%
D19*
%TO.C,C4*%
X105664000Y-72997000D03*
X105664000Y-72037000D03*
%TD*%
D22*
%TO.C,R49*%
X85326000Y-71088000D03*
X86346000Y-71088000D03*
%TD*%
D19*
%TO.C,C12*%
X105664000Y-118082000D03*
X105664000Y-117122000D03*
%TD*%
D23*
%TO.C,R41*%
X72832500Y-62661800D03*
X75757500Y-62661800D03*
%TD*%
D16*
%TO.C,C25*%
X61643200Y-60353300D03*
X60683200Y-60353300D03*
%TD*%
D24*
%TO.C,C41*%
X86647000Y-54991000D03*
X89597000Y-54991000D03*
%TD*%
D15*
%TO.C,R8*%
X105164000Y-59688000D03*
X105164000Y-60708000D03*
%TD*%
D25*
%TO.C,D2*%
X88630000Y-64071000D03*
X88630000Y-60071000D03*
%TD*%
D19*
%TO.C,C15*%
X105156000Y-52104000D03*
X105156000Y-51144000D03*
%TD*%
D13*
%TO.C,R10*%
X115064000Y-70104000D03*
X114044000Y-70104000D03*
%TD*%
D15*
%TO.C,R32*%
X105164000Y-44448000D03*
X105164000Y-45468000D03*
%TD*%
%TO.C,R28*%
X114816000Y-104773000D03*
X114816000Y-105793000D03*
%TD*%
%TO.C,R14*%
X105664000Y-68959000D03*
X105664000Y-69979000D03*
%TD*%
D13*
%TO.C,R26*%
X115064000Y-115189000D03*
X114044000Y-115189000D03*
%TD*%
D26*
%TO.C,C42*%
X91059000Y-99998000D03*
X91059000Y-102948000D03*
%TD*%
D20*
%TO.C,R3*%
X46946000Y-34749200D03*
X46946000Y-33729200D03*
%TD*%
D27*
%TO.C,C27*%
X67791300Y-65072100D03*
X67791300Y-66032100D03*
%TD*%
%TO.C,C26*%
X63858200Y-65080300D03*
X63858200Y-66040300D03*
%TD*%
D24*
%TO.C,C34*%
X79154000Y-59404000D03*
X82104000Y-59404000D03*
%TD*%
D27*
%TO.C,R40*%
X63756200Y-69237281D03*
X63756200Y-70197281D03*
%TD*%
D28*
%TO.C,C44*%
X90678000Y-96708000D03*
X90678000Y-94808000D03*
%TD*%
D19*
%TO.C,C9*%
X104648000Y-102969000D03*
X104648000Y-102009000D03*
%TD*%
D29*
%TO.C,C20*%
X73053000Y-64262000D03*
X74013000Y-64262000D03*
%TD*%
D12*
%TO.C,C57*%
X62103000Y-90883000D03*
X62103000Y-87933000D03*
%TD*%
D24*
%TO.C,C40*%
X86647000Y-57372000D03*
X89597000Y-57372000D03*
%TD*%
D27*
%TO.C,C14*%
X105164000Y-106962000D03*
X105164000Y-107922000D03*
%TD*%
D30*
%TO.C,U5*%
X113030000Y-62230000D03*
X113030000Y-59690000D03*
X106950000Y-59690000D03*
X106950000Y-62230000D03*
%TD*%
%TO.C,U13*%
X113022000Y-112014000D03*
X113022000Y-109474000D03*
X106942000Y-109474000D03*
X106942000Y-112014000D03*
%TD*%
D19*
%TO.C,C16*%
X105664000Y-57757000D03*
X105664000Y-56797000D03*
%TD*%
%TO.C,C5*%
X104648000Y-72997000D03*
X104648000Y-72037000D03*
%TD*%
D31*
%TO.C,R59*%
X84582000Y-57596500D03*
X84582000Y-54671500D03*
%TD*%
D32*
%TO.C,U15*%
X112480000Y-117856000D03*
X112480000Y-116586000D03*
X112480000Y-115316000D03*
X112480000Y-114046000D03*
X107230000Y-114046000D03*
X107230000Y-115316000D03*
X107230000Y-116586000D03*
X107230000Y-117856000D03*
%TD*%
D13*
%TO.C,R33*%
X115064000Y-56134000D03*
X114044000Y-56134000D03*
%TD*%
D27*
%TO.C,C37*%
X87614000Y-68195000D03*
X87614000Y-69155000D03*
%TD*%
D20*
%TO.C,R35*%
X105156000Y-50040000D03*
X105156000Y-49020000D03*
%TD*%
D33*
%TO.C,U24*%
X80567000Y-64865000D03*
X80567000Y-66135000D03*
X80567000Y-67405000D03*
X80567000Y-68675000D03*
X85517000Y-68675000D03*
X85517000Y-67405000D03*
X85517000Y-66135000D03*
X85517000Y-64865000D03*
%TD*%
D19*
%TO.C,C39*%
X86233000Y-63571000D03*
X86233000Y-62611000D03*
%TD*%
%TO.C,C13*%
X104648000Y-118082000D03*
X104648000Y-117122000D03*
%TD*%
D30*
%TO.C,U11*%
X113030000Y-92202000D03*
X113030000Y-89662000D03*
X106950000Y-89662000D03*
X106950000Y-92202000D03*
%TD*%
%TO.C,U10*%
X113022000Y-96901000D03*
X113022000Y-94361000D03*
X106942000Y-94361000D03*
X106942000Y-96901000D03*
%TD*%
D13*
%TO.C,R18*%
X115064000Y-100076000D03*
X114044000Y-100076000D03*
%TD*%
D16*
%TO.C,C28*%
X61671200Y-55527300D03*
X60711200Y-55527300D03*
%TD*%
D12*
%TO.C,C55*%
X71755000Y-90883000D03*
X71755000Y-87933000D03*
%TD*%
D34*
%TO.C,U23*%
X66044700Y-59799800D03*
X67319700Y-59799800D03*
X66044700Y-61074800D03*
X67319700Y-61074800D03*
D35*
X64082200Y-63874800D03*
X64482200Y-63874800D03*
X64882200Y-63874800D03*
X65282200Y-63874800D03*
X65682200Y-63874800D03*
X66082200Y-63874800D03*
X66482200Y-63874800D03*
X66882200Y-63874800D03*
X67282200Y-63874800D03*
X67682200Y-63874800D03*
X68082200Y-63874800D03*
X68482200Y-63874800D03*
X68882200Y-63874800D03*
X69282200Y-63874800D03*
D36*
X70119700Y-63037300D03*
X70119700Y-62637300D03*
X70119700Y-62237300D03*
X70119700Y-61837300D03*
X70119700Y-61437300D03*
X70119700Y-61037300D03*
X70119700Y-60637300D03*
X70119700Y-60237300D03*
X70119700Y-59837300D03*
X70119700Y-59437300D03*
X70119700Y-59037300D03*
X70119700Y-58637300D03*
X70119700Y-58237300D03*
X70119700Y-57837300D03*
D35*
X69282200Y-56999800D03*
X68882200Y-56999800D03*
X68482200Y-56999800D03*
X68082200Y-56999800D03*
X67682200Y-56999800D03*
X67282200Y-56999800D03*
X66882200Y-56999800D03*
X66482200Y-56999800D03*
X66082200Y-56999800D03*
X65682200Y-56999800D03*
X65282200Y-56999800D03*
X64882200Y-56999800D03*
X64482200Y-56999800D03*
X64082200Y-56999800D03*
D36*
X63244700Y-57837300D03*
X63244700Y-58237300D03*
X63244700Y-58637300D03*
X63244700Y-59037300D03*
X63244700Y-59437300D03*
X63244700Y-59837300D03*
X63244700Y-60237300D03*
X63244700Y-60637300D03*
X63244700Y-61037300D03*
X63244700Y-61437300D03*
X63244700Y-61837300D03*
X63244700Y-62237300D03*
X63244700Y-62637300D03*
X63244700Y-63037300D03*
%TD*%
D12*
%TO.C,C51*%
X74168000Y-90883000D03*
X74168000Y-87933000D03*
%TD*%
D37*
%TO.C,U25*%
X85725000Y-98314000D03*
X85725000Y-100314000D03*
D38*
X88587500Y-102239000D03*
X88587500Y-101589000D03*
X88587500Y-100939000D03*
X88587500Y-100289000D03*
X88587500Y-99639000D03*
X88587500Y-98989000D03*
X88587500Y-98339000D03*
X88587500Y-97689000D03*
X88587500Y-97039000D03*
X88587500Y-96389000D03*
X82862500Y-96389000D03*
X82862500Y-97039000D03*
X82862500Y-97689000D03*
X82862500Y-98339000D03*
X82862500Y-98989000D03*
X82862500Y-99639000D03*
X82862500Y-100289000D03*
X82862500Y-100939000D03*
X82862500Y-101589000D03*
X82862500Y-102239000D03*
%TD*%
D30*
%TO.C,U16*%
X113022000Y-51689000D03*
X113022000Y-49149000D03*
X106942000Y-49149000D03*
X106942000Y-51689000D03*
%TD*%
D27*
%TO.C,C10*%
X105164000Y-91849000D03*
X105164000Y-92809000D03*
%TD*%
D24*
%TO.C,C33*%
X79154000Y-61817000D03*
X82104000Y-61817000D03*
%TD*%
D15*
%TO.C,R30*%
X105664000Y-114044000D03*
X105664000Y-115064000D03*
%TD*%
D16*
%TO.C,C19*%
X75738200Y-70993000D03*
X74778200Y-70993000D03*
%TD*%
D22*
%TO.C,R57*%
X69390800Y-54102000D03*
X70410800Y-54102000D03*
%TD*%
D29*
%TO.C,C24*%
X72545000Y-60096400D03*
X73505000Y-60096400D03*
%TD*%
D31*
%TO.C,R39*%
X55651400Y-72303100D03*
X55651400Y-69378100D03*
%TD*%
D33*
%TO.C,U26*%
X72074000Y-54483000D03*
X72074000Y-55753000D03*
X72074000Y-57023000D03*
X72074000Y-58293000D03*
X77024000Y-58293000D03*
X77024000Y-57023000D03*
X77024000Y-55753000D03*
X77024000Y-54483000D03*
%TD*%
D20*
%TO.C,R4*%
X69011800Y-67947000D03*
X69011800Y-66927000D03*
%TD*%
D39*
%TO.C,Q1*%
X124935800Y-72998600D03*
X124935800Y-76048600D03*
X128285800Y-76048600D03*
X128285800Y-72998600D03*
D40*
X120310800Y-72243600D03*
X120310800Y-76803600D03*
%TD*%
D41*
%TO.C,SW3*%
X53090000Y-32595000D03*
X53090000Y-33865000D03*
X53090000Y-35135000D03*
X53090000Y-36405000D03*
X60710000Y-36405000D03*
X60710000Y-35135000D03*
X60710000Y-33865000D03*
X60710000Y-32595000D03*
%TD*%
D42*
%TO.C,D4*%
X72516000Y-104994000D03*
X75566000Y-101644000D03*
X72516000Y-101644000D03*
X75566000Y-104994000D03*
D43*
X71761000Y-97019000D03*
X76321000Y-97019000D03*
%TD*%
D32*
%TO.C,U12*%
X112480000Y-102743000D03*
X112480000Y-101473000D03*
X112480000Y-100203000D03*
X112480000Y-98933000D03*
X107230000Y-98933000D03*
X107230000Y-100203000D03*
X107230000Y-101473000D03*
X107230000Y-102743000D03*
%TD*%
D20*
%TO.C,R2*%
X49003400Y-35790600D03*
X49003400Y-34770600D03*
%TD*%
%TO.C,R11*%
X105156000Y-65280000D03*
X105156000Y-64260000D03*
%TD*%
D29*
%TO.C,C35*%
X79260000Y-63595000D03*
X80220000Y-63595000D03*
%TD*%
D16*
%TO.C,C31*%
X61671200Y-56543300D03*
X60711200Y-56543300D03*
%TD*%
D19*
%TO.C,C58*%
X78740000Y-55062000D03*
X78740000Y-54102000D03*
%TD*%
D13*
%TO.C,R34*%
X115064000Y-54864000D03*
X114044000Y-54864000D03*
%TD*%
D12*
%TO.C,C54*%
X69342000Y-90883000D03*
X69342000Y-87933000D03*
%TD*%
D15*
%TO.C,R48*%
X88630000Y-66260000D03*
X88630000Y-67280000D03*
%TD*%
D20*
%TO.C,R23*%
X114808000Y-110492000D03*
X114808000Y-109472000D03*
%TD*%
D15*
%TO.C,R20*%
X114816000Y-89660000D03*
X114816000Y-90680000D03*
%TD*%
%TO.C,R38*%
X105664000Y-53719000D03*
X105664000Y-54739000D03*
%TD*%
D30*
%TO.C,U4*%
X113022000Y-66929000D03*
X113022000Y-64389000D03*
X106942000Y-64389000D03*
X106942000Y-66929000D03*
%TD*%
D12*
%TO.C,C53*%
X66929000Y-90883000D03*
X66929000Y-87933000D03*
%TD*%
D19*
%TO.C,C3*%
X105156000Y-67344000D03*
X105156000Y-66384000D03*
%TD*%
D20*
%TO.C,R19*%
X105156000Y-95252000D03*
X105156000Y-94232000D03*
%TD*%
D19*
%TO.C,C8*%
X105664000Y-102969000D03*
X105664000Y-102009000D03*
%TD*%
%TO.C,C11*%
X105156000Y-112429000D03*
X105156000Y-111469000D03*
%TD*%
D44*
%TO.C,R52*%
X56515000Y-96516000D03*
X56515000Y-99441000D03*
%TD*%
D13*
%TO.C,R60*%
X101983000Y-48895000D03*
X100963000Y-48895000D03*
%TD*%
D20*
%TO.C,R21*%
X104648000Y-101094000D03*
X104648000Y-100074000D03*
%TD*%
D15*
%TO.C,R12*%
X114816000Y-59688000D03*
X114816000Y-60708000D03*
%TD*%
%TO.C,R24*%
X105164000Y-104773000D03*
X105164000Y-105793000D03*
%TD*%
D29*
%TO.C,C36*%
X81927000Y-70072000D03*
X82887000Y-70072000D03*
%TD*%
D45*
%TO.C,C46*%
X90424000Y-104635000D03*
X90424000Y-106185000D03*
%TD*%
D20*
%TO.C,R31*%
X114808000Y-50167000D03*
X114808000Y-49147000D03*
%TD*%
D46*
%TO.C,L1*%
X96758000Y-66440000D03*
X96758000Y-56940000D03*
%TD*%
D22*
%TO.C,R47*%
X78851000Y-70072000D03*
X79871000Y-70072000D03*
%TD*%
D26*
%TO.C,C43*%
X93472000Y-99998000D03*
X93472000Y-102948000D03*
%TD*%
D20*
%TO.C,R15*%
X114808000Y-95379000D03*
X114808000Y-94359000D03*
%TD*%
D16*
%TO.C,C22*%
X61188200Y-61369300D03*
X60228200Y-61369300D03*
%TD*%
D30*
%TO.C,U14*%
X113030000Y-107315000D03*
X113030000Y-104775000D03*
X106950000Y-104775000D03*
X106950000Y-107315000D03*
%TD*%
D20*
%TO.C,R7*%
X114808000Y-65407000D03*
X114808000Y-64387000D03*
%TD*%
D12*
%TO.C,C52*%
X64516000Y-90883000D03*
X64516000Y-87933000D03*
%TD*%
D15*
%TO.C,R16*%
X105164000Y-89660000D03*
X105164000Y-90680000D03*
%TD*%
D20*
%TO.C,R29*%
X104648000Y-116207000D03*
X104648000Y-115187000D03*
%TD*%
D46*
%TO.C,L2*%
X64014000Y-104182000D03*
X64014000Y-94682000D03*
%TD*%
D47*
%TO.C,R45*%
X98806000Y-51753000D03*
X98806000Y-53403000D03*
%TD*%
D20*
%TO.C,R13*%
X104648000Y-71122000D03*
X104648000Y-70102000D03*
%TD*%
D18*
%TO.C,R43*%
X57826200Y-59337300D03*
X59476200Y-59337300D03*
%TD*%
D32*
%TO.C,U6*%
X112480000Y-72771000D03*
X112480000Y-71501000D03*
X112480000Y-70231000D03*
X112480000Y-68961000D03*
X107230000Y-68961000D03*
X107230000Y-70231000D03*
X107230000Y-71501000D03*
X107230000Y-72771000D03*
%TD*%
D15*
%TO.C,R22*%
X105664000Y-98931000D03*
X105664000Y-99951000D03*
%TD*%
D28*
%TO.C,C48*%
X80645000Y-102550000D03*
X80645000Y-100650000D03*
%TD*%
D27*
%TO.C,C6*%
X105164000Y-61877000D03*
X105164000Y-62837000D03*
%TD*%
D32*
%TO.C,U18*%
X112480000Y-57531000D03*
X112480000Y-56261000D03*
X112480000Y-54991000D03*
X112480000Y-53721000D03*
X107230000Y-53721000D03*
X107230000Y-54991000D03*
X107230000Y-56261000D03*
X107230000Y-57531000D03*
%TD*%
D48*
%TO.C,D7*%
X120751600Y-83836400D03*
X120751600Y-79536400D03*
%TD*%
D49*
%TO.C,J3*%
X51649000Y-126947000D03*
X46649000Y-126947000D03*
D50*
X52649000Y-129647000D03*
X45649000Y-129647000D03*
D51*
X47849000Y-126947000D03*
X48499000Y-126947000D03*
X49149000Y-126947000D03*
X49799000Y-126947000D03*
X50449000Y-126947000D03*
D52*
X50149000Y-129647000D03*
X48149000Y-129647000D03*
D53*
X46249000Y-129647000D03*
X52049000Y-129647000D03*
%TD*%
D54*
%TO.C,D5*%
X80571100Y-54904600D03*
X80571100Y-56804600D03*
X82446100Y-55854600D03*
%TD*%
D29*
%TO.C,C32*%
X72547600Y-61036200D03*
X73507600Y-61036200D03*
%TD*%
D19*
%TO.C,C7*%
X105156000Y-97316000D03*
X105156000Y-96356000D03*
%TD*%
D17*
%TO.C,D3*%
X59690000Y-89105500D03*
X59690000Y-90980500D03*
%TD*%
D19*
%TO.C,C21*%
X63883200Y-55852000D03*
X63883200Y-54892000D03*
%TD*%
D18*
%TO.C,R55*%
X82741000Y-88519000D03*
X84391000Y-88519000D03*
%TD*%
D13*
%TO.C,R50*%
X86346000Y-70072000D03*
X85326000Y-70072000D03*
%TD*%
D55*
%TO.C,U22*%
X57787200Y-72047281D03*
X59057200Y-72047281D03*
X60327200Y-72047281D03*
X61597200Y-72047281D03*
X61597200Y-64847281D03*
X60327200Y-64847281D03*
X59057200Y-64847281D03*
X57787200Y-64847281D03*
%TD*%
D13*
%TO.C,R9*%
X115064000Y-71374000D03*
X114044000Y-71374000D03*
%TD*%
D19*
%TO.C,C29*%
X67668200Y-55852300D03*
X67668200Y-54892300D03*
%TD*%
D56*
%TO.C,C47*%
X82616000Y-92583000D03*
X84516000Y-92583000D03*
%TD*%
D13*
%TO.C,R17*%
X115064000Y-101346000D03*
X114044000Y-101346000D03*
%TD*%
D20*
%TO.C,R6*%
X44660000Y-33504600D03*
X44660000Y-32484600D03*
%TD*%
D27*
%TO.C,C18*%
X105164000Y-46637000D03*
X105164000Y-47597000D03*
%TD*%
D13*
%TO.C,R58*%
X99646200Y-47447200D03*
X98626200Y-47447200D03*
%TD*%
D15*
%TO.C,R46*%
X78597000Y-67657000D03*
X78597000Y-68677000D03*
%TD*%
D20*
%TO.C,R5*%
X69519800Y-66016600D03*
X69519800Y-64996600D03*
%TD*%
%TO.C,R37*%
X104648000Y-55882000D03*
X104648000Y-54862000D03*
%TD*%
D57*
%TO.C,D6*%
X126085600Y-69847400D03*
X122585600Y-69847400D03*
%TD*%
D30*
%TO.C,U17*%
X113030000Y-46990000D03*
X113030000Y-44450000D03*
X106950000Y-44450000D03*
X106950000Y-46990000D03*
%TD*%
D56*
%TO.C,C45*%
X82616000Y-94742000D03*
X84516000Y-94742000D03*
%TD*%
D58*
%TO.C,R54*%
X82762500Y-104775000D03*
X88687500Y-104775000D03*
%TD*%
D59*
%TO.C,C49*%
X78613000Y-100650000D03*
X78613000Y-102550000D03*
%TD*%
M02*
