M48
; DRILL file {KiCad (6.0.4-0)} date Saturday, 03 September 2022 at 22:07:04
; FORMAT={-:-/ absolute / inch / decimal}
; #@! TF.CreationDate,2022-09-03T22:07:04-04:00
; #@! TF.GenerationSoftware,Kicad,Pcbnew,(6.0.4-0)
; #@! TF.FileFunction,Plated,1,4,PTH
FMAT,2
INCH
; #@! TA.AperFunction,Plated,PTH,ViaDrill
T1C0.0080
; #@! TA.AperFunction,Plated,PTH,ComponentDrill
T2C0.0138
; #@! TA.AperFunction,Plated,PTH,ViaDrill
T3C0.0157
; #@! TA.AperFunction,Plated,PTH,ComponentDrill
T4C0.0197
; #@! TA.AperFunction,Plated,PTH,ComponentDrill
T5C0.0217
; #@! TA.AperFunction,Plated,PTH,ComponentDrill
T6C0.0394
; #@! TA.AperFunction,Plated,PTH,ComponentDrill
T7C0.0472
; #@! TA.AperFunction,Plated,PTH,ComponentDrill
T8C0.1063
%
G90
G05
T1
X2.3723Y-2.4391
X2.391Y-2.246
X2.391Y-2.357
X2.3949Y-2.3199
X2.3963Y-2.4403
X2.397Y-2.161
X2.417Y-2.356
X2.4188Y-2.3199
X2.4209Y-2.16
X2.454Y-2.236
X2.454Y-2.262
X2.5365Y-2.5772
X2.542Y-2.601
X2.544Y-2.161
X2.544Y-2.192
X2.641Y-2.589
X2.6421Y-2.5652
X2.693Y-2.161
X2.693Y-2.197
X2.827Y-2.3612
X2.829Y-2.4
X2.921Y-2.364
X2.922Y-2.403
T2
X2.5751Y-2.3292
X2.5751Y-2.3794
X2.5751Y-2.4296
X2.6253Y-2.3292
X2.6253Y-2.3794
X2.6253Y-2.4296
X2.6755Y-2.3292
X2.6755Y-2.3794
X2.6755Y-2.4296
T3
X1.5251Y-2.9877
X1.53Y-2.935
X1.578Y-2.9881
X1.6034Y-2.9581
X1.7972Y-1.318
X1.8095Y-3.0265
X1.8385Y-2.9975
X1.8692Y-2.9669
X1.8793Y-1.3649
X1.897Y-2.9391
X1.9673Y-1.4059
X2.0394Y-1.4646
X2.1254Y-2.5963
X2.133Y-2.801
X2.225Y-3.87
X2.2749Y-2.6108
X2.318Y-4.977
X2.3819Y-5.1083
X2.425Y-3.525
X2.43Y-3.8336
X2.4409Y-1.2992
X2.4449Y-1.4016
X2.4451Y-2.7698
X2.4508Y-5.0295
X2.48Y-3.8836
X2.5089Y-2.6973
X2.53Y-3.8336
X2.5303Y-2.4748
X2.575Y-3.525
X2.58Y-3.8836
X2.63Y-3.7336
X2.63Y-3.8336
X2.65Y-3.525
X2.6646Y-2.4779
X2.675Y-3.675
X2.68Y-3.7836
X2.68Y-3.8836
X2.723Y-2.4202
X2.725Y-3.525
X2.73Y-3.8336
X2.735Y-2.16
X2.75Y-3.725
X2.775Y-2.075
X2.8Y-3.525
X2.8Y-3.65
X2.8476Y-5.1248
X2.85Y-3.725
X2.875Y-2.785
X2.875Y-3.525
X2.9Y-3.65
X2.95Y-2.53
X2.95Y-3.525
X2.95Y-3.725
X2.975Y-2.145
X2.989Y-2.615
X2.993Y-2.2989
X3.0Y-3.65
X3.05Y-3.725
X3.066Y-2.4472
X3.0668Y-2.3537
X3.0668Y-2.5537
X3.1Y-3.525
X3.1168Y-2.6037
X3.13Y-2.13
X3.15Y-3.75
X3.1794Y-2.7587
X3.187Y-2.199
X3.21Y-2.525
X3.2918Y-2.3537
X3.3044Y-2.7587
X3.3094Y-2.6037
X3.3168Y-2.8037
X3.324Y-2.209
X3.325Y-3.8127
X3.3418Y-2.4037
X3.35Y-4.0877
X3.35Y-4.1877
X3.36Y-2.325
X3.383Y-3.81
X3.385Y-3.565
X3.4Y-4.0377
X3.4Y-4.1377
X3.4194Y-2.3687
X3.4294Y-2.4737
X3.4494Y-2.7587
X3.45Y-4.0877
X3.45Y-4.1877
X3.4894Y-2.6837
X3.5918Y-2.1537
X3.5918Y-2.3537
X3.6418Y-2.2037
X3.6418Y-2.3037
X3.6418Y-2.4037
X3.65Y-4.0877
X3.6918Y-2.1537
X3.6918Y-2.2537
X3.6918Y-2.3537
X3.7Y-3.8627
X3.7Y-4.1377
X3.7418Y-2.4037
X3.75Y-3.8127
X3.75Y-3.9127
X3.75Y-4.0877
X3.75Y-4.1877
X3.7918Y-2.3537
X3.8Y-3.8627
X3.8Y-3.9627
X3.8Y-4.0377
X3.8Y-4.1377
X3.8418Y-2.4037
X3.883Y-1.902
X3.8918Y-2.3537
X3.916Y-2.141
X4.015Y-1.89
X4.083Y-2.276
X4.084Y-2.236
X4.084Y-2.833
X4.084Y-2.875
X4.085Y-4.0174
X4.085Y-4.0574
X4.085Y-4.6057
X4.087Y-2.168
X4.087Y-2.76
X4.087Y-4.645
X4.09Y-4.535
X4.095Y-3.92
X4.1Y-2.0124
X4.1Y-2.0524
X4.1Y-3.7924
X4.1Y-3.8324
X4.103Y-4.4253
X4.1039Y-1.8754
X4.1039Y-2.4744
X4.104Y-1.836
X4.104Y-2.435
X4.104Y-2.611
X4.104Y-4.386
X4.105Y-2.651
X4.105Y-3.6124
X4.105Y-3.6524
X4.105Y-4.211
X4.1051Y-4.2504
X4.2639Y-2.1086
X4.269Y-4.491
X4.2739Y-3.8924
X4.28Y-2.6974
X4.477Y-4.046
X4.485Y-2.11
X4.485Y-2.865
X4.49Y-2.265
X4.49Y-2.715
X4.49Y-4.638
X4.491Y-3.894
X4.494Y-4.488
X4.515Y-2.445
X4.519Y-3.659
X4.52Y-1.845
X4.52Y-2.03
X4.52Y-2.635
X4.521Y-3.82
X4.522Y-4.225
X4.522Y-4.408
X4.69Y-3.07
X4.69Y-3.15
X4.69Y-3.21
X4.69Y-3.28
X4.69Y-3.35
X4.693Y-2.699
X4.7Y-2.9
X4.7Y-2.97
X4.81Y-2.9
X4.81Y-2.97
X4.81Y-3.05
X4.8106Y-2.8106
X4.82Y-3.13
X4.82Y-3.21
X4.82Y-3.28
X4.82Y-3.35
X4.9641Y-2.6899
X5.0091Y-2.7039
X5.0161Y-2.7499
T6
X1.6959Y-1.549
X1.6959Y-3.099
X1.7Y-3.3
X1.7Y-4.85
X1.7959Y-1.549
X1.7959Y-3.099
X1.8Y-3.3
X1.8Y-4.85
X1.8959Y-1.549
X1.8959Y-3.099
X1.9Y-3.3
X1.9Y-4.85
X1.9959Y-1.549
X1.9959Y-3.099
X2.0Y-3.3
X2.0Y-4.85
X2.0959Y-1.549
X2.0959Y-3.099
X2.1Y-3.3
X2.1Y-4.85
X2.1959Y-1.549
X2.1959Y-3.099
X2.2Y-3.3
X2.2Y-4.85
X2.2959Y-1.549
X2.2959Y-3.099
X2.3Y-3.3
X2.3Y-4.85
X2.3959Y-1.549
X2.3959Y-3.099
X2.4Y-3.3
X2.4Y-4.85
X2.4959Y-1.549
X2.4959Y-3.099
X2.5Y-3.3
X2.5Y-4.85
X2.5959Y-1.549
X2.5959Y-3.099
X2.6Y-3.3
X2.6Y-4.85
X2.6959Y-1.549
X2.6959Y-3.099
X2.7Y-3.3
X2.7Y-4.85
X2.7959Y-1.549
X2.7959Y-3.099
X2.8Y-3.3
X2.8Y-4.85
X2.8959Y-1.549
X2.8959Y-3.099
X2.9Y-3.3
X2.9Y-4.85
X2.9959Y-1.549
X2.9959Y-3.099
X3.0Y-3.3
X3.0Y-4.85
X3.1705Y-3.299
X3.1705Y-4.849
X3.1713Y-1.548
X3.1713Y-3.098
X3.2705Y-3.299
X3.2705Y-4.849
X3.2713Y-1.548
X3.2713Y-3.098
X3.3705Y-3.299
X3.3705Y-4.849
X3.3713Y-1.548
X3.3713Y-3.098
X3.4705Y-3.299
X3.4705Y-4.849
X3.4713Y-1.548
X3.4713Y-3.098
X3.5328Y-2.038
X3.5705Y-3.299
X3.5705Y-4.849
X3.5713Y-1.548
X3.5713Y-3.098
X3.6328Y-2.038
X3.6705Y-3.299
X3.6705Y-4.849
X3.6713Y-1.548
X3.6713Y-3.098
X3.7705Y-3.299
X3.7705Y-4.849
X3.7713Y-1.548
X3.7713Y-3.098
X3.777Y-1.846
X3.777Y-1.946
X3.777Y-2.046
X3.8705Y-3.299
X3.8705Y-4.849
X3.8713Y-1.548
X3.8713Y-3.098
X3.9705Y-3.299
X3.9705Y-4.849
X3.9713Y-1.548
X3.9713Y-3.098
X4.0705Y-3.299
X4.0705Y-4.849
X4.0713Y-1.548
X4.0713Y-3.098
X4.1705Y-3.299
X4.1705Y-4.849
X4.1713Y-1.548
X4.1713Y-3.098
X4.2705Y-3.299
X4.2705Y-4.849
X4.2713Y-1.548
X4.2713Y-3.098
X4.3705Y-3.299
X4.3705Y-4.849
X4.3713Y-1.548
X4.3713Y-3.098
X4.4705Y-3.299
X4.4705Y-4.849
X4.4713Y-1.548
X4.4713Y-3.098
X4.885Y-3.5046
X4.885Y-3.6046
X4.885Y-3.8946
X4.885Y-3.9946
X4.8859Y-4.2846
X4.8859Y-4.3846
X4.8859Y-4.6746
X4.8859Y-4.7746
X4.985Y-3.5046
X4.985Y-3.6046
X4.985Y-3.8946
X4.985Y-3.9946
X4.9859Y-4.2846
X4.9859Y-4.3846
X4.9859Y-4.6746
X4.9859Y-4.7746
X5.085Y-3.5046
X5.085Y-3.6046
X5.085Y-3.8946
X5.085Y-3.9946
X5.0859Y-4.2846
X5.0859Y-4.3846
X5.0859Y-4.6746
X5.0859Y-4.7746
X5.185Y-3.5046
X5.185Y-3.6046
X5.185Y-3.8946
X5.185Y-3.9946
X5.1859Y-4.2846
X5.1859Y-4.3846
X5.1859Y-4.6746
X5.1859Y-4.7746
T7
X1.6655Y-1.7522
X1.6655Y-1.9022
X1.6655Y-2.0522
X1.6655Y-2.2022
X1.6655Y-2.4522
X1.6655Y-2.6022
X1.6655Y-2.7522
X1.6655Y-2.9022
X1.6655Y-3.5022
X1.6655Y-3.6522
X1.6655Y-3.8022
X1.6655Y-3.9522
X1.6655Y-4.2022
X1.6655Y-4.3522
X1.6655Y-4.5022
X1.6655Y-4.6522
X3.3818Y-1.3835
X3.5318Y-1.3835
X4.085Y-5.02
X4.235Y-5.02
X4.3088Y-1.3805
X4.4588Y-1.3805
X4.98Y-1.5277
X4.98Y-1.823
X4.98Y-2.184
X4.98Y-2.4793
X5.218Y-2.794
X5.218Y-2.944
T8
X4.9755Y-3.2308
X5.133Y-3.2308
X5.2905Y-3.2308
T4
G00X1.7972Y-5.0914
M15
G01X1.7972Y-5.117
M16
G05
G00X2.0728Y-5.0914
M15
G01X2.0728Y-5.117
M16
G05
T5
G00X1.8307Y-4.9979
M15
G01X1.8425Y-4.9979
M16
G05
G00X2.0275Y-4.9979
M15
G01X2.0393Y-4.9979
M16
G05
T0
M30
