%TF.GenerationSoftware,KiCad,Pcbnew,(6.0.4-0)*%
%TF.CreationDate,2022-08-06T14:41:30-04:00*%
%TF.ProjectId,QuarkCncQuadDriver,51756172-6b43-46e6-9351-756164447269,rev?*%
%TF.SameCoordinates,Original*%
%TF.FileFunction,Soldermask,Top*%
%TF.FilePolarity,Negative*%
%FSLAX46Y46*%
G04 Gerber Fmt 4.6, Leading zero omitted, Abs format (unit mm)*
G04 Created by KiCad (PCBNEW (6.0.4-0)) date 2022-08-06 14:41:30*
%MOMM*%
%LPD*%
G01*
G04 APERTURE LIST*
G04 Aperture macros list*
%AMRoundRect*
0 Rectangle with rounded corners*
0 $1 Rounding radius*
0 $2 $3 $4 $5 $6 $7 $8 $9 X,Y pos of 4 corners*
0 Add a 4 corners polygon primitive as box body*
4,1,4,$2,$3,$4,$5,$6,$7,$8,$9,$2,$3,0*
0 Add four circle primitives for the rounded corners*
1,1,$1+$1,$2,$3*
1,1,$1+$1,$4,$5*
1,1,$1+$1,$6,$7*
1,1,$1+$1,$8,$9*
0 Add four rect primitives between the rounded corners*
20,1,$1+$1,$2,$3,$4,$5,0*
20,1,$1+$1,$4,$5,$6,$7,0*
20,1,$1+$1,$6,$7,$8,$9,0*
20,1,$1+$1,$8,$9,$2,$3,0*%
G04 Aperture macros list end*
%ADD10RoundRect,0.250000X0.262500X0.450000X-0.262500X0.450000X-0.262500X-0.450000X0.262500X-0.450000X0*%
%ADD11RoundRect,0.250000X0.650000X-0.325000X0.650000X0.325000X-0.650000X0.325000X-0.650000X-0.325000X0*%
%ADD12RoundRect,0.135000X0.135000X0.185000X-0.135000X0.185000X-0.135000X-0.185000X0.135000X-0.185000X0*%
%ADD13R,1.200000X1.400000*%
%ADD14RoundRect,0.135000X-0.185000X0.135000X-0.185000X-0.135000X0.185000X-0.135000X0.185000X0.135000X0*%
%ADD15RoundRect,0.140000X0.140000X0.170000X-0.140000X0.170000X-0.140000X-0.170000X0.140000X-0.170000X0*%
%ADD16RoundRect,0.243750X-0.456250X0.243750X-0.456250X-0.243750X0.456250X-0.243750X0.456250X0.243750X0*%
%ADD17RoundRect,0.200000X-0.200000X-0.275000X0.200000X-0.275000X0.200000X0.275000X-0.200000X0.275000X0*%
%ADD18RoundRect,0.140000X0.170000X-0.140000X0.170000X0.140000X-0.170000X0.140000X-0.170000X-0.140000X0*%
%ADD19RoundRect,0.135000X0.185000X-0.135000X0.185000X0.135000X-0.185000X0.135000X-0.185000X-0.135000X0*%
%ADD20RoundRect,0.250000X-0.262500X-0.450000X0.262500X-0.450000X0.262500X0.450000X-0.262500X0.450000X0*%
%ADD21RoundRect,0.135000X-0.135000X-0.185000X0.135000X-0.185000X0.135000X0.185000X-0.135000X0.185000X0*%
%ADD22RoundRect,0.250000X-0.312500X-0.625000X0.312500X-0.625000X0.312500X0.625000X-0.312500X0.625000X0*%
%ADD23RoundRect,0.250000X-0.325000X-0.650000X0.325000X-0.650000X0.325000X0.650000X-0.325000X0.650000X0*%
%ADD24R,1.700000X1.700000*%
%ADD25O,1.700000X1.700000*%
%ADD26R,1.800000X2.500000*%
%ADD27RoundRect,0.250000X-1.550000X0.650000X-1.550000X-0.650000X1.550000X-0.650000X1.550000X0.650000X0*%
%ADD28O,3.600000X1.800000*%
%ADD29RoundRect,0.250000X-0.650000X0.325000X-0.650000X-0.325000X0.650000X-0.325000X0.650000X0.325000X0*%
%ADD30RoundRect,0.140000X-0.170000X0.140000X-0.170000X-0.140000X0.170000X-0.140000X0.170000X0.140000X0*%
%ADD31RoundRect,0.250000X0.475000X-0.250000X0.475000X0.250000X-0.475000X0.250000X-0.475000X-0.250000X0*%
%ADD32RoundRect,0.140000X-0.140000X-0.170000X0.140000X-0.170000X0.140000X0.170000X-0.140000X0.170000X0*%
%ADD33RoundRect,0.250000X-0.650000X-1.550000X0.650000X-1.550000X0.650000X1.550000X-0.650000X1.550000X0*%
%ADD34O,1.800000X3.600000*%
%ADD35RoundRect,0.041300X0.923700X0.253700X-0.923700X0.253700X-0.923700X-0.253700X0.923700X-0.253700X0*%
%ADD36RoundRect,0.250000X0.650000X1.550000X-0.650000X1.550000X-0.650000X-1.550000X0.650000X-1.550000X0*%
%ADD37RoundRect,0.250000X0.625000X-0.312500X0.625000X0.312500X-0.625000X0.312500X-0.625000X-0.312500X0*%
%ADD38R,1.450000X0.800000*%
%ADD39RoundRect,0.150000X-0.825000X-0.150000X0.825000X-0.150000X0.825000X0.150000X-0.825000X0.150000X0*%
%ADD40RoundRect,0.050000X0.050000X-0.387500X0.050000X0.387500X-0.050000X0.387500X-0.050000X-0.387500X0*%
%ADD41RoundRect,0.050000X0.387500X-0.050000X0.387500X0.050000X-0.387500X0.050000X-0.387500X-0.050000X0*%
%ADD42RoundRect,0.144000X1.456000X-1.456000X1.456000X1.456000X-1.456000X1.456000X-1.456000X-1.456000X0*%
%ADD43C,3.200000*%
%ADD44RoundRect,0.100000X0.637500X0.100000X-0.637500X0.100000X-0.637500X-0.100000X0.637500X-0.100000X0*%
%ADD45R,2.850000X4.000000*%
%ADD46R,2.200000X1.200000*%
%ADD47R,6.400000X5.800000*%
%ADD48R,1.270000X0.762000*%
%ADD49R,5.800000X6.400000*%
%ADD50R,1.200000X2.200000*%
%ADD51R,1.000000X0.750000*%
%ADD52C,3.300000*%
%ADD53C,3.800000*%
%ADD54RoundRect,0.250000X-0.625000X0.312500X-0.625000X-0.312500X0.625000X-0.312500X0.625000X0.312500X0*%
%ADD55RoundRect,0.225000X-0.250000X0.225000X-0.250000X-0.225000X0.250000X-0.225000X0.250000X0.225000X0*%
%ADD56R,4.100000X4.100000*%
%ADD57RoundRect,0.250000X0.600000X-0.600000X0.600000X0.600000X-0.600000X0.600000X-0.600000X-0.600000X0*%
%ADD58C,1.700000*%
%ADD59RoundRect,0.200000X-0.275000X0.200000X-0.275000X-0.200000X0.275000X-0.200000X0.275000X0.200000X0*%
%ADD60R,2.300000X2.500000*%
%ADD61R,0.400000X1.350000*%
%ADD62R,1.500000X1.550000*%
%ADD63O,1.250000X0.950000*%
%ADD64O,0.890000X1.550000*%
%ADD65R,1.200000X1.550000*%
%ADD66RoundRect,0.150000X-0.587500X-0.150000X0.587500X-0.150000X0.587500X0.150000X-0.587500X0.150000X0*%
%ADD67RoundRect,0.150000X0.150000X-0.650000X0.150000X0.650000X-0.150000X0.650000X-0.150000X-0.650000X0*%
%ADD68RoundRect,0.250000X1.550000X-0.650000X1.550000X0.650000X-1.550000X0.650000X-1.550000X-0.650000X0*%
%ADD69RoundRect,0.250000X-0.250000X-0.475000X0.250000X-0.475000X0.250000X0.475000X-0.250000X0.475000X0*%
%ADD70R,2.400000X2.400000*%
%ADD71C,2.400000*%
%ADD72R,1.300000X1.700000*%
%ADD73RoundRect,0.250000X-0.362500X-1.425000X0.362500X-1.425000X0.362500X1.425000X-0.362500X1.425000X0*%
%ADD74RoundRect,0.250000X-0.475000X0.250000X-0.475000X-0.250000X0.475000X-0.250000X0.475000X0.250000X0*%
G04 APERTURE END LIST*
D10*
%TO.C,R61*%
X120800500Y-70027800D03*
X118975500Y-70027800D03*
%TD*%
D11*
%TO.C,C50*%
X76581000Y-90883000D03*
X76581000Y-87933000D03*
%TD*%
D12*
%TO.C,R42*%
X72519000Y-52832000D03*
X71499000Y-52832000D03*
%TD*%
D13*
%TO.C,Y1*%
X73018200Y-66510800D03*
X73018200Y-68710800D03*
X74718200Y-68710800D03*
X74718200Y-66510800D03*
%TD*%
D11*
%TO.C,C56*%
X78994000Y-90883000D03*
X78994000Y-87933000D03*
%TD*%
D14*
%TO.C,R36*%
X114816000Y-44448000D03*
X114816000Y-45468000D03*
%TD*%
D15*
%TO.C,C23*%
X61671200Y-57559300D03*
X60711200Y-57559300D03*
%TD*%
D10*
%TO.C,R51*%
X88034500Y-94742000D03*
X86209500Y-94742000D03*
%TD*%
D16*
%TO.C,D1*%
X100711000Y-51386500D03*
X100711000Y-53261500D03*
%TD*%
D17*
%TO.C,R56*%
X82741000Y-90551000D03*
X84391000Y-90551000D03*
%TD*%
D18*
%TO.C,C38*%
X87614000Y-67250000D03*
X87614000Y-66290000D03*
%TD*%
D19*
%TO.C,R27*%
X105156000Y-110365000D03*
X105156000Y-109345000D03*
%TD*%
D17*
%TO.C,R44*%
X57889200Y-57813300D03*
X59539200Y-57813300D03*
%TD*%
D19*
%TO.C,R1*%
X50900000Y-36933600D03*
X50900000Y-35913600D03*
%TD*%
D18*
%TO.C,C17*%
X104648000Y-57757000D03*
X104648000Y-56797000D03*
%TD*%
D15*
%TO.C,C30*%
X61615200Y-59337300D03*
X60655200Y-59337300D03*
%TD*%
D12*
%TO.C,R25*%
X115064000Y-116459000D03*
X114044000Y-116459000D03*
%TD*%
D20*
%TO.C,R53*%
X86209500Y-92583000D03*
X88034500Y-92583000D03*
%TD*%
D18*
%TO.C,C4*%
X105664000Y-72997000D03*
X105664000Y-72037000D03*
%TD*%
D21*
%TO.C,R49*%
X85326000Y-71088000D03*
X86346000Y-71088000D03*
%TD*%
D18*
%TO.C,C12*%
X105664000Y-118082000D03*
X105664000Y-117122000D03*
%TD*%
D22*
%TO.C,R41*%
X72832500Y-62661800D03*
X75757500Y-62661800D03*
%TD*%
D15*
%TO.C,C25*%
X61643200Y-60353300D03*
X60683200Y-60353300D03*
%TD*%
D23*
%TO.C,C41*%
X86647000Y-54991000D03*
X89597000Y-54991000D03*
%TD*%
D14*
%TO.C,R8*%
X105164000Y-59688000D03*
X105164000Y-60708000D03*
%TD*%
D24*
%TO.C,U29*%
X43180000Y-123190000D03*
D25*
X45720000Y-123190000D03*
X48260000Y-123190000D03*
X50800000Y-123190000D03*
X53340000Y-123190000D03*
X55880000Y-123190000D03*
X58420000Y-123190000D03*
X60960000Y-123190000D03*
X63500000Y-123190000D03*
X66040000Y-123190000D03*
X68580000Y-123190000D03*
X71120000Y-123190000D03*
X73660000Y-123190000D03*
X76200000Y-123190000D03*
%TD*%
D26*
%TO.C,D2*%
X88630000Y-64071000D03*
X88630000Y-60071000D03*
%TD*%
D18*
%TO.C,C15*%
X105156000Y-52104000D03*
X105156000Y-51144000D03*
%TD*%
D12*
%TO.C,R10*%
X115064000Y-70104000D03*
X114044000Y-70104000D03*
%TD*%
D14*
%TO.C,R32*%
X105164000Y-44448000D03*
X105164000Y-45468000D03*
%TD*%
%TO.C,R28*%
X114816000Y-104773000D03*
X114816000Y-105793000D03*
%TD*%
D27*
%TO.C,J11*%
X42302500Y-62285000D03*
D28*
X42302500Y-66095000D03*
X42302500Y-69905000D03*
X42302500Y-73715000D03*
%TD*%
D14*
%TO.C,R14*%
X105664000Y-68959000D03*
X105664000Y-69979000D03*
%TD*%
D12*
%TO.C,R26*%
X115064000Y-115189000D03*
X114044000Y-115189000D03*
%TD*%
D29*
%TO.C,C42*%
X91059000Y-99998000D03*
X91059000Y-102948000D03*
%TD*%
D19*
%TO.C,R3*%
X46946000Y-34749200D03*
X46946000Y-33729200D03*
%TD*%
D30*
%TO.C,C27*%
X67791300Y-65072100D03*
X67791300Y-66032100D03*
%TD*%
%TO.C,C26*%
X63858200Y-65080300D03*
X63858200Y-66040300D03*
%TD*%
D23*
%TO.C,C34*%
X79154000Y-59404000D03*
X82104000Y-59404000D03*
%TD*%
D30*
%TO.C,R40*%
X63756200Y-69237281D03*
X63756200Y-70197281D03*
%TD*%
D31*
%TO.C,C44*%
X90678000Y-96708000D03*
X90678000Y-94808000D03*
%TD*%
D18*
%TO.C,C9*%
X104648000Y-102969000D03*
X104648000Y-102009000D03*
%TD*%
D32*
%TO.C,C20*%
X73053000Y-64262000D03*
X74013000Y-64262000D03*
%TD*%
D11*
%TO.C,C57*%
X62103000Y-90883000D03*
X62103000Y-87933000D03*
%TD*%
D23*
%TO.C,C40*%
X86647000Y-57372000D03*
X89597000Y-57372000D03*
%TD*%
D33*
%TO.C,J10*%
X103759000Y-127508000D03*
D34*
X107569000Y-127508000D03*
%TD*%
D30*
%TO.C,C14*%
X105164000Y-106962000D03*
X105164000Y-107922000D03*
%TD*%
D35*
%TO.C,U5*%
X113030000Y-62230000D03*
X113030000Y-59690000D03*
X106950000Y-59690000D03*
X106950000Y-62230000D03*
%TD*%
D36*
%TO.C,J4*%
X89708600Y-35139700D03*
D34*
X85898600Y-35139700D03*
%TD*%
D35*
%TO.C,U13*%
X113022000Y-112014000D03*
X113022000Y-109474000D03*
X106942000Y-109474000D03*
X106942000Y-112014000D03*
%TD*%
D18*
%TO.C,C16*%
X105664000Y-57757000D03*
X105664000Y-56797000D03*
%TD*%
%TO.C,C5*%
X104648000Y-72997000D03*
X104648000Y-72037000D03*
%TD*%
D37*
%TO.C,R59*%
X84582000Y-57596500D03*
X84582000Y-54671500D03*
%TD*%
D38*
%TO.C,U15*%
X112480000Y-117856000D03*
X112480000Y-116586000D03*
X112480000Y-115316000D03*
X112480000Y-114046000D03*
X107230000Y-114046000D03*
X107230000Y-115316000D03*
X107230000Y-116586000D03*
X107230000Y-117856000D03*
%TD*%
D12*
%TO.C,R33*%
X115064000Y-56134000D03*
X114044000Y-56134000D03*
%TD*%
D30*
%TO.C,C37*%
X87614000Y-68195000D03*
X87614000Y-69155000D03*
%TD*%
D19*
%TO.C,R35*%
X105156000Y-50040000D03*
X105156000Y-49020000D03*
%TD*%
D39*
%TO.C,U24*%
X80567000Y-64865000D03*
X80567000Y-66135000D03*
X80567000Y-67405000D03*
X80567000Y-68675000D03*
X85517000Y-68675000D03*
X85517000Y-67405000D03*
X85517000Y-66135000D03*
X85517000Y-64865000D03*
%TD*%
D18*
%TO.C,C39*%
X86233000Y-63571000D03*
X86233000Y-62611000D03*
%TD*%
%TO.C,C13*%
X104648000Y-118082000D03*
X104648000Y-117122000D03*
%TD*%
D24*
%TO.C,U9*%
X76095000Y-39345000D03*
D25*
X73555000Y-39345000D03*
X71015000Y-39345000D03*
X68475000Y-39345000D03*
X65935000Y-39345000D03*
X63395000Y-39345000D03*
X60855000Y-39345000D03*
X58315000Y-39345000D03*
X55775000Y-39345000D03*
X53235000Y-39345000D03*
X50695000Y-39345000D03*
X48155000Y-39345000D03*
X45615000Y-39345000D03*
X43075000Y-39345000D03*
%TD*%
D35*
%TO.C,U11*%
X113030000Y-92202000D03*
X113030000Y-89662000D03*
X106950000Y-89662000D03*
X106950000Y-92202000D03*
%TD*%
%TO.C,U10*%
X113022000Y-96901000D03*
X113022000Y-94361000D03*
X106942000Y-94361000D03*
X106942000Y-96901000D03*
%TD*%
D12*
%TO.C,R18*%
X115064000Y-100076000D03*
X114044000Y-100076000D03*
%TD*%
D15*
%TO.C,C28*%
X61671200Y-55527300D03*
X60711200Y-55527300D03*
%TD*%
D11*
%TO.C,C55*%
X71755000Y-90883000D03*
X71755000Y-87933000D03*
%TD*%
D40*
%TO.C,U23*%
X64082200Y-63874800D03*
X64482200Y-63874800D03*
X64882200Y-63874800D03*
X65282200Y-63874800D03*
X65682200Y-63874800D03*
X66082200Y-63874800D03*
X66482200Y-63874800D03*
X66882200Y-63874800D03*
X67282200Y-63874800D03*
X67682200Y-63874800D03*
X68082200Y-63874800D03*
X68482200Y-63874800D03*
X68882200Y-63874800D03*
X69282200Y-63874800D03*
D41*
X70119700Y-63037300D03*
X70119700Y-62637300D03*
X70119700Y-62237300D03*
X70119700Y-61837300D03*
X70119700Y-61437300D03*
X70119700Y-61037300D03*
X70119700Y-60637300D03*
X70119700Y-60237300D03*
X70119700Y-59837300D03*
X70119700Y-59437300D03*
X70119700Y-59037300D03*
X70119700Y-58637300D03*
X70119700Y-58237300D03*
X70119700Y-57837300D03*
D40*
X69282200Y-56999800D03*
X68882200Y-56999800D03*
X68482200Y-56999800D03*
X68082200Y-56999800D03*
X67682200Y-56999800D03*
X67282200Y-56999800D03*
X66882200Y-56999800D03*
X66482200Y-56999800D03*
X66082200Y-56999800D03*
X65682200Y-56999800D03*
X65282200Y-56999800D03*
X64882200Y-56999800D03*
X64482200Y-56999800D03*
X64082200Y-56999800D03*
D41*
X63244700Y-57837300D03*
X63244700Y-58237300D03*
X63244700Y-58637300D03*
X63244700Y-59037300D03*
X63244700Y-59437300D03*
X63244700Y-59837300D03*
X63244700Y-60237300D03*
X63244700Y-60637300D03*
X63244700Y-61037300D03*
X63244700Y-61437300D03*
X63244700Y-61837300D03*
X63244700Y-62237300D03*
X63244700Y-62637300D03*
X63244700Y-63037300D03*
D42*
X66682200Y-60437300D03*
%TD*%
D11*
%TO.C,C51*%
X74168000Y-90883000D03*
X74168000Y-87933000D03*
%TD*%
D43*
%TO.C,H3*%
X134360000Y-128090000D03*
%TD*%
D44*
%TO.C,U25*%
X88587500Y-102239000D03*
X88587500Y-101589000D03*
X88587500Y-100939000D03*
X88587500Y-100289000D03*
X88587500Y-99639000D03*
X88587500Y-98989000D03*
X88587500Y-98339000D03*
X88587500Y-97689000D03*
X88587500Y-97039000D03*
X88587500Y-96389000D03*
X82862500Y-96389000D03*
X82862500Y-97039000D03*
X82862500Y-97689000D03*
X82862500Y-98339000D03*
X82862500Y-98989000D03*
X82862500Y-99639000D03*
X82862500Y-100289000D03*
X82862500Y-100939000D03*
X82862500Y-101589000D03*
X82862500Y-102239000D03*
D45*
X85725000Y-99314000D03*
%TD*%
D35*
%TO.C,U16*%
X113022000Y-51689000D03*
X113022000Y-49149000D03*
X106942000Y-49149000D03*
X106942000Y-51689000D03*
%TD*%
D30*
%TO.C,C10*%
X105164000Y-91849000D03*
X105164000Y-92809000D03*
%TD*%
D23*
%TO.C,C33*%
X79154000Y-61817000D03*
X82104000Y-61817000D03*
%TD*%
D14*
%TO.C,R30*%
X105664000Y-114044000D03*
X105664000Y-115064000D03*
%TD*%
D15*
%TO.C,C19*%
X75738200Y-70993000D03*
X74778200Y-70993000D03*
%TD*%
D21*
%TO.C,R57*%
X69390800Y-54102000D03*
X70410800Y-54102000D03*
%TD*%
D32*
%TO.C,C24*%
X72545000Y-60096400D03*
X73505000Y-60096400D03*
%TD*%
D37*
%TO.C,R39*%
X55651400Y-72303100D03*
X55651400Y-69378100D03*
%TD*%
D39*
%TO.C,U26*%
X72074000Y-54483000D03*
X72074000Y-55753000D03*
X72074000Y-57023000D03*
X72074000Y-58293000D03*
X77024000Y-58293000D03*
X77024000Y-57023000D03*
X77024000Y-55753000D03*
X77024000Y-54483000D03*
%TD*%
D19*
%TO.C,R4*%
X69011800Y-67947000D03*
X69011800Y-66927000D03*
%TD*%
D46*
%TO.C,Q1*%
X120310800Y-72243600D03*
D47*
X126610800Y-74523600D03*
D46*
X120310800Y-76803600D03*
%TD*%
D48*
%TO.C,SW3*%
X53090000Y-32595000D03*
X53090000Y-33865000D03*
X53090000Y-35135000D03*
X53090000Y-36405000D03*
X60710000Y-36405000D03*
X60710000Y-35135000D03*
X60710000Y-33865000D03*
X60710000Y-32595000D03*
%TD*%
D49*
%TO.C,D4*%
X74041000Y-103319000D03*
D50*
X71761000Y-97019000D03*
X76321000Y-97019000D03*
%TD*%
D38*
%TO.C,U12*%
X112480000Y-102743000D03*
X112480000Y-101473000D03*
X112480000Y-100203000D03*
X112480000Y-98933000D03*
X107230000Y-98933000D03*
X107230000Y-100203000D03*
X107230000Y-101473000D03*
X107230000Y-102743000D03*
%TD*%
D51*
%TO.C,SW2*%
X75669400Y-130170400D03*
X75669400Y-126420400D03*
X69669400Y-126420400D03*
X69669400Y-130170400D03*
%TD*%
D19*
%TO.C,R2*%
X49003400Y-35790600D03*
X49003400Y-34770600D03*
%TD*%
D52*
%TO.C,F1*%
X130378200Y-82061400D03*
D53*
X134378200Y-82061400D03*
X126378200Y-82061400D03*
%TD*%
D19*
%TO.C,R11*%
X105156000Y-65280000D03*
X105156000Y-64260000D03*
%TD*%
D32*
%TO.C,C35*%
X79260000Y-63595000D03*
X80220000Y-63595000D03*
%TD*%
D15*
%TO.C,C31*%
X61671200Y-56543300D03*
X60711200Y-56543300D03*
%TD*%
D18*
%TO.C,C58*%
X78740000Y-55062000D03*
X78740000Y-54102000D03*
%TD*%
D12*
%TO.C,R34*%
X115064000Y-54864000D03*
X114044000Y-54864000D03*
%TD*%
D11*
%TO.C,C54*%
X69342000Y-90883000D03*
X69342000Y-87933000D03*
%TD*%
D14*
%TO.C,R48*%
X88630000Y-66260000D03*
X88630000Y-67280000D03*
%TD*%
D19*
%TO.C,R23*%
X114808000Y-110492000D03*
X114808000Y-109472000D03*
%TD*%
D14*
%TO.C,R20*%
X114816000Y-89660000D03*
X114816000Y-90680000D03*
%TD*%
%TO.C,R38*%
X105664000Y-53719000D03*
X105664000Y-54739000D03*
%TD*%
D35*
%TO.C,U4*%
X113022000Y-66929000D03*
X113022000Y-64389000D03*
X106942000Y-64389000D03*
X106942000Y-66929000D03*
%TD*%
D11*
%TO.C,C53*%
X66929000Y-90883000D03*
X66929000Y-87933000D03*
%TD*%
D18*
%TO.C,C3*%
X105156000Y-67344000D03*
X105156000Y-66384000D03*
%TD*%
D27*
%TO.C,Je1*%
X42302500Y-44505000D03*
D28*
X42302500Y-48315000D03*
X42302500Y-52125000D03*
X42302500Y-55935000D03*
%TD*%
D19*
%TO.C,R19*%
X105156000Y-95252000D03*
X105156000Y-94232000D03*
%TD*%
D24*
%TO.C,J2*%
X95935800Y-51968400D03*
D25*
X95935800Y-49428400D03*
X95935800Y-46888400D03*
%TD*%
D18*
%TO.C,C8*%
X105664000Y-102969000D03*
X105664000Y-102009000D03*
%TD*%
%TO.C,C11*%
X105156000Y-112429000D03*
X105156000Y-111469000D03*
%TD*%
D54*
%TO.C,R52*%
X56515000Y-96516000D03*
X56515000Y-99441000D03*
%TD*%
D12*
%TO.C,R60*%
X101983000Y-48895000D03*
X100963000Y-48895000D03*
%TD*%
D19*
%TO.C,R21*%
X104648000Y-101094000D03*
X104648000Y-100074000D03*
%TD*%
D14*
%TO.C,R12*%
X114816000Y-59688000D03*
X114816000Y-60708000D03*
%TD*%
D24*
%TO.C,U19*%
X113550000Y-83795000D03*
D25*
X111010000Y-83795000D03*
X108470000Y-83795000D03*
X105930000Y-83795000D03*
X103390000Y-83795000D03*
X100850000Y-83795000D03*
X98310000Y-83795000D03*
X95770000Y-83795000D03*
X93230000Y-83795000D03*
X90690000Y-83795000D03*
X88150000Y-83795000D03*
X85610000Y-83795000D03*
X83070000Y-83795000D03*
X80530000Y-83795000D03*
%TD*%
D14*
%TO.C,R24*%
X105164000Y-104773000D03*
X105164000Y-105793000D03*
%TD*%
D32*
%TO.C,C36*%
X81927000Y-70072000D03*
X82887000Y-70072000D03*
%TD*%
D55*
%TO.C,C46*%
X90424000Y-104635000D03*
X90424000Y-106185000D03*
%TD*%
D19*
%TO.C,R31*%
X114808000Y-50167000D03*
X114808000Y-49147000D03*
%TD*%
D56*
%TO.C,L1*%
X96758000Y-66440000D03*
X96758000Y-56940000D03*
%TD*%
D24*
%TO.C,U27*%
X76200000Y-83820000D03*
D25*
X73660000Y-83820000D03*
X71120000Y-83820000D03*
X68580000Y-83820000D03*
X66040000Y-83820000D03*
X63500000Y-83820000D03*
X60960000Y-83820000D03*
X58420000Y-83820000D03*
X55880000Y-83820000D03*
X53340000Y-83820000D03*
X50800000Y-83820000D03*
X48260000Y-83820000D03*
X45720000Y-83820000D03*
X43180000Y-83820000D03*
%TD*%
D21*
%TO.C,R47*%
X78851000Y-70072000D03*
X79871000Y-70072000D03*
%TD*%
D29*
%TO.C,C43*%
X93472000Y-99998000D03*
X93472000Y-102948000D03*
%TD*%
D19*
%TO.C,R15*%
X114808000Y-95379000D03*
X114808000Y-94359000D03*
%TD*%
D15*
%TO.C,C22*%
X61188200Y-61369300D03*
X60228200Y-61369300D03*
%TD*%
D35*
%TO.C,U14*%
X113030000Y-107315000D03*
X113030000Y-104775000D03*
X106950000Y-104775000D03*
X106950000Y-107315000D03*
%TD*%
D24*
%TO.C,J14*%
X89733200Y-51765200D03*
D25*
X92273200Y-51765200D03*
%TD*%
D19*
%TO.C,R7*%
X114808000Y-65407000D03*
X114808000Y-64387000D03*
%TD*%
D11*
%TO.C,C52*%
X64516000Y-90883000D03*
X64516000Y-87933000D03*
%TD*%
D57*
%TO.C,J9*%
X124101000Y-121275500D03*
D58*
X124101000Y-118735500D03*
X126641000Y-121275500D03*
X126641000Y-118735500D03*
X129181000Y-121275500D03*
X129181000Y-118735500D03*
X131721000Y-121275500D03*
X131721000Y-118735500D03*
%TD*%
D14*
%TO.C,R16*%
X105164000Y-89660000D03*
X105164000Y-90680000D03*
%TD*%
D19*
%TO.C,R29*%
X104648000Y-116207000D03*
X104648000Y-115187000D03*
%TD*%
D43*
%TO.C,H1*%
X134360000Y-34090000D03*
%TD*%
D56*
%TO.C,L2*%
X64014000Y-104182000D03*
X64014000Y-94682000D03*
%TD*%
D59*
%TO.C,R45*%
X98806000Y-51753000D03*
X98806000Y-53403000D03*
%TD*%
D19*
%TO.C,R13*%
X104648000Y-71122000D03*
X104648000Y-70102000D03*
%TD*%
D24*
%TO.C,U7*%
X43075000Y-78715000D03*
D25*
X45615000Y-78715000D03*
X48155000Y-78715000D03*
X50695000Y-78715000D03*
X53235000Y-78715000D03*
X55775000Y-78715000D03*
X58315000Y-78715000D03*
X60855000Y-78715000D03*
X63395000Y-78715000D03*
X65935000Y-78715000D03*
X68475000Y-78715000D03*
X71015000Y-78715000D03*
X73555000Y-78715000D03*
X76095000Y-78715000D03*
%TD*%
D24*
%TO.C,U1*%
X80550000Y-78690000D03*
D25*
X83090000Y-78690000D03*
X85630000Y-78690000D03*
X88170000Y-78690000D03*
X90710000Y-78690000D03*
X93250000Y-78690000D03*
X95790000Y-78690000D03*
X98330000Y-78690000D03*
X100870000Y-78690000D03*
X103410000Y-78690000D03*
X105950000Y-78690000D03*
X108490000Y-78690000D03*
X111030000Y-78690000D03*
X113570000Y-78690000D03*
%TD*%
D17*
%TO.C,R43*%
X57826200Y-59337300D03*
X59476200Y-59337300D03*
%TD*%
D38*
%TO.C,U6*%
X112480000Y-72771000D03*
X112480000Y-71501000D03*
X112480000Y-70231000D03*
X112480000Y-68961000D03*
X107230000Y-68961000D03*
X107230000Y-70231000D03*
X107230000Y-71501000D03*
X107230000Y-72771000D03*
%TD*%
D14*
%TO.C,R22*%
X105664000Y-98931000D03*
X105664000Y-99951000D03*
%TD*%
D31*
%TO.C,C48*%
X80645000Y-102550000D03*
X80645000Y-100650000D03*
%TD*%
D30*
%TO.C,C6*%
X105164000Y-61877000D03*
X105164000Y-62837000D03*
%TD*%
D57*
%TO.C,J8*%
X124101000Y-111369500D03*
D58*
X124101000Y-108829500D03*
X126641000Y-111369500D03*
X126641000Y-108829500D03*
X129181000Y-111369500D03*
X129181000Y-108829500D03*
X131721000Y-111369500D03*
X131721000Y-108829500D03*
%TD*%
D38*
%TO.C,U18*%
X112480000Y-57531000D03*
X112480000Y-56261000D03*
X112480000Y-54991000D03*
X112480000Y-53721000D03*
X107230000Y-53721000D03*
X107230000Y-54991000D03*
X107230000Y-56261000D03*
X107230000Y-57531000D03*
%TD*%
D60*
%TO.C,D7*%
X120751600Y-83836400D03*
X120751600Y-79536400D03*
%TD*%
D61*
%TO.C,J3*%
X47849000Y-126947000D03*
X48499000Y-126947000D03*
X49149000Y-126947000D03*
X49799000Y-126947000D03*
X50449000Y-126947000D03*
D62*
X50149000Y-129647000D03*
X48149000Y-129647000D03*
D63*
X51649000Y-126947000D03*
D64*
X52649000Y-129647000D03*
X45649000Y-129647000D03*
D65*
X46249000Y-129647000D03*
D63*
X46649000Y-126947000D03*
D65*
X52049000Y-129647000D03*
%TD*%
D66*
%TO.C,D5*%
X80571100Y-54904600D03*
X80571100Y-56804600D03*
X82446100Y-55854600D03*
%TD*%
D32*
%TO.C,C32*%
X72547600Y-61036200D03*
X73507600Y-61036200D03*
%TD*%
D18*
%TO.C,C7*%
X105156000Y-97316000D03*
X105156000Y-96356000D03*
%TD*%
D16*
%TO.C,D3*%
X59690000Y-89105500D03*
X59690000Y-90980500D03*
%TD*%
D18*
%TO.C,C21*%
X63883200Y-55852000D03*
X63883200Y-54892000D03*
%TD*%
D17*
%TO.C,R55*%
X82741000Y-88519000D03*
X84391000Y-88519000D03*
%TD*%
D12*
%TO.C,R50*%
X86346000Y-70072000D03*
X85326000Y-70072000D03*
%TD*%
D27*
%TO.C,J13*%
X42302500Y-106735000D03*
D28*
X42302500Y-110545000D03*
X42302500Y-114355000D03*
X42302500Y-118165000D03*
%TD*%
D67*
%TO.C,U22*%
X57787200Y-72047281D03*
X59057200Y-72047281D03*
X60327200Y-72047281D03*
X61597200Y-72047281D03*
X61597200Y-64847281D03*
X60327200Y-64847281D03*
X59057200Y-64847281D03*
X57787200Y-64847281D03*
%TD*%
D27*
%TO.C,J12*%
X42302500Y-88955000D03*
D28*
X42302500Y-92765000D03*
X42302500Y-96575000D03*
X42302500Y-100385000D03*
%TD*%
D12*
%TO.C,R9*%
X115064000Y-71374000D03*
X114044000Y-71374000D03*
%TD*%
D68*
%TO.C,J1*%
X132537200Y-74777600D03*
D28*
X132537200Y-70967600D03*
%TD*%
D18*
%TO.C,C29*%
X67668200Y-55852300D03*
X67668200Y-54892300D03*
%TD*%
D43*
%TO.C,H2*%
X40360000Y-34090000D03*
%TD*%
D36*
%TO.C,J5*%
X113254400Y-35063500D03*
D34*
X109444400Y-35063500D03*
%TD*%
D69*
%TO.C,C47*%
X82616000Y-92583000D03*
X84516000Y-92583000D03*
%TD*%
D57*
%TO.C,J6*%
X124079000Y-91557500D03*
D58*
X124079000Y-89017500D03*
X126619000Y-91557500D03*
X126619000Y-89017500D03*
X129159000Y-91557500D03*
X129159000Y-89017500D03*
X131699000Y-91557500D03*
X131699000Y-89017500D03*
%TD*%
D12*
%TO.C,R17*%
X115064000Y-101346000D03*
X114044000Y-101346000D03*
%TD*%
D51*
%TO.C,SW1*%
X63655200Y-126445800D03*
X63655200Y-130195800D03*
X57655200Y-130195800D03*
X57655200Y-126445800D03*
%TD*%
D70*
%TO.C,C1*%
X126492000Y-55473600D03*
D71*
X126492000Y-62973600D03*
%TD*%
D19*
%TO.C,R6*%
X44660000Y-33504600D03*
X44660000Y-32484600D03*
%TD*%
D43*
%TO.C,H4*%
X40360000Y-128090000D03*
%TD*%
D30*
%TO.C,C18*%
X105164000Y-46637000D03*
X105164000Y-47597000D03*
%TD*%
D12*
%TO.C,R58*%
X99646200Y-47447200D03*
X98626200Y-47447200D03*
%TD*%
D14*
%TO.C,R46*%
X78597000Y-67657000D03*
X78597000Y-68677000D03*
%TD*%
D19*
%TO.C,R5*%
X69519800Y-66016600D03*
X69519800Y-64996600D03*
%TD*%
%TO.C,R37*%
X104648000Y-55882000D03*
X104648000Y-54862000D03*
%TD*%
D70*
%TO.C,C2*%
X126492000Y-38803646D03*
D71*
X126492000Y-46303646D03*
%TD*%
D57*
%TO.C,J7*%
X124079000Y-101463500D03*
D58*
X124079000Y-98923500D03*
X126619000Y-101463500D03*
X126619000Y-98923500D03*
X129159000Y-101463500D03*
X129159000Y-98923500D03*
X131699000Y-101463500D03*
X131699000Y-98923500D03*
%TD*%
D72*
%TO.C,D6*%
X126085600Y-69847400D03*
X122585600Y-69847400D03*
%TD*%
D24*
%TO.C,U21*%
X80530000Y-123165000D03*
D25*
X83070000Y-123165000D03*
X85610000Y-123165000D03*
X88150000Y-123165000D03*
X90690000Y-123165000D03*
X93230000Y-123165000D03*
X95770000Y-123165000D03*
X98310000Y-123165000D03*
X100850000Y-123165000D03*
X103390000Y-123165000D03*
X105930000Y-123165000D03*
X108470000Y-123165000D03*
X111010000Y-123165000D03*
X113550000Y-123165000D03*
%TD*%
D24*
%TO.C,U3*%
X113570000Y-39320000D03*
D25*
X111030000Y-39320000D03*
X108490000Y-39320000D03*
X105950000Y-39320000D03*
X103410000Y-39320000D03*
X100870000Y-39320000D03*
X98330000Y-39320000D03*
X95790000Y-39320000D03*
X93250000Y-39320000D03*
X90710000Y-39320000D03*
X88170000Y-39320000D03*
X85630000Y-39320000D03*
X83090000Y-39320000D03*
X80550000Y-39320000D03*
%TD*%
D35*
%TO.C,U17*%
X113030000Y-46990000D03*
X113030000Y-44450000D03*
X106950000Y-44450000D03*
X106950000Y-46990000D03*
%TD*%
D69*
%TO.C,C45*%
X82616000Y-94742000D03*
X84516000Y-94742000D03*
%TD*%
D73*
%TO.C,R54*%
X82762500Y-104775000D03*
X88687500Y-104775000D03*
%TD*%
D74*
%TO.C,C49*%
X78613000Y-100650000D03*
X78613000Y-102550000D03*
%TD*%
M02*
